<?xml version="1.0" encoding="UTF-8"?>
<svg width="30px" height="373px" viewBox="0 0 30 373" version="1.1" xmlns="http://www.w3.org/2000/svg" xmlns:xlink="http://www.w3.org/1999/xlink">
    <!-- Generator: Sketch 42 (36781) - http://www.bohemiancoding.com/sketch -->
    <title>Artboard</title>
    <desc>Created with Sketch.</desc>
    <defs>
        <linearGradient x1="33.8645517%" y1="23.1712713%" x2="82.3381628%" y2="23.1712713%" id="linearGradient-1">
            <stop stop-color="#000000" offset="0%"></stop>
            <stop stop-color="#000000" stop-opacity="0" offset="100%"></stop>
        </linearGradient>
        <linearGradient x1="33.863754%" y1="23.1712406%" x2="82.3373683%" y2="23.1712406%" id="linearGradient-2">
            <stop stop-color="#000000" offset="0%"></stop>
            <stop stop-color="#000000" stop-opacity="0" offset="100%"></stop>
        </linearGradient>
        <linearGradient x1="31.7514162%" y1="188.333356%" x2="33.7838885%" y2="188.333356%" id="linearGradient-3">
            <stop stop-color="#E6E6E6" offset="0%"></stop>
            <stop stop-color="#F9F9F9" offset="100%"></stop>
        </linearGradient>
        <linearGradient x1="-27.2978508%" y1="1109.86472%" x2="83.8176802%" y2="1109.86472%" id="linearGradient-4">
            <stop stop-color="#E6E6E6" offset="0%"></stop>
            <stop stop-color="#F9F9F9" offset="100%"></stop>
        </linearGradient>
        <linearGradient x1="-28.5454349%" y1="9896.72578%" x2="83.658877%" y2="9896.72578%" id="linearGradient-5">
            <stop stop-color="#E6E6E6" offset="0%"></stop>
            <stop stop-color="#F9F9F9" offset="100%"></stop>
        </linearGradient>
        <linearGradient x1="28.3149948%" y1="188.421551%" x2="34.1438659%" y2="188.421551%" id="linearGradient-6">
            <stop stop-color="#E6E6E6" offset="0%"></stop>
            <stop stop-color="#FFFFFF" offset="100%"></stop>
        </linearGradient>
        <linearGradient x1="-34.1052444%" y1="1110.46566%" x2="103.497689%" y2="1110.46566%" id="linearGradient-7">
            <stop stop-color="#E6E6E6" offset="0%"></stop>
            <stop stop-color="#F9F9F9" offset="100%"></stop>
        </linearGradient>
        <linearGradient x1="-35.4195317%" y1="9902.61834%" x2="103.531723%" y2="9902.61834%" id="linearGradient-8">
            <stop stop-color="#E6E6E6" offset="0%"></stop>
            <stop stop-color="#F9F9F9" offset="100%"></stop>
        </linearGradient>
    </defs>
    <g id="Page-1" stroke="none" stroke-width="1" fill="none" fill-rule="evenodd">
        <g id="Artboard">
            <g id="g10652">
                <g id="g10646" transform="translate(5.000000, 70.000000)" fill-rule="nonzero">
                    <rect id="rect7000" fill="#FFFFFF" x="0.12125" y="0.33398" width="18.667433" height="293.5"></rect>
                    <g id="g12518" stroke="#FFFFFF" stroke-linecap="round" opacity="0.03365383" stroke-linejoin="round" stroke-opacity="0">
                        <rect id="rect7022" stroke-width="0.42188567" fill="url(#linearGradient-1)" x="0.33502" y="0.50616" width="9.2365761" height="293.1781"></rect>
                        <rect id="rect7024" stroke-width="0.42194599" fill="url(#linearGradient-2)" transform="translate(14.006365, 146.959810) scale(-1, 1) translate(-14.006365, -146.959810) " x="9.4558497" y="0.37079" width="9.1010303" height="293.17804"></rect>
                    </g>
                </g>
                <rect id="rect6972" fill="#F7F7F7" fill-rule="nonzero" x="23.82031" y="361.3157" width="0.48061165" height="0.47508737"></rect>
                <rect id="rect6974" fill="#F7F7F7" fill-rule="nonzero" x="4.57031" y="361.3309" width="0.4765625" height="0.453125"></rect>
                <path d="M5.98611,365.772 C5.95541,365.717 5.90731,365.5778 5.90731,365.5433 L5.90731,365.5173 L7.60235,365.5173 L9.29739,365.5173 L9.30989,365.5753 C9.33519,365.6928 9.33489,365.7189 9.30789,365.7659 L9.28219,365.8099 L7.64665,365.8099 L6.01111,365.8099 L5.98641,365.7659 L5.98641,365.7659 L5.98611,365.772 Z" id="path6976" fill="#F7F7F7" fill-rule="nonzero"></path>
                <path d="M9.77574,365.7524 C9.74694,365.6954 9.69694,365.5526 9.69694,365.5275 C9.69694,365.5175 10.42371,365.5175 11.44381,365.5175 L13.19068,365.5175 L13.18368,365.5475 C13.16728,365.6175 13.14028,365.6946 13.11238,365.7503 L13.08268,365.8093 L11.44531,365.8093 L9.80793,365.8093 L9.77583,365.7453 L9.77574,365.7524 Z" id="path6978" fill="#F7F7F7" fill-rule="nonzero"></path>
                <path d="M13.4866,365.8843 C13.4866,365.8843 13.4982,365.8453 13.5124,365.8093 C13.5357,365.7503 13.5621,365.6511 13.5809,365.5533 L13.5879,365.5173 L14.46463,365.5173 C15.29017,365.5173 15.34169,365.5173 15.34683,365.5363 C15.34983,365.5473 15.35583,365.5783 15.35993,365.6053 C15.36393,365.6323 15.38433,365.7066 15.40493,365.7697 C15.42553,365.8327 15.44233,365.8862 15.44233,365.8885 L14.46453,365.8885 C13.92674,365.8885 13.48673,365.8885 13.48673,365.8785 L13.4866,365.8843 Z" id="path6980" fill="#F7F7F7" fill-rule="nonzero"></path>
                <path d="M15.81929,365.7524 C15.79049,365.6954 15.74049,365.5526 15.74049,365.5275 C15.74049,365.5175 16.46676,365.5175 17.48616,365.5175 C18.78745,365.5175 19.23183,365.5175 19.23183,365.5305 C19.23183,365.5585 19.18583,365.6926 19.15683,365.7499 L19.12603,365.8109 L17.48866,365.8109 L15.85129,365.8109 L15.81919,365.7469 L15.81929,365.7524 Z" id="path6982" fill="#F7F7F7" fill-rule="nonzero"></path>
                <path d="M19.6292,365.78 C19.5955,365.725 19.5934,365.705 19.6122,365.6136 C19.6222,365.5676 19.6296,365.5266 19.6296,365.5236 C19.6296,365.5236 20.39536,365.5136 21.33129,365.5136 L23.03298,365.5136 L23.02598,365.5436 C23.01168,365.6046 22.97528,365.7059 22.94888,365.7581 L22.92178,365.8111 L21.28662,365.8111 L19.65146,365.8111 L19.62926,365.7751 L19.6292,365.78 Z" id="path6984" fill="#F7F7F7" fill-rule="nonzero"></path>
                <path d="M5.71822,365.0889 C5.5952,364.9529 5.46308,364.6042 5.35825,364.1387 L5.33085,364.0172 L14.45779,364.0172 C21.73016,364.0172 23.58462,364.0282 23.5842,364.0722 C23.5832,364.1991 23.45061,364.6125 23.32567,364.8795 L23.19163,365.166 L14.4899,365.166 C6.25867,365.166 5.78439,365.166 5.71819,365.089 L5.71822,365.0889 Z" id="path6998" fill="#F7F7F7" fill-rule="nonzero"></path>
                <polyline id="path7026" stroke="#000000" stroke-width="0.40000001" fill="#F2F2F2" fill-rule="nonzero" points="6.03196 348.6911 6.07786 348.5499 6.15676 348.3948 6.26562 348.2332 6.40144 348.0726 6.56121 347.9203 6.7419 347.7836 6.9405 347.67 7.15401 347.587 7.37941 347.542 7.61367 347.5419 7.8538 347.5939 8.09678 347.7063 8.50013 348.7615 8.92307 349.9277 9.34601 351.0939 9.76895 352.2601 10.19189 353.4264 10.61484 354.5926 11.03778 355.7588 11.46072 356.925 11.88366 358.0912 12.3066 359.2575 12.72954 360.4237 13.15248 361.5899 13.25924 361.8733 13.27944 361.9083 13.30134 361.9413 13.32484 361.9713 13.34984 361.9993 13.37624 362.0253 13.40384 362.0493 13.43254 362.0703 13.46224 362.0893 13.49274 362.1063 13.52394 362.1213 13.55574 362.1343 13.58804 362.1453 13.62064 362.1553 13.65324 362.1653 13.68574 362.1653 13.71794 362.1653 13.74954 362.1653 13.78034 362.1656 13.81024 362.1656 13.83894 362.1656 13.86624 362.1656 13.89194 362.1656 13.91584 362.1656 13.95554 362.1656 14.00824 362.1416 14.06014 362.0916 14.11074 362.0176 14.15964 361.9236 14.20634 361.8109 14.25044 361.683 14.29144 361.5425 14.32884 361.392 14.36224 361.2345 14.39114 361.0725 14.41514 360.9088 14.22195 359.0853 13.77321 355.2699 13.32446 351.4544 12.87571 347.639 12.42696 343.8236 11.97821 340.0081 11.52947 336.19273 11.08072 332.37729 10.63197 328.56185 10.18322 324.74642 9.73448 320.93098 9.28573 317.11555 8.99147 314.53181 8.98947 314.28103 8.98747 314.03025 8.98547 313.77946 8.98347 313.52868 8.98147 313.2779 8.97947 313.02712 8.97747 312.77634 8.97547 312.52556 8.97347 312.27478 8.97147 312.024 8.96947 311.77322 8.95947 311.45933 8.92397 310.97141 8.88747 310.52924 8.85007 310.12973 8.81177 309.76973 8.77257 309.44613 8.73247 309.15581 8.69157 308.89565 8.64987 308.66253 8.60737 308.45332 8.56407 308.26492 8.52007 308.09418 8.47537 307.938 8.42997 307.79389 8.38397 307.66109 8.33727 307.53914 8.28987 307.42759 8.24177 307.32596 8.19297 307.23376 8.14337 307.15056 8.09307 307.07596 8.04207 307.00946 7.99037 306.95056 7.93787 306.89886 7.88467 306.85386 7.83077 306.81516 7.77607 306.78266 7.72067 306.75636 7.66457 306.73626 7.60777 306.72226 7.55027 306.71426 7.49207 306.71226 7.43317 306.71626 7.37367 306.72646 7.31357 306.74266 7.25277 306.76476 7.19137 306.79276 7.12937 306.82666 7.06677 306.86676 7.00337 306.91336 6.93927 306.96666 6.87427 307.02706 6.80837 307.09486 6.74157 307.17036 6.67367 307.25386 6.60467 307.34566 6.53457 307.44604 6.46327 307.55533 6.39067 307.67384 6.31677 307.80176 6.24177 307.9385 6.16607 308.08308 6.08997 308.23455 6.01387 308.39193 5.93817 308.55427 5.86317 308.7206 5.78917 308.88995 5.71657 309.06137 5.64577 309.23387 5.57707 309.40651 5.51087 309.57832 5.44747 309.74841 5.38707 309.91673 5.32987 310.08375 5.27607 310.24993 5.22577 310.41576 5.17917 310.58169 5.13647 310.7482 5.09787 310.91576 5.06347 311.08484 5.03337 311.2559"></polyline>
                <polyline id="path7028" stroke="#000000" stroke-width="0.40000001" stroke-linecap="round" fill="#F2F2F2" fill-rule="nonzero" points="6.03196 348.6911 5.99456 348.9063 5.95756 349.1257 5.92096 349.3494 5.88476 349.577 5.84886 349.8085 5.81336 350.0437 5.77816 350.2825 5.74336 350.5248 5.70886 350.7703 5.67466 351.019 5.64076 351.2707 5.60716 351.5253 5.57386 351.7826 5.54086 352.0424 5.50816 352.3047 5.47566 352.5693 5.44346 352.836 5.41146 353.1047 5.37976 353.3753 5.34826 353.6476 5.31696 353.9215 5.28586 354.1967 5.22416 354.751 5.16316 355.3093 5.10276 355.8703 4.98339 356.9964 4.92429 357.559 4.86539 358.1199 4.80669 358.6778 4.74809 359.2317 4.71879 359.5068 4.68949 359.7803 4.66019 360.0524 4.63089 360.3226 4.60159 360.591 4.57219 360.8574 4.54279 361.1215 4.51329 361.3834 4.48369 361.6428 4.45399 361.8997 4.43909 362.0271 4.43509 362.0591 4.43309 362.0751 4.43216 362.0851 4.43161 362.0851 4.43069 362.0851 4.42369 362.1021 4.41569 362.1161 4.40769 362.1281 4.39969 362.1381 4.39169 362.1481 4.38369 362.1581 4.37569 362.1581 4.36769 362.1581 4.35139 362.1581 4.33499 362.1581 4.31849 362.1581 4.28539 362.1421 4.22039 362.1051 4.15739 362.0671 4.09639 362.0291 4.03729 361.9911 3.98009 361.9521 3.92479 361.9131 3.87129 361.8731 3.81959 361.8331 3.76959 361.7931 3.72129 361.7521 3.67469 361.7111 3.62969 361.6691 3.58629 361.6271 3.54449 361.5851 3.50419 361.5431 3.46539 361.5001 3.42809 361.4571 3.35769 361.3701 3.29279 361.2821 3.23299 361.1931 3.17809 361.1031 3.12769 361.0121 3.08159 360.9211 3.03949 360.8291 3.00119 360.7371 2.96629 360.6441 2.93449 360.5511 2.90559 360.4581 2.87929 360.3641 2.85529 360.2701 2.83329 360.1761 2.81309 360.0831 2.79429 359.9901 2.78529 359.9431 2.78129 359.9201 2.77929 359.9081 2.77902 359.9081 2.77888 359.9074 2.77881 359.907 2.77903 359.897 2.78103 359.841 2.78503 359.7283 3.02587 352.5153 3.50754 338.0895 3.98922 323.66364 4.23006 316.4507 4.29026 314.64747 4.30526 314.19666 4.3062 314.16846 4.30632 314.16446 4.30637 314.16246 4.30638 314.16236 4.30644 314.16199 4.30655 314.16124 4.30701 314.15824 4.30791 314.15224 4.30991 314.14034 4.31691 314.09294 4.33141 313.99984 4.34591 313.90914 4.36041 313.82064 4.37491 313.73424 4.38951 313.64984 4.40411 313.56734 4.41881 313.48654 4.43361 313.40744 4.44851 313.32984 4.46361 313.25374 4.49421 313.10526 4.52551 312.96112 4.55771 312.82042 4.59091 312.68224 4.62521 312.54568 4.66081 312.40984 4.69781 312.27379 4.73631 312.13668 4.77671 311.99792 4.81951 311.85711 4.86521 311.71388 4.91431 311.56784 4.96721 311.41859 4.99531 311.34269 5.02451 311.26579 5.05491 311.18789 5.08661 311.10899 5.11961 311.02899 5.15401 310.94779 5.18981 310.86549 5.22721 310.78189 5.26611 310.69699 5.30671 310.61079 5.34891 310.52319 5.39291 310.43419 5.43871 310.34369 5.48641 310.25169"></polyline>
                <polyline id="path7030" stroke="#000000" stroke-width="0.40000001" fill="#F2F2F2" fill-rule="nonzero" points="22.89801 348.6911 22.85211 348.5499 22.77321 348.3948 22.66434 348.2332 22.52852 348.0726 22.36876 347.9203 22.18807 347.7836 21.98946 347.67 21.77595 347.587 21.55056 347.542 21.31629 347.5419 21.07616 347.5939 20.83319 347.7063 20.42983 348.7615 20.00689 349.9277 19.58395 351.0939 19.16101 352.2601 18.73807 353.4264 18.31513 354.5926 17.89219 355.7588 17.46925 356.925 17.04631 358.0912 16.62337 359.2575 16.20043 360.4237 15.77749 361.5899 15.67072 361.8733 15.65052 361.9083 15.62862 361.9413 15.60502 361.9713 15.58002 361.9993 15.55362 362.0253 15.52602 362.0493 15.49732 362.0703 15.46762 362.0893 15.43712 362.1063 15.40592 362.1213 15.37412 362.1343 15.34182 362.1453 15.30922 362.1553 15.27662 362.1653 15.24412 362.1653 15.21192 362.1653 15.18032 362.1653 15.14952 362.1656 15.11962 362.1656 15.09092 362.1656 15.06362 362.1656 15.03792 362.1656 15.01402 362.1656 14.97432 362.1656 14.92162 362.1416 14.86972 362.0916 14.81912 362.0176 14.77022 361.9236 14.72352 361.8109 14.67942 361.683 14.63842 361.5425 14.60102 361.392 14.56762 361.2345 14.53872 361.0725 14.51472 360.9088 14.7079 359.0853 15.15665 355.2699 15.6054 351.4544 16.05415 347.639 16.50289 343.8236 16.95164 340.0081 17.40039 336.19273 17.84914 332.37729 18.29788 328.56185 18.74663 324.74642 19.19538 320.93098 19.64413 317.11555 19.93838 314.53181 19.94038 314.28103 19.94238 314.03025 19.94438 313.77946 19.94638 313.52868 19.94838 313.2779 19.95038 313.02712 19.95238 312.77634 19.95438 312.52556 19.95638 312.27478 19.95838 312.024 19.96038 311.77322 19.97038 311.45933 20.00588 310.97141 20.04238 310.52924 20.07978 310.12973 20.11808 309.76973 20.15728 309.44613 20.19738 309.15581 20.23828 308.89565 20.27998 308.66253 20.32248 308.45332 20.36578 308.26492 20.40978 308.09418 20.45448 307.938 20.49988 307.79389 20.54588 307.66109 20.59258 307.53914 20.63998 307.42759 20.68808 307.32596 20.73688 307.23376 20.78638 307.15056 20.83668 307.07596 20.88768 307.00946 20.93938 306.95056 20.99188 306.89886 21.04508 306.85386 21.09908 306.81516 21.15378 306.78266 21.20918 306.75636 21.26528 306.73626 21.32208 306.72226 21.37958 306.71426 21.43778 306.71226 21.49658 306.71626 21.55608 306.72646 21.61618 306.74266 21.67698 306.76476 21.73838 306.79276 21.80038 306.82666 21.86298 306.86676 21.92638 306.91336 21.99048 306.96666 22.05548 307.02706 22.12138 307.09486 22.18818 307.17036 22.25608 307.25386 22.32508 307.34566 22.39518 307.44604 22.46648 307.55533 22.53908 307.67384 22.61298 307.80176 22.68798 307.9385 22.76368 308.08308 22.83968 308.23455 22.91578 308.39193 22.99148 308.55427 23.06648 308.7206 23.14048 308.88995 23.21308 309.06137 23.28388 309.23387 23.35258 309.40651 23.41878 309.57832 23.48218 309.74841 23.54258 309.91673 23.59978 310.08375 23.65358 310.24993 23.70388 310.41576 23.75048 310.58169 23.79318 310.7482 23.83188 310.91576 23.86628 311.08484 23.89638 311.2559"></polyline>
                <polyline id="path7032" stroke="#000000" stroke-width="0.40000001" stroke-linecap="round" fill="#F2F2F2" fill-rule="nonzero" points="22.89801 348.6911 22.93541 348.9063 22.97241 349.1257 23.00901 349.3494 23.04521 349.577 23.08111 349.8085 23.11661 350.0437 23.15181 350.2825 23.18661 350.5248 23.22111 350.7703 23.25531 351.019 23.28921 351.2707 23.32281 351.5253 23.35611 351.7826 23.38911 352.0424 23.42181 352.3047 23.45431 352.5693 23.48651 352.836 23.51851 353.1047 23.55021 353.3753 23.58171 353.6476 23.61301 353.9215 23.64411 354.1967 23.70581 354.751 23.76681 355.3093 23.82721 355.8703 23.94657 356.9964 24.00567 357.559 24.06457 358.1199 24.12327 358.6778 24.18187 359.2317 24.21117 359.5068 24.24047 359.7803 24.26977 360.0524 24.29907 360.3226 24.32837 360.591 24.35777 360.8574 24.38717 361.1215 24.41667 361.3834 24.44627 361.6428 24.47597 361.8997 24.49087 362.0271 24.49487 362.0591 24.49687 362.0751 24.4978 362.0851 24.49834 362.0851 24.49926 362.0851 24.50626 362.1021 24.51426 362.1161 24.52226 362.1281 24.53026 362.1381 24.53826 362.1481 24.54626 362.1581 24.55426 362.1581 24.56226 362.1581 24.57856 362.1581 24.59496 362.1581 24.61146 362.1581 24.64456 362.1421 24.70956 362.1051 24.77256 362.0671 24.83356 362.0291 24.89266 361.9911 24.94986 361.9521 25.00516 361.9131 25.05866 361.8731 25.11036 361.8331 25.16036 361.7931 25.20866 361.7521 25.25526 361.7111 25.30026 361.6691 25.34366 361.6271 25.38546 361.5851 25.42576 361.5431 25.46456 361.5001 25.50186 361.4571 25.57226 361.3701 25.63716 361.2821 25.69696 361.1931 25.75186 361.1031 25.80226 361.0121 25.84836 360.9211 25.89046 360.8291 25.92876 360.7371 25.96366 360.6441 25.99536 360.5511 26.02426 360.4581 26.05056 360.3641 26.07456 360.2701 26.09656 360.1761 26.11676 360.0831 26.13556 359.9901 26.14456 359.9431 26.14856 359.9201 26.15056 359.9081 26.15083 359.9081 26.15096 359.9074 26.15103 359.907 26.15082 359.897 26.14882 359.841 26.14482 359.7283 25.90399 352.5153 25.42231 338.0895 24.94064 323.66364 24.6998 316.4507 24.6396 314.64747 24.6246 314.19666 24.62366 314.16846 24.62354 314.16446 24.62348 314.16246 24.62347 314.16236 24.62341 314.16199 24.6233 314.16124 24.62285 314.15824 24.62194 314.15224 24.61994 314.14034 24.61294 314.09294 24.59844 313.99984 24.58394 313.90914 24.56944 313.82064 24.55494 313.73424 24.54034 313.64984 24.52574 313.56734 24.51104 313.48654 24.49624 313.40744 24.48134 313.32984 24.46624 313.25374 24.43564 313.10526 24.40434 312.96112 24.37214 312.82042 24.33894 312.68224 24.30464 312.54568 24.26904 312.40984 24.23204 312.27379 24.19354 312.13668 24.15314 311.99792 24.11034 311.85711 24.06464 311.71388 24.01554 311.56784 23.96264 311.41859 23.93454 311.34269 23.90534 311.26579 23.87494 311.18789 23.84324 311.10899 23.81024 311.02899 23.77584 310.94779 23.74004 310.86549 23.70264 310.78189 23.66374 310.69699 23.62314 310.61079 23.58084 310.52319 23.53684 310.43419 23.49104 310.34369 23.44334 310.25169"></polyline>
                <g id="g7034" transform="translate(7.997613, 365.995218)" stroke="#FFFFFF" fill-rule="nonzero" stroke-opacity="0" fill="#333333" stroke-linecap="round" stroke-linejoin="round">
                    <g id="g7036" stroke-width="0.40000001">
                        <path d="M1.43411,2.5953 C1.2419,2.119 0.98818,1.5651 0.73512,1.0689 L0.63672,0.876 L0.67742,0.8 C0.74852,0.6678 0.91186,0.3809 1.01044,0.2156 L1.04554,0.1576 L1.24342,0.1576 C1.35222,0.1576 1.57063,0.1576 1.72867,0.1577 L2.01601,0.1577 L2.05401,0.2207 C2.13861,0.3617 2.35603,0.7437 2.40798,0.8425 L2.42578,0.8765 L2.37438,0.9755 C2.09847,1.5058 1.82225,2.1072 1.60017,2.6612 L1.56287,2.7542 L1.53047,2.7542 L1.49807,2.7542 L1.43427,2.596 L1.43427,2.596 L1.43411,2.5953 Z" id="path7038"></path>
                        <path d="M11.24045,2.4445 C11.04824,1.9682 10.79452,1.4143 10.54146,0.9181 L10.44306,0.7252 L10.48376,0.6492 C10.55486,0.517 10.7182,0.2301 10.81678,0.0648 L10.85188,0.0068 L11.04976,0.0068 C11.15856,0.0068 11.37697,0.0068 11.53501,0.0069 L11.82235,0.0069 L11.86035,0.0699 C11.94495,0.2109 12.16237,0.5929 12.21432,0.6917 L12.23212,0.7257 L12.18072,0.8247 C11.90481,1.355 11.62859,1.9564 11.40651,2.5104 L11.36921,2.6034 L11.33681,2.6034 L11.30441,2.6034 L11.24061,2.4452 L11.24061,2.4452 L11.24045,2.4445 Z" id="path7040"></path>
                    </g>
                    <path d="M5.36218,1.9034 C5.44178,1.7471 5.59063,1.4693 5.69281,1.2861 L5.87861,0.9533 L5.65975,0.5657 L5.4409,0.178 L5.06483,0.178 C4.74401,0.178 4.68877,0.167 4.68877,0.137 C4.68877,0.104 4.65777,0.098 4.52628,0.104 C4.37252,0.115 4.36095,0.117 4.31025,0.2052 L4.25665,0.2982 L4.53824,0.8392 C4.69313,1.1368 4.9016,1.5612 5.00154,1.7824 C5.10156,2.0037 5.19091,2.1852 5.20029,2.1856 C5.20929,2.1862 5.28249,2.0587 5.36216,1.9024 L5.36218,1.9034 Z" id="path7042" stroke-width="0.40000004"></path>
                    <path d="M7.63045,1.8837 C7.55085,1.7274 7.402,1.4496 7.29982,1.2664 L7.11402,0.9336 L7.33288,0.546 L7.55173,0.1583 L7.9278,0.1583 C8.24862,0.1583 8.30386,0.1473 8.30386,0.1173 C8.30386,0.0843 8.33486,0.0783 8.46635,0.0843 C8.62011,0.0953 8.63168,0.0973 8.68238,0.1855 L8.73598,0.2785 L8.45439,0.8195 C8.2995,1.1171 8.09103,1.5415 7.99109,1.7627 C7.89107,1.984 7.80172,2.1655 7.79234,2.1659 C7.78334,2.1665 7.71014,2.039 7.63047,1.8827 L7.63045,1.8837 Z" id="path7044" stroke-width="0.40000004"></path>
                    <path d="M4.11995,6.1464 C4.11995,6.1334 4.20265,5.765 4.21435,5.7251 C4.38768,3.4757 4.56752,3.9427 5.27803,2.5778 C5.27803,2.5088 5.762,1.53 6.03059,1.0564 L6.1676,0.8148 L6.1676,0.5015 L6.1676,0.1881 L6.50329,0.1881 L6.83898,0.1881 L6.83898,0.5057 L6.83898,0.8233 L6.98285,1.0771 C7.13337,1.3426 7.54897,2.1596 7.64535,2.3795 L7.70145,2.5073 C8.58348,4.9086 7.92005,2.8006 8.82774,5.9009 C8.85084,6.0055 8.86974,6.1059 8.86974,6.1242 C8.86974,6.1572 8.86574,6.1572 6.49474,6.1572 C5.18849,6.1572 4.11974,6.1572 4.11974,6.1462 L4.11995,6.1464 Z" id="path7046" stroke-width="0.40000001"></path>
                </g>
                <path d="M5.14184,363.8167 L23.78813,363.8167" id="path7050" stroke="#000000" stroke-width="0.40000001"></path>
                <path d="M5.14184,116.61019 L23.78813,116.61019" id="path7054" stroke="#000000" stroke-width="0.40000001"></path>
                <path d="M17.99591,366.0098 L16.97804,366.0098" id="path7060" stroke="#000000" stroke-width="0.40000001"></path>
                <path d="M7.08862,371.3262 L12.00013,371.3262" id="path7062" stroke="#000000" stroke-width="0.40000001"></path>
                <path d="M9.03544,366.0098 L10.05331,366.0098" id="path7064" stroke="#000000" stroke-width="0.40000001"></path>
                <path d="M10.49369,366.8367 C10.3544448,366.557113 10.2075968,366.281377 10.05331,366.0098" id="path7066" stroke="#000000" stroke-width="0.40000001"></path>
                <path d="M9.03544,366.0098 C8.88115319,366.281377 8.73430521,366.557113 8.59506,366.8367" id="path7068" stroke="#000000" stroke-width="0.40000001"></path>
                <path d="M12.41737,366.0098 L13.18151,366.0098" id="path7070" stroke="#000000" stroke-width="0.40000001"></path>
                <path d="M13.92577,366.9382 C13.7848429,366.650488 13.6358913,366.366777 13.47909,366.0874" id="path7072" stroke="#000000" stroke-width="0.40000001"></path>
                <path d="M12.41737,366.0098 C12.3378148,366.149835 12.2602338,366.290982 12.18465,366.4332" id="path7074" stroke="#000000" stroke-width="0.40000001"></path>
                <path d="M21.84135,371.3262 L16.92984,371.3262" id="path7076" stroke="#000000" stroke-width="0.40000001"></path>
                <path d="M19.89453,366.0098 L18.87666,366.0098" id="path7078" stroke="#000000" stroke-width="0.40000001"></path>
                <path d="M18.87666,366.0098 C18.7223732,366.281377 18.5755252,366.557113 18.43628,366.8367" id="path7080" stroke="#000000" stroke-width="0.40000001"></path>
                <path d="M20.33491,366.8367 C20.1956648,366.557113 20.0488168,366.281377 19.89453,366.0098" id="path7082" stroke="#000000" stroke-width="0.40000001"></path>
                <path d="M16.51261,366.0098 L15.74846,366.0098" id="path7084" stroke="#000000" stroke-width="0.40000001"></path>
                <path d="M13.18151,366.0098 C13.3324956,365.814587 13.4091004,365.572022 13.39762,365.3255" id="path7086" stroke="#000000" stroke-width="0.40000001"></path>
                <path d="M9.70449,366.0098 L13.18151,366.0098" id="path7088" stroke="#000000" stroke-width="0.40000001"></path>
                <path d="M15.53236,365.3255 C15.5208768,365.572021 15.597478,365.814585 15.74846,366.0098" id="path7090" stroke="#000000" stroke-width="0.40000001"></path>
                <path d="M19.22549,366.0098 C19.376472,365.814585 19.4530732,365.572021 19.44159,365.3255" id="path7092" stroke="#000000" stroke-width="0.40000001"></path>
                <path d="M13.47909,366.0874 L15.45089,366.0874" id="path7094" stroke="#000000" stroke-width="0.40000001"></path>
                <path d="M12.67189,366.0098 C12.6888891,366.03662 12.7071082,366.062648 12.72649,366.0878" id="path7096" stroke="#000000" stroke-width="0.40000001"></path>
                <path d="M16.2035,366.0874 C16.2228818,366.062248 16.2411009,366.03622 16.2581,366.0094" id="path7098" stroke="#000000" stroke-width="0.40000001"></path>
                <path d="M12.72647,366.0874 L16.2035,366.0874" id="path7100" stroke="#000000" stroke-width="0.40000001"></path>
                <path d="M15.50068,366.0874 C15.3438787,366.366777 15.1949271,366.650488 15.054,366.9382" id="path7102" stroke="#000000" stroke-width="0.40000001"></path>
                <path d="M15.50068,366.0874 C15.3438787,366.366777 15.1949271,366.650488 15.054,366.9382" id="path7104" stroke="#000000" stroke-width="0.40000001"></path>
                <path d="M16.77022,366.3865 C16.7025225,366.26007 16.6332437,366.134494 16.5624,366.0098" id="path7106" stroke="#000000" stroke-width="0.40000001"></path>
                <path d="M23.78813,70.11781 L23.78813,310.98631" id="path7108" stroke="#000000" stroke-width="0.40000001"></path>
                <path d="M12.21128,371.3262 C12.145391,371.601564 12.0863229,371.878515 12.03413,372.1568 L16.94564,372.1568 C16.8934471,371.878515 16.834379,371.601564 16.76849,371.3262" id="path7110" stroke="#000000" stroke-width="0.40000001"></path>
                <path d="M13.13204,368.5493 C13.3831161,367.964372 13.6665235,367.393858 13.98095,366.8404 L13.98095,366.0874" id="path7112" stroke="#000000" stroke-width="0.40000001"></path>
                <path d="M14.99882,366.0874 L14.99882,366.8404 C15.302112,367.37424 15.5765529,367.923963 15.82096,368.4872" id="path7114" stroke="#000000" stroke-width="0.40000001"></path>
                <path d="M9.54438,369.1517 C9.18734946,368.060576 8.72178982,367.008009 8.15469,366.0098 L7.13682,366.0098 C6.19817987,367.662003 5.54029899,369.458552 5.19,371.3262 L10.10151,371.3262" id="path7116" stroke="#000000" stroke-width="0.40000001" fill="#333333" fill-rule="nonzero"></path>
                <path d="M19.3856,365.7137 C19.4225281,365.820443 19.476607,365.920454 19.54571,366.0098 L23.02274,366.0098 C23.173722,365.814585 23.2503232,365.572021 23.23884,365.3255" id="path7118" stroke="#000000" stroke-width="0.40000001"></path>
                <path d="M18.82847,371.3262 L23.73998,371.3262 C23.389681,369.458552 22.7318001,367.662003 21.79316,366.0098 L20.77529,366.0098 C20.2081902,367.008009 19.7426305,368.060576 19.3856,369.1517" id="path7120" stroke="#000000" stroke-width="0.40000001" fill="#333333" fill-rule="nonzero"></path>
                <path d="M10.93407,366.0098 C9.99542987,367.662003 9.33754899,369.458552 8.98725,371.3262 L13.89876,371.3262 C13.548461,369.458552 12.8905801,367.662003 11.95194,366.0098 L10.93407,366.0098 Z" id="path7122" stroke="#000000" stroke-width="0.40000001" fill="#333333" fill-rule="nonzero"></path>
                <g id="g8572" transform="translate(0.500000, 0.000000)">
                    <g id="g7006" transform="translate(0.145620, 0.412939)" fill-rule="nonzero">
                        <g id="g7008">
                            <path d="M1.04566,61.16047 C0.98076,60.16389 0.95826,51.31401 0.99556,41.49407 C1.06946,22.08999 1.05796,22.33505 2.11998,17.37244 C3.33191,11.70914 5.64471,7.25846 9.55539,3.06395 C11.10276,1.40428 12.34165,0.57607 13.28305,0.57199 L13.68079,0.56999 L13.68079,31.77108 L13.68079,62.97216 L7.42223,62.97216 L1.16367,62.97216 L1.04563,61.1602 L1.04566,61.16047 Z" id="path7010" fill="url(#linearGradient-4)"></path>
                            <path d="M4.53657,69.46898 C4.44197,69.34744 3.78487,68.17409 3.07627,66.86152 C2.36766,65.54895 1.63331,64.2165 1.44437,63.90051 L1.10084,63.32599 L7.39083,63.32599 L13.68082,63.32599 L13.68082,66.50797 L13.68082,69.68995 L9.19466,69.68995 C5.81528,69.68995 4.66609,69.63545 4.53657,69.46898 L4.53657,69.46898 Z" id="path7012" fill="url(#linearGradient-5)"></path>
                        </g>
                        <g id="g7014" transform="translate(20.688360, 35.000000) scale(-1, 1) translate(-20.688360, -35.000000) translate(13.688360, 0.000000)">
                            <path d="M1.04566,61.16047 C0.98076,60.16389 0.95826,51.31401 0.99556,41.49407 C1.06946,22.08999 1.05796,22.33505 2.11998,17.37244 C3.33191,11.70914 5.64471,7.25846 9.55539,3.06395 C11.10276,1.40428 12.34165,0.57607 13.28305,0.57199 L13.68079,0.56999 L13.68079,31.77108 L13.68079,62.97216 L7.42223,62.97216 L1.16367,62.97216 L1.04563,61.1602 L1.04566,61.16047 Z" id="path7016" fill="url(#linearGradient-7)"></path>
                            <path d="M4.53657,69.46898 C4.44197,69.34744 3.78487,68.17409 3.07627,66.86152 C2.36766,65.54895 1.63331,64.2165 1.44437,63.90051 L1.10084,63.32599 L7.39083,63.32599 L13.68082,63.32599 L13.68082,66.50797 L13.68082,69.68995 L9.19466,69.68995 C5.81528,69.68995 4.66609,69.63545 4.53657,69.46898 L4.53657,69.46898 Z" id="path7018" fill="url(#linearGradient-8)"></path>
                        </g>
                    </g>
                    <path d="M4.64184,70.21889 L23.28813,70.21889" id="path7048" stroke="#000000" stroke-width="0.40000001"></path>
                    <path d="M1.00233,63.54349 L26.92765,63.54349" id="path7056" stroke="#000000" stroke-width="0.40000001"></path>
                    <polyline id="path7058" stroke="#000000" stroke-width="0.40000001" points="4.64184 70.21889 4.25266 69.50506 3.86347 68.79124 3.47428 68.07741 3.08509 67.36358 2.6959 66.64975 2.30672 65.93592 1.91753 65.2221 1.52834 64.50827 1.13915 63.79444 1.00233 60.92999 1.00233 56.89956 1.00233 52.86912 1.00233 48.83869 1.00233 44.80825 1.00233 40.77782 1.00233 36.74738 1.00233 32.71695 1.00233 28.68651 1.01703 25.69537 1.06673 25.16566 1.11723 24.63594 1.16903 24.10618 1.22283 23.57637 1.27913 23.0465 1.33853 22.51655 1.40163 21.9865 1.46903 21.45635 1.54133 20.92607 1.61903 20.39568 1.70253 19.86538 1.79193 19.3355 1.88763 18.80634 1.98972 18.27822 2.09848 17.75145 2.21412 17.22635 2.33686 16.70322 2.46693 16.18239 2.60456 15.66415 2.74996 15.14884 2.90336 14.63675 3.06498 14.12821 3.23505 13.62353 3.41378 13.12302 3.60141 12.62699 3.79815 12.13576 4.00423 11.64964 4.21983 11.16888 4.44496 10.69343 4.67952 10.22306 4.92342 9.75758 5.1766 9.29679 5.43895 8.84048 5.71039 8.38845 5.99085 7.94049 6.28023 7.49641 6.57845 7.05601 6.88543 6.61907 7.20107 6.1854 7.5253 5.75479 7.85803 5.32705 8.19918 4.90196 8.54866 4.47932 8.90638 4.05894 9.27226 3.64061 9.6463 3.22442 10.02971 2.81519 10.42472 2.42153 10.83357 2.05221 11.25851 1.71595 11.70179 1.4215 12.16567 1.1776 12.65237 0.99299 13.16423 0.87524 13.70475 0.80974 14.26983 0.80924 14.81066 0.87444 15.32279 0.99154 15.80976 1.17553 16.27389 1.41889 16.71741 1.71288 17.14255 2.04877 17.55155 2.41781 17.94666 2.81127 18.3301 3.22041 18.70409 3.63658 19.06986 4.05491 19.42744 4.47529 19.77673 4.89793 20.11768 5.32302 20.4502 5.75077 20.77423 6.18138 21.0897 6.61505 21.39652 7.05198 21.69464 7.49237 21.98398 7.93642 22.26446 8.38435 22.53601 8.83633 22.79857 9.29259 23.05206 9.75331 23.2964 10.21871 23.53153 10.68898 23.75737 11.16432 23.97385 11.64494 24.18096 12.13091 24.37885 12.62198 24.5677 13.11784 24.74769 13.61819 24.919 14.12271 25.0818 14.6311 25.23628 15.14305 25.3826 15.65825 25.52097 16.17638 25.65154 16.69715 25.7745 17.22024 25.89003 17.74535 25.99831 18.27216 26.09952 18.80037 26.19382 19.32966 26.28142 19.85974 26.36252 20.39029 26.43722 20.921 26.50592 21.45166 26.56912 21.98226 26.62762 22.51279 26.68202 23.04327 26.73292 23.57372 26.78102 24.10412 26.82692 24.6345 26.87132 25.16486 26.91492 25.69522 26.92782 28.68655 26.92782 32.71699 26.92782 36.74742 26.92782 40.77786 26.92782 44.80829 26.92782 48.83873 26.92782 52.86916 26.92782 56.8996 26.92782 60.93003 26.79099 63.79448 26.4018 64.50831 26.01262 65.22214 25.62343 65.93596 25.23424 66.64979 24.84505 67.36362 24.45586 68.07745 24.06668 68.79128 23.67749 69.5051 23.2883 70.21893"></polyline>
                    <path d="M13.96499,70.21889 L13.96499,0.80951" id="path7124" stroke="#000000" stroke-width="0.40000001"></path>
                </g>
                <path d="M8.97224,311.56663 L7.73818,310.25931" id="path7126" stroke="#000000" stroke-width="0.40000001"></path>
                <path d="M7.73818,310.25931 L5.48759,310.25931" id="path7128" stroke="#000000" stroke-width="0.40000001"></path>
                <path d="M5.21868,340.6242 L5.39316,316.50484" id="path7130" stroke="#000000" stroke-width="0.40000001"></path>
                <path d="M5.39316,316.50484 L7.55367,313.57956" id="path7132" stroke="#000000" stroke-width="0.40000001"></path>
                <path d="M5.39316,316.50484 L4.36094,313.83065" id="path7134" stroke="#000000" stroke-width="0.40000001"></path>
                <path d="M7.55367,313.57956 L7.73818,310.25931" id="path7136" stroke="#000000" stroke-width="0.40000001" stroke-linecap="round"></path>
                <path d="M5.14184,310.98631 L5.14184,70.11781" id="path7138" stroke="#000000" stroke-width="0.40000001"></path>
                <path d="M4.52805,361.254 L5.14184,361.254" id="path7140" stroke="#000000" stroke-width="0.40000001"></path>
                <path d="M4.45297,361.91 L5.14184,361.91" id="path7142" stroke="#000000" stroke-width="0.40000001"></path>
                <path d="M23.78813,355.507 L23.78813,363.8167 C23.7635015,364.354412 23.594578,364.87558 23.29909,365.3255 L14.46499,365.3255 L5.63089,365.3255 C5.33539844,364.875581 5.16647145,364.354413 5.14184,363.8167 L5.14184,355.507" id="path7144" stroke="#000000" stroke-width="0.40000001"></path>
                <path d="M14.15906,361.91 L14.77091,361.91" id="path7146" stroke="#000000" stroke-width="0.40000001"></path>
                <path d="M14.35542,361.254 L14.57456,361.254" id="path7148" stroke="#000000" stroke-width="0.40000001"></path>
                <polyline id="path7150" stroke="#000000" stroke-width="0.40000001" points="3.20966 361.1576 3.32807 359.6558 3.44648 358.154 3.56489 356.6522 3.68329 355.1504 3.8017 353.6486 3.92011 352.1468 4.03852 350.645 4.15693 349.1432 4.27534 347.6414 4.39374 346.1396 4.51215 344.6378 4.63056 343.136 4.74897 341.6342 4.79877 341.1577 4.83177 341.0385 4.87097 340.9361 4.91577 340.8501 4.96557 340.7791 5.01957 340.7221 5.07727 340.6791 5.13787 340.6481 5.20077 340.6291 5.26527 340.6191 5.33077 340.6191 5.39647 340.6291 5.46187 340.6471 5.52627 340.6721 5.58927 340.7041 5.65077 340.7421 5.71077 340.7851 5.76917 340.8321 5.82597 340.8841 5.88107 340.9391 5.93437 340.9971 5.98577 341.0571 6.03527 341.1191 6.08287 341.1821 6.12837 341.2461 6.17187 341.3101 6.34876 341.7501 6.93161 343.3194 7.51445 344.8887 8.0973 346.458 8.68015 348.0274 9.26299 349.5967 9.84584 351.166 10.42869 352.7353 11.01153 354.3046 11.59438 355.8739 12.17722 357.4433 12.76007 359.0126 13.34292 360.5819 13.92576 362.1512"></polyline>
                <path d="M19.95774,311.56663 L21.19179,310.25931" id="path7152" stroke="#000000" stroke-width="0.40000001"></path>
                <path d="M21.19179,310.25931 L23.44238,310.25931" id="path7154" stroke="#000000" stroke-width="0.40000001"></path>
                <path d="M23.71129,340.6242 L23.53682,316.50484" id="path7156" stroke="#000000" stroke-width="0.40000001"></path>
                <path d="M23.53682,316.50484 L21.37631,313.57956" id="path7158" stroke="#000000" stroke-width="0.40000001"></path>
                <path d="M23.53682,316.50484 L24.56903,313.83065" id="path7160" stroke="#000000" stroke-width="0.40000001"></path>
                <path d="M21.37631,313.57956 L21.19179,310.25931" id="path7162" stroke="#000000" stroke-width="0.40000001" stroke-linecap="round"></path>
                <path d="M24.40192,361.254 L23.78813,361.254" id="path7164" stroke="#000000" stroke-width="0.40000001"></path>
                <path d="M24.477,361.91 L23.78813,361.91" id="path7166" stroke="#000000" stroke-width="0.40000001"></path>
                <polyline id="path7169" stroke="#000000" stroke-width="0.40000001" points="25.72031 361.1576 25.6019 359.6558 25.4835 358.154 25.36509 356.6522 25.24668 355.1504 25.12827 353.6486 25.00986 352.1468 24.89145 350.645 24.77305 349.1432 24.65464 347.6414 24.53623 346.1396 24.41782 344.6378 24.29941 343.136 24.18101 341.6342 24.13121 341.1577 24.09821 341.0385 24.05901 340.9361 24.01421 340.8501 23.96441 340.7791 23.91041 340.7221 23.85271 340.6791 23.79211 340.6481 23.72921 340.6291 23.66471 340.6191 23.59921 340.6191 23.53341 340.6291 23.46801 340.6471 23.40361 340.6721 23.34061 340.7041 23.27911 340.7421 23.21911 340.7851 23.16071 340.8321 23.10391 340.8841 23.04881 340.9391 22.99551 340.9971 22.94411 341.0571 22.89461 341.1191 22.84701 341.1821 22.80151 341.2461 22.75801 341.3101 22.58112 341.7501 21.99828 343.3194 21.41543 344.8887 20.83258 346.458 20.24974 348.0274 19.66689 349.5967 19.08404 351.166 18.5012 352.7353 17.91835 354.3046 17.33551 355.8739 16.75266 357.4433 16.16981 359.0126 15.58697 360.5819 15.00412 362.1512"></polyline>
                <path d="M17.99591,366.0098 C18.9345501,367.662003 19.592431,369.458552 19.94273,371.3262 L15.03122,371.3262 C15.381519,369.458552 16.0393999,367.662003 16.97804,366.0098" id="path7171" stroke="#000000" stroke-width="0.40000001" fill="#333333" fill-rule="nonzero"></path>
                <path d="M15.74846,366.0098 L19.22549,366.0098" id="path7173" stroke="#000000" stroke-width="0.40000001"></path>
                <path d="M5.69113,365.3255 C5.67964964,365.572022 5.75625443,365.814587 5.90724,366.0098 L9.38427,366.0098 C9.45337296,365.920454 9.5074519,365.820443 9.54438,365.7137" id="path7175" stroke="#000000" stroke-width="0.40000001"></path>
                <path d="M9.48838,365.3255 C9.47689964,365.572022 9.55350443,365.814587 9.70449,366.0098" id="path7177" stroke="#000000" stroke-width="0.40000001"></path>
                <path d="M5.14184,152.30272 L23.78813,152.30272" id="path7052" stroke="#000000" stroke-width="0.40000001"></path>
                <g id="g5824" transform="translate(3.612214, 144.375000)">
                    <g id="g5826" transform="translate(0.911612, 0.000000)">
                        <polygon id="path5828" fill="#FFFFFF" points="0.32444 13.13656 0.29324 6.73031 1.35574 5.16781 1.32454 3.48031 2.16829 1.88656 2.44954 0.98031 3.13704 0.73031 3.82454 0.79281 4.23079 0.91781 4.60579 1.91781 4.82454 3.01156 4.85574 3.94906 4.85574 4.94906 4.76204 5.66781 5.57454 6.57406 5.57454 13.04281 4.94954 13.16781"></polygon>
                        <polygon id="path5830" stroke="#000000" stroke-width="0.30000001" stroke-linecap="square" stroke-linejoin="round" points="4.94374 6.73199 4.94374 13.16225 0.32005 13.16225 0.32005 6.75782 1.25352 5.141 3.46323 5.141"></polygon>
                        <path d="M1.31981,13.02966 L1.31981,5.1852 L1.31981,3.55001 L2.09321,2.00322 C2.99819,1.57842 3.76608,1.73626 4.4355,2.31258 L4.32502,5.2073" id="path5832" stroke="#000000" stroke-width="0.30000001" stroke-linecap="square" stroke-linejoin="round"></path>
                        <path d="M3.36401,5.1852 L3.36401,13.02966" id="path5834" stroke="#000000" stroke-width="0.30000001" stroke-linecap="square" stroke-linejoin="round"></path>
                        <polyline id="path5836" stroke="#000000" stroke-width="0.30000001" stroke-linecap="square" stroke-linejoin="round" points="3.44113 5.1631 4.19243 5.141 5.56245 6.62151 5.56245 13.09059 4.93382 13.15219"></polyline>
                        <polyline id="path5838" stroke="#000000" stroke-width="0.30000001" stroke-linecap="square" stroke-linejoin="round" points="3.50742 5.11891 3.52952 3.52792 4.39131 2.42306"></polyline>
                        <path d="M2.07111,2.00322 L2.46886,1.03095 C2.9623,0.7386 3.56669,0.74213 4.23663,0.92046 C4.89929,2.43095 4.96342,4.02125 4.74486,5.64924" id="path5840" stroke="#000000" stroke-width="0.30000001" stroke-linecap="square" stroke-linejoin="round"></path>
                        <path d="M1.364,3.41743 C2.1756,3.08629 2.87221,3.13848 3.50742,3.39533" id="path5842" stroke="#000000" stroke-width="0.30000001" stroke-linecap="round" stroke-linejoin="round"></path>
                        <path d="M3.35569,13.13656 L4.91819,11.57406" id="path5844" fill="#FFFFFF"></path>
                        <path d="M3.35569,13.13656 L4.88694,11.44906" id="path5846" stroke="#000000" stroke-width="0.30000001" stroke-linecap="round" stroke-linejoin="round" fill="#FFFFFF"></path>
                        <path d="M1.94944,13.13656 L4.85569,9.44906" id="path5848" stroke="#000000" stroke-width="0.30000001" stroke-linecap="round" stroke-linejoin="round" fill="#FFFFFF"></path>
                        <path d="M4.88694,7.57406 L0.54319,13.10531" id="path5850" stroke="#000000" stroke-width="0.30000001" stroke-linecap="round" stroke-linejoin="round" fill="#FFFFFF"></path>
                        <path d="M4.44944,6.32406 L0.35569,11.57406" id="path5852" stroke="#000000" stroke-width="0.30000001" stroke-linecap="round" stroke-linejoin="round" fill="#FFFFFF"></path>
                        <path d="M3.66819,5.38656 L0.38694,9.69906" id="path5854" stroke="#000000" stroke-width="0.30000001" stroke-linecap="round" stroke-linejoin="round" fill="#FFFFFF"></path>
                        <path d="M2.32444,5.23031 L0.33225,7.785" id="path5856" stroke="#000000" stroke-width="0.30000001" stroke-linecap="round" stroke-linejoin="round" fill="#FFFFFF"></path>
                        <path d="M2.63694,13.07406 L0.32444,9.79281" id="path5858" stroke="#000000" stroke-width="0.30000001" stroke-linecap="round" stroke-linejoin="round" fill="#FFFFFF"></path>
                        <path d="M0.38694,11.60531 L1.35569,13.13656" id="path5860" stroke="#000000" stroke-width="0.30000001" stroke-linecap="round" stroke-linejoin="round" fill="#FFFFFF"></path>
                        <path d="M4.18493,13.087 L0.35569,8.07406" id="path5862" stroke="#000000" stroke-width="0.30000001" stroke-linecap="round" stroke-linejoin="round" fill="#FFFFFF"></path>
                        <path d="M4.85569,12.10531 L0.48069,6.54281" id="path5864" stroke="#000000" stroke-width="0.30000001" stroke-linecap="round" stroke-linejoin="round" fill="#FFFFFF"></path>
                        <path d="M4.91819,10.19906 L1.04319,5.63656" id="path5866" stroke="#000000" stroke-width="0.30000001" stroke-linecap="round" stroke-linejoin="round" fill="#FFFFFF"></path>
                        <path d="M4.94944,8.38656 L2.13694,5.19906" id="path5868" stroke="#000000" stroke-width="0.30000001" stroke-linecap="round" stroke-linejoin="round" fill="#FFFFFF"></path>
                    </g>
                    <g id="g5870" transform="translate(17.794110, 7.000000) scale(-1, 1) translate(-17.794110, -7.000000) translate(14.794110, 0.000000)">
                        <polygon id="path5872" fill="#FFFFFF" points="0.32444 13.13656 0.29324 6.73031 1.35574 5.16781 1.32454 3.48031 2.16829 1.88656 2.44954 0.98031 3.13704 0.73031 3.82454 0.79281 4.23079 0.91781 4.60579 1.91781 4.82454 3.01156 4.85574 3.94906 4.85574 4.94906 4.76204 5.66781 5.57454 6.57406 5.57454 13.04281 4.94954 13.16781"></polygon>
                        <polygon id="path5874" stroke="#000000" stroke-width="0.30000001" stroke-linecap="square" stroke-linejoin="round" points="4.94374 6.73199 4.94374 13.16225 0.32005 13.16225 0.32005 6.75782 1.25352 5.141 3.46323 5.141"></polygon>
                        <path d="M1.31981,13.02966 L1.31981,5.1852 L1.31981,3.55001 L2.09321,2.00322 C2.99819,1.57842 3.76608,1.73626 4.4355,2.31258 L4.32502,5.2073" id="path5876" stroke="#000000" stroke-width="0.30000001" stroke-linecap="square" stroke-linejoin="round"></path>
                        <path d="M3.36401,5.1852 L3.36401,13.02966" id="path5878" stroke="#000000" stroke-width="0.30000001" stroke-linecap="square" stroke-linejoin="round"></path>
                        <polyline id="path5880" stroke="#000000" stroke-width="0.30000001" stroke-linecap="square" stroke-linejoin="round" points="3.44113 5.1631 4.19243 5.141 5.56245 6.62151 5.56245 13.09059 4.93382 13.15219"></polyline>
                        <polyline id="path5882" stroke="#000000" stroke-width="0.30000001" stroke-linecap="square" stroke-linejoin="round" points="3.50742 5.11891 3.52952 3.52792 4.39131 2.42306"></polyline>
                        <path d="M2.07111,2.00322 L2.46886,1.03095 C2.9623,0.7386 3.56669,0.74213 4.23663,0.92046 C4.89929,2.43095 4.96342,4.02125 4.74486,5.64924" id="path5884" stroke="#000000" stroke-width="0.30000001" stroke-linecap="square" stroke-linejoin="round"></path>
                        <path d="M1.364,3.41743 C2.1756,3.08629 2.87221,3.13848 3.50742,3.39533" id="path5886" stroke="#000000" stroke-width="0.30000001" stroke-linecap="round" stroke-linejoin="round"></path>
                        <path d="M3.35569,13.13656 L4.91819,11.57406" id="path5888" fill="#FFFFFF"></path>
                        <path d="M3.35569,13.13656 L4.88694,11.44906" id="path5890" stroke="#000000" stroke-width="0.30000001" stroke-linecap="round" stroke-linejoin="round" fill="#FFFFFF"></path>
                        <path d="M1.94944,13.13656 L4.85569,9.44906" id="path5892" stroke="#000000" stroke-width="0.30000001" stroke-linecap="round" stroke-linejoin="round" fill="#FFFFFF"></path>
                        <path d="M4.88694,7.57406 L0.54319,13.10531" id="path5894" stroke="#000000" stroke-width="0.30000001" stroke-linecap="round" stroke-linejoin="round" fill="#FFFFFF"></path>
                        <path d="M4.44944,6.32406 L0.35569,11.57406" id="path5896" stroke="#000000" stroke-width="0.30000001" stroke-linecap="round" stroke-linejoin="round" fill="#FFFFFF"></path>
                        <path d="M3.66819,5.38656 L0.38694,9.69906" id="path5898" stroke="#000000" stroke-width="0.30000001" stroke-linecap="round" stroke-linejoin="round" fill="#FFFFFF"></path>
                        <path d="M2.32444,5.23031 L0.33225,7.785" id="path5900" stroke="#000000" stroke-width="0.30000001" stroke-linecap="round" stroke-linejoin="round" fill="#FFFFFF"></path>
                        <path d="M2.63694,13.07406 L0.32444,9.79281" id="path5902" stroke="#000000" stroke-width="0.30000001" stroke-linecap="round" stroke-linejoin="round" fill="#FFFFFF"></path>
                        <path d="M0.38694,11.60531 L1.35569,13.13656" id="path5904" stroke="#000000" stroke-width="0.30000001" stroke-linecap="round" stroke-linejoin="round" fill="#FFFFFF"></path>
                        <path d="M4.18493,13.087 L0.35569,8.07406" id="path5906" stroke="#000000" stroke-width="0.30000001" stroke-linecap="round" stroke-linejoin="round" fill="#FFFFFF"></path>
                        <path d="M4.85569,12.10531 L0.48069,6.54281" id="path5908" stroke="#000000" stroke-width="0.30000001" stroke-linecap="round" stroke-linejoin="round" fill="#FFFFFF"></path>
                        <path d="M4.91819,10.19906 L1.04319,5.63656" id="path5910" stroke="#000000" stroke-width="0.30000001" stroke-linecap="round" stroke-linejoin="round" fill="#FFFFFF"></path>
                        <path d="M4.94944,8.38656 L2.13694,5.19906" id="path5912" stroke="#000000" stroke-width="0.30000001" stroke-linecap="round" stroke-linejoin="round" fill="#FFFFFF"></path>
                    </g>
                </g>
                <g id="g9568" transform="translate(10.312810, 290.000000)" fill-rule="nonzero">
                    <path d="M5.56121,8.89569 L1.69285,8.89569 L1.54952,9.00288 L1.54952,12.44417 L2.62038,12.44417 L2.62038,11.1537 L2.7226,11.0621 L5.56134,11.0621 C6.2781,11.0621 6.61414,10.86925 6.61414,10.37444 L6.61414,9.58429 C6.614,9.08866 6.2781,8.89568 5.56121,8.89568 L5.56121,8.89569 Z M5.56121,10.16794 C5.56121,10.40106 5.40698,10.44949 5.07096,10.44949 L2.73432,10.44949 L2.62025,10.33857 L2.62025,9.6014 L2.72246,9.5079 L5.07096,9.5079 C5.40698,9.5079 5.56121,9.5558 5.56121,9.79 L5.56121,10.16797 L5.56121,10.16794 Z" id="path9570" fill="#005288"></path>
                    <polyline id="polyline9572" fill="#005288" points="3.32099946 16.7222945 4.24246538 18.0723524 4.1914261 18.2031233 2.15357939 18.2031233 1.63339257 18.8430455 4.66678113 18.8430455 4.87700778 18.9710576 5.3479486 19.6206359 6.5734431 19.6206359 3.88725958 16.0273326"></polyline>
                    <g id="g9574" transform="translate(1.587386, 31.788840)" fill="#005288">
                        <polyline id="polyline9576" points="1.16121259 2.86330361 1.16121259 1.90817935 1.27142985 1.81299799 3.32155358 1.81299799 3.32155358 1.2048029 0.072282656 1.2048029 0.072282656 3.56212791 4.86528488 3.56212791 4.86528488 2.95682964 1.27625789 2.95682964"></polyline>
                        <rect id="rect9578" x="0.072282656" y="0.012966736" width="4.84362753" height="0.668752512"></rect>
                    </g>
                    <path d="M2.7326,24.40219 L6.63476,24.40219 C6.57466,23.906 6.26673,23.76834 5.48568,23.76834 L2.69108,23.76834 C1.80975,23.76834 1.52862,23.94035 1.52862,24.60731 L1.52862,26.47852 C1.52862,27.14617 1.80975,27.31819 2.69108,27.31819 L5.48568,27.31819 C6.27817,27.31819 6.58165,27.16934 6.60234,26.65467 L2.7326,26.65467 L2.61783,26.54667 L2.61783,24.47447" id="path9580" fill="#005288"></path>
                    <path d="M5.51939,2.10176 L2.68064,2.10176 L2.59704,2.00976 L2.59704,1.40253 L2.68024,1.33823 L6.50709,1.33823 L6.55939,1.21036 C6.42903,0.87502 6.09148,0.71859 5.46467,0.71859 L2.80634,0.71859 C1.92558,0.71859 1.64403,0.8906 1.64403,1.55756 L1.64403,1.94988 C1.64403,2.61766 1.92558,2.7894 2.80634,2.7894 L5.63875,2.7894 L5.72775,2.8675 L5.72775,3.50232 L5.65525,3.60132 L2.41536,3.60132 L2.41536,3.59832 L1.56673,3.59832 C1.56673,3.59832 1.46963,3.64702 1.47333,3.66982 C1.54573,4.13634 1.86358,4.26849 2.62447,4.26849 L5.5195,4.26849 C6.40014,4.26849 6.69009,4.09648 6.69009,3.42883 L6.69009,2.94009 C6.69009,2.27355 6.40014,2.10181 5.5195,2.10181" id="path9582" fill="#005288"></path>
                    <path d="M2.7866,40.03015 L1.19321,40.03015 L1.10671,40.19471 L2.87625,41.48463 C3.21146,41.29054 3.57619,41.09383 3.97291,40.89974" id="path9584" fill="#005288"></path>
                    <path d="M4.21432,42.46003 L5.76964,43.5942 L7.38249,43.5942 L7.44929,43.44398 L5.12687,41.7441 C4.81842,41.97047 4.51371,42.20952 4.21437,42.46003" id="path9586" fill="#005288"></path>
                    <path d="M2.54948,43.59158 L1.10782,43.59158 L0.98602,43.40081 C1.96625,42.45437 6.44205,38.89738 12.26787,38.44486 C12.26787,38.44486 7.17172,39.0107 2.54948,43.59158" id="path9588" fill="#A7A9AC"></path>
                </g>
                <g id="g12454" transform="translate(7.331050, 126.000000)">
                    <g id="g12456" transform="translate(2.515490, 14.697460)" fill-rule="nonzero">
                        <rect id="rect12458" fill="#B22234" x="0" y="0" width="9.1988481" height="5.170464"></rect>
                        <path d="M0,0.596592 L9.1988481,0.596592 M9.1988481,1.392048 L0,1.392048 M0,2.187504 L9.1988481,2.187504 M9.1988481,2.98296 L0,2.98296 M0,3.778416 L9.1988481,3.778416 M9.1988481,4.573872 L0,4.573872" id="path12460" stroke="#FFFFFF" stroke-width="0.5" fill="#000000"></path>
                        <rect id="rect12462" fill="#3C3B6E" x="0" y="0" width="3.67953924" height="2.784096"></rect>
                        <g id="g12464" transform="translate(0.163866, 0.119318)" fill="#FFFFFF">
                            <g id="g12466">
                                <g id="g12468">
                                    <g id="g12470">
                                        <g id="g12472">
                                            <polygon id="path12474" points="0.14276215 0 0.230324048 0.287798685 0.00108402404 0.109929315 0.284440276 0.109929315 0.0552002515 0.287798685"></polygon>
                                            <g id="use12476" transform="translate(0.000000, 0.556819)">
                                                <polygon id="s" points="0.14276215 0 0.230324048 0.287798685 0.00108402404 0.109929315 0.284440276 0.109929315 0.0552002515 0.287798685"></polygon>
                                            </g>
                                            <g id="use12478" transform="translate(0.000000, 1.113638)">
                                                <polygon id="s" points="0.14276215 0 0.230324048 0.287798685 0.00108402404 0.109929315 0.284440276 0.109929315 0.0552002515 0.287798685"></polygon>
                                            </g>
                                            <g id="use12480" transform="translate(0.000000, 1.670458)">
                                                <polygon id="s" points="0.14276215 0 0.230324048 0.287798685 0.00108402404 0.109929315 0.284440276 0.109929315 0.0552002515 0.287798685"></polygon>
                                            </g>
                                        </g>
                                        <g id="use12482" transform="translate(0.000000, 2.227277)">
                                            <polygon id="s" points="0.14276215 0 0.230324048 0.287798685 0.00108402404 0.109929315 0.284440276 0.109929315 0.0552002515 0.287798685"></polygon>
                                        </g>
                                    </g>
                                    <g id="use12484" transform="translate(0.306628, 0.278410)">
                                        <g id="s4" transform="translate(-0.000000, 0.000000)">
                                            <polygon id="s" points="0.14276215 -7.5360731e-17 0.230324048 0.287798685 0.00108402404 0.109929315 0.284440276 0.109929315 0.0552002515 0.287798685"></polygon>
                                            <g id="use11040" transform="translate(0.000000, 0.556819)">
                                                <polygon id="s" points="0.14276215 0 0.230324048 0.287798685 0.00108402404 0.109929315 0.284440276 0.109929315 0.0552002515 0.287798685"></polygon>
                                            </g>
                                            <g id="use11042" transform="translate(0.000000, 1.113638)">
                                                <polygon id="s" points="0.14276215 0 0.230324048 0.287798685 0.00108402404 0.109929315 0.284440276 0.109929315 0.0552002515 0.287798685"></polygon>
                                            </g>
                                            <g id="use11044" transform="translate(0.000000, 1.670458)">
                                                <polygon id="s" points="0.14276215 0 0.230324048 0.287798685 0.00108402404 0.109929315 0.284440276 0.109929315 0.0552002515 0.287798685"></polygon>
                                            </g>
                                        </g>
                                    </g>
                                </g>
                                <g id="use12486" transform="translate(0.613257, 0.000000)">
                                    <g id="s9">
                                        <g id="s5" transform="translate(0.000000, 0.000000)">
                                            <g id="s4" transform="translate(0.000000, 0.000000)">
                                                <polygon id="s" points="0.14276215 0 0.230324048 0.287798685 0.00108402404 0.109929315 0.284440276 0.109929315 0.0552002515 0.287798685"></polygon>
                                                <g id="use11040" transform="translate(0.000000, 0.556819)">
                                                    <polygon id="s" points="0.14276215 0 0.230324048 0.287798685 0.00108402404 0.109929315 0.284440276 0.109929315 0.0552002515 0.287798685"></polygon>
                                                </g>
                                                <g id="use11042" transform="translate(0.000000, 1.113638)">
                                                    <polygon id="s" points="0.14276215 0 0.230324048 0.287798685 0.00108402404 0.109929315 0.284440276 0.109929315 0.0552002515 0.287798685"></polygon>
                                                </g>
                                                <g id="use11044" transform="translate(0.000000, 1.670458)">
                                                    <polygon id="s" points="0.14276215 0 0.230324048 0.287798685 0.00108402404 0.109929315 0.284440276 0.109929315 0.0552002515 0.287798685"></polygon>
                                                </g>
                                            </g>
                                            <g id="use11046" transform="translate(0.000000, 2.227277)">
                                                <polygon id="s" points="0.14276215 0 0.230324048 0.287798685 0.00108402404 0.109929315 0.284440276 0.109929315 0.0552002515 0.287798685"></polygon>
                                            </g>
                                        </g>
                                        <g id="use11048" transform="translate(0.306628, 0.278410)">
                                            <g id="s4" transform="translate(-0.000000, 0.000000)">
                                                <polygon id="s" points="0.14276215 -7.5360731e-17 0.230324048 0.287798685 0.00108402404 0.109929315 0.284440276 0.109929315 0.0552002515 0.287798685"></polygon>
                                                <g id="use11040" transform="translate(0.000000, 0.556819)">
                                                    <polygon id="s" points="0.14276215 0 0.230324048 0.287798685 0.00108402404 0.109929315 0.284440276 0.109929315 0.0552002515 0.287798685"></polygon>
                                                </g>
                                                <g id="use11042" transform="translate(0.000000, 1.113638)">
                                                    <polygon id="s" points="0.14276215 0 0.230324048 0.287798685 0.00108402404 0.109929315 0.284440276 0.109929315 0.0552002515 0.287798685"></polygon>
                                                </g>
                                                <g id="use11044" transform="translate(0.000000, 1.670458)">
                                                    <polygon id="s" points="0.14276215 0 0.230324048 0.287798685 0.00108402404 0.109929315 0.284440276 0.109929315 0.0552002515 0.287798685"></polygon>
                                                </g>
                                            </g>
                                        </g>
                                    </g>
                                </g>
                            </g>
                            <g id="use12488" transform="translate(1.226513, 0.000000)">
                                <g id="s18">
                                    <g id="s9">
                                        <g id="s5">
                                            <g id="s4">
                                                <polygon id="s" points="0.14276215 0 0.230324048 0.287798685 0.00108402404 0.109929315 0.284440276 0.109929315 0.0552002515 0.287798685"></polygon>
                                                <g id="use11040" transform="translate(0.000000, 0.556819)">
                                                    <polygon id="s" points="0.14276215 0 0.230324048 0.287798685 0.00108402404 0.109929315 0.284440276 0.109929315 0.0552002515 0.287798685"></polygon>
                                                </g>
                                                <g id="use11042" transform="translate(0.000000, 1.113638)">
                                                    <polygon id="s" points="0.14276215 0 0.230324048 0.287798685 0.00108402404 0.109929315 0.284440276 0.109929315 0.0552002515 0.287798685"></polygon>
                                                </g>
                                                <g id="use11044" transform="translate(0.000000, 1.670458)">
                                                    <polygon id="s" points="0.14276215 0 0.230324048 0.287798685 0.00108402404 0.109929315 0.284440276 0.109929315 0.0552002515 0.287798685"></polygon>
                                                </g>
                                            </g>
                                            <g id="use11046" transform="translate(0.000000, 2.227277)">
                                                <polygon id="s" points="0.14276215 0 0.230324048 0.287798685 0.00108402404 0.109929315 0.284440276 0.109929315 0.0552002515 0.287798685"></polygon>
                                            </g>
                                        </g>
                                        <g id="use11048" transform="translate(0.306628, 0.278410)">
                                            <g id="s4">
                                                <polygon id="s" points="0.14276215 -7.5360731e-17 0.230324048 0.287798685 0.00108402404 0.109929315 0.284440276 0.109929315 0.0552002515 0.287798685"></polygon>
                                                <g id="use11040" transform="translate(0.000000, 0.556819)">
                                                    <polygon id="s" points="0.14276215 0 0.230324048 0.287798685 0.00108402404 0.109929315 0.284440276 0.109929315 0.0552002515 0.287798685"></polygon>
                                                </g>
                                                <g id="use11042" transform="translate(0.000000, 1.113638)">
                                                    <polygon id="s" points="0.14276215 0 0.230324048 0.287798685 0.00108402404 0.109929315 0.284440276 0.109929315 0.0552002515 0.287798685"></polygon>
                                                </g>
                                                <g id="use11044" transform="translate(0.000000, 1.670458)">
                                                    <polygon id="s" points="0.14276215 0 0.230324048 0.287798685 0.00108402404 0.109929315 0.284440276 0.109929315 0.0552002515 0.287798685"></polygon>
                                                </g>
                                            </g>
                                        </g>
                                    </g>
                                    <g id="use11050" transform="translate(0.613257, 0.000000)">
                                        <g id="s9">
                                            <g id="s5" transform="translate(0.000000, 0.000000)">
                                                <g id="s4" transform="translate(0.000000, 0.000000)">
                                                    <polygon id="s" points="0.14276215 0 0.230324048 0.287798685 0.00108402404 0.109929315 0.284440276 0.109929315 0.0552002515 0.287798685"></polygon>
                                                    <g id="use11040" transform="translate(0.000000, 0.556819)">
                                                        <polygon id="s" points="0.14276215 0 0.230324048 0.287798685 0.00108402404 0.109929315 0.284440276 0.109929315 0.0552002515 0.287798685"></polygon>
                                                    </g>
                                                    <g id="use11042" transform="translate(0.000000, 1.113638)">
                                                        <polygon id="s" points="0.14276215 0 0.230324048 0.287798685 0.00108402404 0.109929315 0.284440276 0.109929315 0.0552002515 0.287798685"></polygon>
                                                    </g>
                                                    <g id="use11044" transform="translate(0.000000, 1.670458)">
                                                        <polygon id="s" points="0.14276215 0 0.230324048 0.287798685 0.00108402404 0.109929315 0.284440276 0.109929315 0.0552002515 0.287798685"></polygon>
                                                    </g>
                                                </g>
                                                <g id="use11046" transform="translate(0.000000, 2.227277)">
                                                    <polygon id="s" points="0.14276215 0 0.230324048 0.287798685 0.00108402404 0.109929315 0.284440276 0.109929315 0.0552002515 0.287798685"></polygon>
                                                </g>
                                            </g>
                                            <g id="use11048" transform="translate(0.306628, 0.278410)">
                                                <g id="s4" transform="translate(0.000000, 0.000000)">
                                                    <polygon id="s" points="0.14276215 -7.5360731e-17 0.230324048 0.287798685 0.00108402404 0.109929315 0.284440276 0.109929315 0.0552002515 0.287798685"></polygon>
                                                    <g id="use11040" transform="translate(0.000000, 0.556819)">
                                                        <polygon id="s" points="0.14276215 0 0.230324048 0.287798685 0.00108402404 0.109929315 0.284440276 0.109929315 0.0552002515 0.287798685"></polygon>
                                                    </g>
                                                    <g id="use11042" transform="translate(0.000000, 1.113638)">
                                                        <polygon id="s" points="0.14276215 0 0.230324048 0.287798685 0.00108402404 0.109929315 0.284440276 0.109929315 0.0552002515 0.287798685"></polygon>
                                                    </g>
                                                    <g id="use11044" transform="translate(0.000000, 1.670458)">
                                                        <polygon id="s" points="0.14276215 0 0.230324048 0.287798685 0.00108402404 0.109929315 0.284440276 0.109929315 0.0552002515 0.287798685"></polygon>
                                                    </g>
                                                </g>
                                            </g>
                                        </g>
                                    </g>
                                </g>
                            </g>
                            <g id="use12490" transform="translate(2.453026, 0.000000)">
                                <g id="s9">
                                    <g id="s5" transform="translate(-0.000000, 0.000000)">
                                        <g id="s4" transform="translate(-0.000000, 0.000000)">
                                            <polygon id="s" points="0.14276215 0 0.230324048 0.287798685 0.00108402404 0.109929315 0.284440276 0.109929315 0.0552002515 0.287798685"></polygon>
                                            <g id="use11040" transform="translate(-0.000000, 0.556819)">
                                                <polygon id="s" points="0.14276215 0 0.230324048 0.287798685 0.00108402404 0.109929315 0.284440276 0.109929315 0.0552002515 0.287798685"></polygon>
                                            </g>
                                            <g id="use11042" transform="translate(-0.000000, 1.113638)">
                                                <polygon id="s" points="0.14276215 0 0.230324048 0.287798685 0.00108402404 0.109929315 0.284440276 0.109929315 0.0552002515 0.287798685"></polygon>
                                            </g>
                                            <g id="use11044" transform="translate(-0.000000, 1.670458)">
                                                <polygon id="s" points="0.14276215 0 0.230324048 0.287798685 0.00108402404 0.109929315 0.284440276 0.109929315 0.0552002515 0.287798685"></polygon>
                                            </g>
                                        </g>
                                        <g id="use11046" transform="translate(-0.000000, 2.227277)">
                                            <polygon id="s" points="0.14276215 0 0.230324048 0.287798685 0.00108402404 0.109929315 0.284440276 0.109929315 0.0552002515 0.287798685"></polygon>
                                        </g>
                                    </g>
                                    <g id="use11048" transform="translate(0.306628, 0.278410)">
                                        <g id="s4" transform="translate(-0.000000, 0.000000)">
                                            <polygon id="s" points="0.14276215 -7.5360731e-17 0.230324048 0.287798685 0.00108402404 0.109929315 0.284440276 0.109929315 0.0552002515 0.287798685"></polygon>
                                            <g id="use11040" transform="translate(-0.000000, 0.556819)">
                                                <polygon id="s" points="0.14276215 0 0.230324048 0.287798685 0.00108402404 0.109929315 0.284440276 0.109929315 0.0552002515 0.287798685"></polygon>
                                            </g>
                                            <g id="use11042" transform="translate(-0.000000, 1.113638)">
                                                <polygon id="s" points="0.14276215 0 0.230324048 0.287798685 0.00108402404 0.109929315 0.284440276 0.109929315 0.0552002515 0.287798685"></polygon>
                                            </g>
                                            <g id="use11044" transform="translate(-0.000000, 1.670458)">
                                                <polygon id="s" points="0.14276215 0 0.230324048 0.287798685 0.00108402404 0.109929315 0.284440276 0.109929315 0.0552002515 0.287798685"></polygon>
                                            </g>
                                        </g>
                                    </g>
                                </g>
                            </g>
                            <g id="use12492" transform="translate(3.066283, 0.000000)">
                                <g id="s5">
                                    <g id="s4">
                                        <polygon id="s" points="0.14276215 0 0.230324048 0.287798685 0.00108402404 0.109929315 0.284440276 0.109929315 0.0552002515 0.287798685"></polygon>
                                        <g id="use11040" transform="translate(0.000000, 0.556819)">
                                            <polygon id="s" points="0.14276215 0 0.230324048 0.287798685 0.00108402404 0.109929315 0.284440276 0.109929315 0.0552002515 0.287798685"></polygon>
                                        </g>
                                        <g id="use11042" transform="translate(0.000000, 1.113638)">
                                            <polygon id="s" points="0.14276215 0 0.230324048 0.287798685 0.00108402404 0.109929315 0.284440276 0.109929315 0.0552002515 0.287798685"></polygon>
                                        </g>
                                        <g id="use11044" transform="translate(0.000000, 1.670458)">
                                            <polygon id="s" points="0.14276215 0 0.230324048 0.287798685 0.00108402404 0.109929315 0.284440276 0.109929315 0.0552002515 0.287798685"></polygon>
                                        </g>
                                    </g>
                                    <g id="use11046" transform="translate(0.000000, 2.227277)">
                                        <polygon id="s" points="0.14276215 0 0.230324048 0.287798685 0.00108402404 0.109929315 0.284440276 0.109929315 0.0552002515 0.287798685"></polygon>
                                    </g>
                                </g>
                            </g>
                        </g>
                    </g>
                    <g id="g12494" transform="translate(0.300754, 0.883000)">
                        <g id="g12496" transform="translate(0.465695, 0.700475)" fill="#A80126">
                            <path d="M3.69597852,5.37596631 C4.00356203,5.21132111 4.31301929,5.05081863 4.63731421,4.92334613 C0.966543964,2.99201286 0.760823115,1.54013819 0.00693587224,0.0124190477 C0.587462289,1.7816417 1.07240043,3.54812001 3.69597852,5.37596631 L3.69597852,5.37596631 Z" id="path12498"></path>
                            <path d="M1.78375079,2.47689492 C3.18226453,3.64642951 4.39616119,4.47969163 5.29178821,4.73325351 C6.17706955,4.26089861 9.10627161,4.00415442 9.04269186,4.67047902 C8.40153053,4.35449939 8.02057789,4.50435074 7.65747418,4.62119846 C7.84028949,4.61866315 8.32271179,4.56517685 8.46784755,4.61620169 C8.40884558,4.68754548 8.34472889,4.7181305 8.27857794,4.75819402 C8.51556004,4.80997394 8.73937615,4.87743278 8.92575903,4.98926207 C9.04653067,4.97774729 9.1254878,4.98071566 9.16239516,5.01816311 C9.03915473,5.05060617 8.89061193,5.2086851 8.81782402,5.31591621 C9.63185906,5.33909052 10.4986909,5.33097939 10.5898287,6.18942944 C10.8464587,5.42915102 10.3875924,5.03389471 9.49244415,4.86121741 C9.37512938,4.6008709 9.18604245,4.37873209 9.00252967,4.12704646 C6.55621765,3.99031926 4.11273698,3.82429808 1.78375079,2.47689492 L1.78375079,2.47689492 Z" id="path12500"></path>
                        </g>
                        <path d="M0.330037752,9.09364494 L0.330037752,7.61254654 L1.32149279,7.61254654 C1.28224552,7.66370219 1.24903628,7.71715564 1.16518296,7.75041519 L0.54440505,7.75041519 L0.54440505,8.14038052 L1.09818584,8.14038052 C1.06682156,8.18742694 1.03193509,8.23107696 0.973139646,8.25067544 L0.54440505,8.25067544 L0.54440505,8.7785178 C0.499371313,8.89868324 0.439510825,9.01031995 0.330037752,9.09364494 Z" id="path12502" fill="#000000"></path>
                        <path d="M3.00516753,7.76616442 L3.00516753,8.84941449 L3.28652356,8.84941449 L3.28652356,7.82920327 C2.90542242,7.48255251 2.52432966,7.48256928 2.14322851,7.82920327 L2.14322851,8.84941449 L2.39779073,8.84941449 L2.39779073,8.25067544 L2.59875692,8.25067544 C2.64555176,8.2264394 2.6780901,8.19750712 2.6970093,8.16402114 L2.40225217,8.16402114 L2.40225217,7.77010592 C2.62839365,7.61452568 2.80867955,7.61478565 3.00516753,7.76591284 L3.00516753,7.76616442 Z" id="path12504" fill="#000000"></path>
                        <path d="M5.94322054,8.88487122 L4.80048736,8.88487122 L4.80048736,7.63618716 L5.08631322,7.63618716 L5.08631322,8.78245091 L6.0911526,8.78245091 C6.04922174,8.82094344 6.02766928,8.87183072 5.94322054,8.88487122 Z" id="path12506" fill="#000000"></path>
                        <path d="M7.6506533,7.61296585 L7.6506533,7.85807685 C7.19192137,8.48042297 7.97397373,9.22727857 8.85381723,8.67975387 L8.92015184,8.66600055 C8.37461466,9.28191448 6.37609791,8.7819729 7.65070362,7.61300778 L7.6506533,7.61296585 Z" id="path12508" fill="#000000"></path>
                        <path d="M7.04686578,7.64510166 L7.04686578,8.09712465 C7.48557992,7.30639261 8.09390436,6.91292186 9.95670771,7.43760263 C8.16995854,6.73577239 7.50679693,7.10350598 7.04686578,7.64510166 Z" id="path12510" fill="#000000"></path>
                        <path d="M10.517293,7.51501538 C10.1440749,7.5208857 9.76993427,7.77004722 9.7720392,8.24225572 C9.77623228,9.18667273 11.2621024,9.23481774 11.2625469,8.24225572 C11.2627649,7.74597891 10.8905028,7.50900249 10.517293,7.51501538 L10.517293,7.51501538 Z M10.5139386,7.61329291 C10.7352664,7.61077706 10.9576089,7.81848574 10.9594539,8.24225572 C10.963647,9.08979569 10.0822688,9.07060813 10.0766165,8.24225572 C10.0732621,7.82807952 10.2926107,7.61569136 10.5139386,7.61329291 Z" id="path12512" fill="#000000"></path>
                        <path d="M12.6528029,7.76894863 L12.6528029,8.8942218 L12.4308042,8.8942218 L12.4308042,7.7132393 L12.6537589,7.60521703 L12.6520817,7.65637267 C12.9956715,7.64882512 13.2356837,7.80583939 13.2982865,7.89256079 L13.2982865,8.90537541 L13.0818897,8.90537541 L13.0818897,7.91057428 C13.002305,7.77813987 12.9133193,7.74488871 12.6524172,7.74194516 L12.6528029,7.76894863 Z" id="path12514" fill="#000000"></path>
                        <path d="M6.83196512,9.76389287 C4.53440591,9.77437558 5.12927893,11.6169096 6.399549,11.5803459 C6.99173006,11.5633219 7.1037693,11.5015158 7.50023391,11.0775027 C7.25243095,12.3195868 6.40890796,12.3200816 5.39386262,12.4189629 C5.26634251,12.5026569 5.2404544,12.5202343 5.15308727,12.654824 C6.87662148,12.6201052 8.32223799,12.3134314 8.27988783,10.9759545 C8.25028464,10.0402927 7.62401379,9.76053002 6.83196512,9.76389287 L6.83196512,9.76389287 Z M6.79758182,9.98664634 C6.99870091,9.98655039 7.1916218,10.049327 7.3338606,10.1611519 C7.47609941,10.2729768 7.5559914,10.4246794 7.55594325,10.5828528 C7.55489063,10.9116045 7.21559456,11.177616 6.79758182,11.1774155 C6.38021071,11.1769038 6.04191465,10.9111003 6.04086408,10.5828528 C6.04076352,10.2539634 6.37939591,9.9871601 6.79758182,9.98664634 L6.79758182,9.98664634 Z" id="path12516" fill="#000000"></path>
                    </g>
                </g>
            </g>
        </g>
    </g>
</svg>