<?xml version="1.0" encoding="UTF-8" standalone="no"?><!DOCTYPE svg PUBLIC "-//W3C//DTD SVG 1.1//EN" "http://www.w3.org/Graphics/SVG/1.1/DTD/svg11.dtd"><svg width="100%" height="100%" viewBox="0 0 21 283" version="1.1" xmlns="http://www.w3.org/2000/svg" xmlns:xlink="http://www.w3.org/1999/xlink" xml:space="preserve" xmlns:serif="http://www.serif.com/" style="fill-rule:evenodd;clip-rule:evenodd;"><rect id="Artboard1" x="0" y="0" width="20.864" height="282.218" style="fill:none;"/><clipPath id="_clip1"><rect x="0" y="0" width="20.864" height="282.218"/></clipPath><g clip-path="url(#_clip1)"><g><rect x="4.013" y="53.784" width="14.124" height="219.864" style="fill:#fff;fill-rule:nonzero;"/><g><rect x="4.175" y="53.913" width="6.989" height="219.622" style="fill:url(#_Linear2);fill-rule:nonzero;"/><rect x="11.076" y="53.811" width="6.886" height="219.622" style="fill:url(#_Linear3);fill-rule:nonzero;"/></g><rect x="18.161" y="273.948" width="0.364" height="0.359" style="fill:#f7f7f7;fill-rule:nonzero;"/><rect x="3.596" y="273.96" width="0.361" height="0.343" style="fill:#f7f7f7;fill-rule:nonzero;"/><path d="M4.667,277.32c-0.023,-0.042 -0.059,-0.147 -0.059,-0.173l0,-0.02l2.565,0l0.009,0.044c0.019,0.089 0.019,0.109 -0.001,0.144l-0.02,0.034l-1.237,0l-1.238,0l-0.018,-0.034l-0.001,0.005Z" style="fill:#f7f7f7;fill-rule:nonzero;"/><path d="M7.535,277.305c-0.022,-0.043 -0.06,-0.151 -0.06,-0.17c0,-0.007 0.55,-0.007 1.322,-0.007l1.322,0l-0.006,0.022c-0.012,0.053 -0.033,0.112 -0.054,0.154l-0.022,0.044l-1.239,0l-1.239,0l-0.024,-0.048l0,0.005Z" style="fill:#f7f7f7;fill-rule:nonzero;"/><path d="M10.342,277.405c0,0 0.009,-0.029 0.02,-0.057c0.018,-0.044 0.038,-0.119 0.052,-0.193l0.005,-0.028l0.663,0c0.625,0 0.664,0 0.668,0.015c0.002,0.008 0.007,0.032 0.01,0.052c0.003,0.02 0.018,0.077 0.034,0.124c0.016,0.048 0.028,0.089 0.028,0.09c0,0 -0.333,0 -0.74,0c-0.407,0 -0.739,0 -0.739,-0.007l-0.001,0.004Z" style="fill:#f7f7f7;fill-rule:nonzero;"/><path d="M12.107,277.305c-0.021,-0.043 -0.059,-0.151 -0.059,-0.17c0,-0.007 0.549,-0.007 1.321,-0.007c0.984,0 1.32,0 1.32,0.009c0,0.022 -0.034,0.123 -0.056,0.166l-0.024,0.047l-1.238,0l-1.239,0l-0.025,-0.049l0,0.004Z" style="fill:#f7f7f7;fill-rule:nonzero;"/><path d="M14.99,277.326c-0.025,-0.041 -0.027,-0.057 -0.013,-0.126c0.008,-0.035 0.013,-0.066 0.013,-0.068c0,0 0.58,-0.007 1.288,-0.007l1.287,0l-0.005,0.022c-0.011,0.046 -0.038,0.123 -0.058,0.163l-0.021,0.04l-1.237,0l-1.237,0l-0.017,-0.028l0,0.004Z" style="fill:#f7f7f7;fill-rule:nonzero;"/><path d="M4.037,273.623l14.049,0.023l0.007,2.477l-0.528,1.325l-12.989,-0.04l-0.528,-1.326l-0.011,-2.459Z" style="fill:#101010;fill-rule:nonzero;"/><path d="M4.029,273.662l14.108,0" style="fill:none;stroke:#000;stroke-width:0.3px;"/><path d="M4.702,264.396l0.035,-0.107l0.06,-0.117l0.082,-0.122l0.103,-0.122l0.121,-0.115l0.136,-0.103l0.151,-0.086l0.161,-0.063l0.171,-0.034l0.177,0l0.182,0.039l0.183,0.085l0.306,0.799l0.96,2.647l0.32,0.882l0.32,0.883l0.96,2.647l0.32,0.882l0.64,1.765l0.08,0.214l0.016,0.027l0.016,0.025l0.018,0.022l0.019,0.022l0.02,0.019l0.021,0.018l0.022,0.016l0.022,0.015l0.023,0.013l0.024,0.011l0.024,0.01l0.024,0.008l0.05,0.015l0.072,0l0.024,0l0.132,0l0.04,-0.018l0.039,-0.038l0.039,-0.056l0.037,-0.071l0.035,-0.085l0.033,-0.097l0.031,-0.106l0.029,-0.114l0.025,-0.119l0.022,-0.123l0.018,-0.124l-0.146,-1.379l-0.34,-2.887l-0.339,-2.887l-0.34,-2.887l-0.339,-2.887l-0.34,-2.886l-0.339,-2.887l-0.34,-2.887l-0.339,-2.887l-0.34,-2.887l-0.339,-2.887l-0.34,-2.886l-0.223,-1.955l-0.001,-0.19l-0.002,-0.19l-0.001,-0.19l-0.002,-0.189l-0.001,-0.19l-0.002,-0.19l-0.001,-0.19l-0.002,-0.189l-0.001,-0.19l-0.002,-0.19l-0.001,-0.19l-0.008,-0.237l-0.027,-0.369l-0.027,-0.335l-0.029,-0.302l-0.029,-0.272l-0.029,-0.245l-0.031,-0.22l-0.031,-0.197l-0.031,-0.176l-0.032,-0.158l-0.033,-0.143l-0.033,-0.129l-0.034,-0.118l-0.034,-0.109l-0.035,-0.101l-0.036,-0.092l-0.035,-0.085l-0.037,-0.076l-0.037,-0.07l-0.037,-0.063l-0.038,-0.057l-0.039,-0.05l-0.039,-0.045l-0.04,-0.039l-0.04,-0.034l-0.041,-0.029l-0.041,-0.025l-0.042,-0.019l-0.043,-0.016l-0.043,-0.01l-0.043,-0.006l-0.044,-0.002l-0.045,0.003l-0.045,0.008l-0.045,0.012l-0.046,0.017l-0.047,0.021l-0.047,0.026l-0.047,0.03l-0.048,0.035l-0.048,0.041l-0.05,0.045l-0.049,0.052l-0.051,0.057l-0.051,0.063l-0.053,0.069l-0.053,0.076l-0.054,0.083l-0.054,0.09l-0.056,0.097l-0.057,0.103l-0.057,0.109l-0.058,0.115l-0.058,0.119l-0.057,0.123l-0.057,0.126l-0.056,0.128l-0.055,0.13l-0.053,0.13l-0.052,0.131l-0.05,0.13l-0.048,0.128l-0.046,0.128l-0.043,0.126l-0.041,0.126l-0.038,0.125l-0.035,0.126l-0.032,0.126l-0.03,0.127l-0.026,0.128l-0.022,0.129" style="fill:#f2f2f2;fill-rule:nonzero;stroke:#000;stroke-width:0.3px;"/><path d="M4.702,264.396l-0.028,0.163l-0.028,0.166l-0.028,0.169l-0.027,0.173l-0.027,0.175l-0.027,0.178l-0.027,0.18l-0.026,0.184l-0.026,0.185l-0.026,0.189l-0.026,0.19l-0.025,0.193l-0.025,0.194l-0.025,0.197l-0.025,0.198l-0.025,0.201l-0.024,0.201l-0.024,0.204l-0.024,0.204l-0.024,0.207l-0.024,0.207l-0.023,0.208l-0.047,0.419l-0.046,0.423l-0.046,0.424l-0.09,0.852l-0.045,0.426l-0.045,0.424l-0.044,0.422l-0.044,0.42l-0.022,0.208l-0.023,0.207l-0.022,0.206l-0.022,0.204l-0.022,0.203l-0.022,0.202l-0.023,0.199l-0.022,0.199l-0.022,0.196l-0.023,0.194l-0.011,0.097l-0.003,0.024l-0.002,0.012l0,0.008l-0.001,0l0,0l-0.006,0.012l-0.006,0.011l-0.006,0.009l-0.006,0.008l-0.006,0.007l-0.006,0.008l-0.006,0l-0.006,0l-0.012,0l-0.013,0l-0.012,0l-0.025,-0.012l-0.05,-0.028l-0.047,-0.029l-0.046,-0.029l-0.045,-0.029l-0.043,-0.029l-0.042,-0.03l-0.041,-0.03l-0.039,-0.03l-0.038,-0.03l-0.036,-0.031l-0.035,-0.031l-0.034,-0.032l-0.033,-0.032l-0.032,-0.032l-0.03,-0.032l-0.03,-0.032l-0.028,-0.033l-0.053,-0.065l-0.049,-0.067l-0.046,-0.067l-0.041,-0.068l-0.038,-0.069l-0.035,-0.069l-0.032,-0.07l-0.029,-0.069l-0.026,-0.071l-0.024,-0.07l-0.022,-0.071l-0.02,-0.071l-0.018,-0.071l-0.017,-0.071l-0.015,-0.07l-0.015,-0.071l-0.006,-0.035l-0.003,-0.018l-0.002,-0.009l0,0l0,0l0,0l0,-0.008l0.001,-0.042l0.003,-0.086l0.183,-5.457l0.364,-10.915l0.365,-10.915l0.182,-5.458l0.045,-1.364l0.012,-0.341l0,-0.021l0,-0.003l0.001,-0.002l0,0l0,0l0,-0.001l0,-0.002l0.001,-0.005l0.001,-0.009l0.005,-0.035l0.011,-0.071l0.011,-0.069l0.011,-0.066l0.011,-0.066l0.011,-0.064l0.011,-0.062l0.012,-0.061l0.011,-0.06l0.011,-0.059l0.011,-0.057l0.024,-0.113l0.023,-0.109l0.025,-0.106l0.025,-0.105l0.026,-0.103l0.027,-0.103l0.028,-0.103l0.029,-0.104l0.03,-0.105l0.033,-0.106l0.034,-0.108l0.037,-0.111l0.041,-0.113l0.021,-0.057l0.022,-0.059l0.023,-0.058l0.024,-0.06l0.025,-0.061l0.026,-0.061l0.027,-0.062l0.028,-0.064l0.03,-0.064l0.03,-0.065l0.032,-0.066l0.034,-0.068l0.034,-0.068l0.036,-0.07" style="fill:#f2f2f2;fill-rule:nonzero;stroke:#000;stroke-width:0.3px;stroke-linecap:round;"/><path d="M17.463,264.396l-0.034,-0.107l-0.06,-0.117l-0.082,-0.122l-0.103,-0.122l-0.121,-0.115l-0.137,-0.103l-0.15,-0.086l-0.162,-0.063l-0.17,-0.034l-0.177,0l-0.182,0.039l-0.184,0.085l-0.305,0.799l-0.32,0.882l-0.32,0.882l-0.32,0.883l-0.32,0.882l-0.32,0.883l-0.32,0.882l-0.32,0.882l-0.32,0.883l-0.32,0.882l-0.32,0.882l-0.32,0.883l-0.081,0.214l-0.015,0.027l-0.017,0.025l-0.018,0.022l-0.019,0.022l-0.02,0.019l-0.02,0.018l-0.022,0.016l-0.023,0.015l-0.023,0.013l-0.023,0.011l-0.024,0.01l-0.025,0.008l-0.024,0.008l-0.025,0.007l-0.025,0l-0.024,0l-0.024,0l-0.023,0l-0.023,0l-0.022,0l-0.02,0l-0.02,0l-0.018,0l-0.03,0l-0.04,-0.018l-0.039,-0.038l-0.038,-0.056l-0.037,-0.071l-0.036,-0.085l-0.033,-0.097l-0.031,-0.106l-0.028,-0.114l-0.026,-0.119l-0.021,-0.123l-0.019,-0.124l0.147,-1.379l0.339,-2.887l0.34,-2.887l0.339,-2.887l0.34,-2.887l0.339,-2.886l0.34,-2.887l0.339,-2.887l0.34,-2.887l0.339,-2.887l0.34,-2.887l0.339,-2.886l0.223,-1.955l0.002,-0.19l0.001,-0.19l0.002,-0.19l0.001,-0.189l0.002,-0.19l0.001,-0.19l0.002,-0.19l0.001,-0.189l0.002,-0.19l0.001,-0.19l0.002,-0.19l0.007,-0.237l0.027,-0.369l0.028,-0.335l0.028,-0.302l0.029,-0.272l0.03,-0.245l0.03,-0.22l0.031,-0.197l0.031,-0.176l0.033,-0.158l0.032,-0.143l0.034,-0.129l0.034,-0.118l0.034,-0.109l0.035,-0.101l0.035,-0.092l0.036,-0.085l0.036,-0.076l0.037,-0.07l0.038,-0.063l0.038,-0.057l0.038,-0.05l0.039,-0.045l0.04,-0.039l0.04,-0.034l0.041,-0.029l0.042,-0.025l0.042,-0.019l0.042,-0.016l0.043,-0.01l0.043,-0.006l0.045,-0.002l0.044,0.003l0.045,0.008l0.045,0.012l0.047,0.017l0.046,0.021l0.047,0.026l0.047,0.03l0.048,0.035l0.049,0.041l0.049,0.045l0.05,0.052l0.05,0.057l0.052,0.063l0.052,0.069l0.053,0.076l0.054,0.083l0.055,0.09l0.056,0.097l0.056,0.103l0.058,0.109l0.057,0.115l0.058,0.119l0.057,0.123l0.057,0.126l0.056,0.128l0.055,0.13l0.053,0.13l0.052,0.131l0.05,0.13l0.048,0.128l0.046,0.128l0.043,0.126l0.041,0.126l0.038,0.125l0.035,0.126l0.033,0.126l0.029,0.127l0.026,0.128l0.023,0.129" style="fill:#f2f2f2;fill-rule:nonzero;stroke:#000;stroke-width:0.3px;"/><path d="M17.463,264.396l0.029,0.163l0.028,0.166l0.027,0.169l0.028,0.173l0.027,0.175l0.027,0.178l0.026,0.18l0.027,0.184l0.026,0.185l0.026,0.189l0.025,0.19l0.026,0.193l0.025,0.194l0.025,0.197l0.025,0.198l0.024,0.201l0.025,0.201l0.024,0.204l0.024,0.204l0.024,0.207l0.023,0.207l0.024,0.208l0.047,0.419l0.046,0.423l0.045,0.424l0.091,0.852l0.044,0.426l0.045,0.424l0.044,0.422l0.045,0.42l0.022,0.208l0.022,0.207l0.022,0.206l0.022,0.204l0.023,0.203l0.022,0.202l0.022,0.199l0.022,0.199l0.023,0.196l0.022,0.194l0.012,0.097l0.004,0.036l0.001,0.008l0.001,0l0.005,0.012l0.006,0.011l0.006,0.009l0.018,0.023l0.05,0l0.025,-0.012l0.049,-0.028l0.048,-0.029l0.046,-0.029l0.045,-0.029l0.043,-0.029l0.042,-0.03l0.04,-0.03l0.039,-0.03l0.038,-0.03l0.037,-0.031l0.035,-0.031l0.034,-0.032l0.033,-0.032l0.031,-0.032l0.031,-0.032l0.029,-0.032l0.028,-0.033l0.054,-0.065l0.049,-0.067l0.045,-0.067l0.042,-0.068l0.038,-0.069l0.035,-0.069l0.032,-0.07l0.028,-0.069l0.027,-0.071l0.024,-0.07l0.022,-0.071l0.02,-0.071l0.018,-0.071l0.016,-0.071l0.016,-0.07l0.014,-0.071l0.007,-0.035l0.003,-0.018l0.001,-0.009l0.001,0l0,0l0,0l0,-0.008l-0.002,-0.042l-0.003,-0.086l-0.182,-5.457l-0.365,-10.915l-0.364,-10.915l-0.182,-5.458l-0.046,-1.364l-0.011,-0.341l-0.001,-0.021l0,-0.003l0,-0.002l0,0l0,0l0,-0.001l-0.001,-0.002l0,-0.005l-0.002,-0.009l-0.005,-0.035l-0.011,-0.071l-0.011,-0.069l-0.011,-0.066l-0.011,-0.066l-0.011,-0.064l-0.011,-0.062l-0.011,-0.061l-0.011,-0.06l-0.012,-0.059l-0.011,-0.057l-0.023,-0.113l-0.024,-0.109l-0.024,-0.106l-0.025,-0.105l-0.026,-0.103l-0.027,-0.103l-0.028,-0.103l-0.029,-0.104l-0.031,-0.105l-0.032,-0.106l-0.035,-0.108l-0.037,-0.111l-0.04,-0.113l-0.021,-0.057l-0.022,-0.059l-0.023,-0.058l-0.024,-0.06l-0.025,-0.061l-0.026,-0.061l-0.028,-0.062l-0.028,-0.064l-0.029,-0.064l-0.031,-0.065l-0.032,-0.066l-0.033,-0.068l-0.035,-0.068l-0.036,-0.07" style="fill:#f2f2f2;fill-rule:nonzero;stroke:#000;stroke-width:0.3px;stroke-linecap:round;"/><g><path d="M7.274,279.453c-0.145,-0.361 -0.337,-0.78 -0.528,-1.155l-0.075,-0.146l0.031,-0.058c0.054,-0.1 0.177,-0.317 0.252,-0.442l0.026,-0.044l0.15,0c0.082,0 0.248,0 0.367,0l0.218,0l0.028,0.048c0.064,0.107 0.229,0.396 0.268,0.47l0.014,0.026l-0.039,0.075c-0.209,0.401 -0.418,0.856 -0.586,1.276l-0.028,0.07l-0.025,0l-0.024,0l-0.048,-0.12l-0.001,0Z" style="fill:#333;fill-rule:nonzero;"/><path d="M14.694,279.339c-0.145,-0.361 -0.337,-0.78 -0.529,-1.155l-0.074,-0.146l0.031,-0.058c0.053,-0.1 0.177,-0.317 0.252,-0.442l0.026,-0.044l0.15,0c0.082,0 0.247,0 0.367,0l0.217,0l0.029,0.048c0.064,0.107 0.229,0.396 0.268,0.47l0.013,0.026l-0.038,0.075c-0.209,0.401 -0.418,0.856 -0.586,1.275l-0.028,0.071l-0.025,0l-0.024,0l-0.049,-0.12l0,0Z" style="fill:#333;fill-rule:nonzero;"/></g><path d="M10.247,278.929c0.06,-0.118 0.172,-0.328 0.25,-0.467l0.14,-0.252l-0.165,-0.293l-0.166,-0.293l-0.284,0c-0.243,0 -0.285,-0.009 -0.285,-0.031c0,-0.025 -0.023,-0.03 -0.123,-0.025c-0.116,0.008 -0.125,0.01 -0.163,0.076l-0.041,0.071l0.213,0.409c0.117,0.225 0.275,0.546 0.351,0.714c0.075,0.167 0.143,0.304 0.15,0.305c0.007,0 0.062,-0.096 0.123,-0.215l0,0.001Z" style="fill:#333;fill-rule:nonzero;"/><path d="M11.963,278.914c-0.06,-0.118 -0.173,-0.328 -0.25,-0.467l-0.141,-0.252l0.166,-0.293l0.165,-0.293l0.285,0c0.242,0 0.284,-0.009 0.284,-0.031c0,-0.025 0.024,-0.03 0.123,-0.025c0.117,0.008 0.125,0.01 0.164,0.076l0.04,0.071l-0.213,0.409c-0.117,0.225 -0.275,0.546 -0.35,0.714c-0.076,0.167 -0.144,0.304 -0.151,0.305c-0.007,0 -0.062,-0.096 -0.122,-0.215l0,0.001Z" style="fill:#333;fill-rule:nonzero;"/><path d="M9.307,282.139c0,-0.009 0.062,-0.288 0.071,-0.318c0.131,-1.702 0.267,-1.349 0.805,-2.382c0,-0.052 0.366,-0.792 0.569,-1.151l0.104,-0.183l0,-0.237l0,-0.237l0.508,0l0,0.481l0.109,0.192c0.114,0.201 0.428,0.819 0.501,0.985l0.042,0.097c0.668,1.817 0.166,0.222 0.853,2.568c0.017,0.079 0.031,0.155 0.031,0.169c0,0.025 -0.003,0.025 -1.797,0.025c-0.988,0 -1.797,0 -1.797,-0.009l0.001,0Z" style="fill:#333;fill-rule:nonzero;"/><g><path d="M4.029,88.799l14.108,0" style="fill:none;stroke:#000;stroke-width:0.3px;"/><path d="M13.754,277.5l-0.77,0" style="fill:none;stroke:#000;stroke-width:0.3px;"/><path d="M5.502,281.523l3.716,0" style="fill:none;stroke:#000;stroke-width:0.3px;"/><path d="M6.975,277.5l0.77,0" style="fill:none;stroke:#000;stroke-width:0.3px;"/><path d="M8.078,278.126c-0.105,-0.212 -0.216,-0.42 -0.333,-0.626" style="fill:none;stroke:#000;stroke-width:0.3px;"/><path d="M6.975,277.5c-0.117,0.206 -0.228,0.414 -0.334,0.626" style="fill:none;stroke:#000;stroke-width:0.3px;"/><path d="M9.533,277.5l0.579,0" style="fill:none;stroke:#000;stroke-width:0.3px;"/><path d="M10.675,278.202c-0.107,-0.217 -0.22,-0.432 -0.338,-0.643" style="fill:none;stroke:#000;stroke-width:0.3px;"/><path d="M9.533,277.5c-0.06,0.106 -0.118,0.213 -0.176,0.32" style="fill:none;stroke:#000;stroke-width:0.3px;"/><path d="M16.664,281.523l-3.716,0" style="fill:none;stroke:#000;stroke-width:0.3px;"/><path d="M15.191,277.5l-0.77,0" style="fill:none;stroke:#000;stroke-width:0.3px;"/><path d="M14.421,277.5c-0.117,0.206 -0.228,0.414 -0.333,0.626" style="fill:none;stroke:#000;stroke-width:0.3px;"/><path d="M15.524,278.126c-0.105,-0.212 -0.216,-0.42 -0.333,-0.626" style="fill:none;stroke:#000;stroke-width:0.3px;"/><path d="M12.632,277.5l-0.578,0" style="fill:none;stroke:#000;stroke-width:0.3px;"/><path d="M10.112,277.5c0.114,-0.148 0.172,-0.331 0.163,-0.518" style="fill:none;stroke:#000;stroke-width:0.3px;"/><path d="M7.481,277.5l2.631,0" style="fill:none;stroke:#000;stroke-width:0.3px;"/><path d="M11.89,276.982c-0.008,0.187 0.05,0.37 0.164,0.518" style="fill:none;stroke:#000;stroke-width:0.3px;"/><path d="M14.685,277.5c0.114,-0.148 0.172,-0.331 0.163,-0.518" style="fill:none;stroke:#000;stroke-width:0.3px;"/><path d="M10.337,277.559l1.492,0" style="fill:none;stroke:#000;stroke-width:0.3px;"/><path d="M9.726,277.5c0.013,0.02 0.027,0.04 0.041,0.059" style="fill:none;stroke:#000;stroke-width:0.3px;"/><path d="M12.398,277.559c0.015,-0.019 0.029,-0.039 0.041,-0.059" style="fill:none;stroke:#000;stroke-width:0.3px;"/><path d="M9.767,277.559l2.631,0" style="fill:none;stroke:#000;stroke-width:0.3px;"/><path d="M11.866,277.559c-0.118,0.211 -0.231,0.426 -0.338,0.643" style="fill:none;stroke:#000;stroke-width:0.3px;"/><path d="M11.866,277.559c-0.118,0.211 -0.231,0.426 -0.338,0.643" style="fill:none;stroke:#000;stroke-width:0.3px;"/><path d="M12.827,277.785c-0.051,-0.096 -0.104,-0.191 -0.157,-0.285" style="fill:none;stroke:#000;stroke-width:0.3px;"/><path d="M18.137,53.621l0,182.247" style="fill:none;stroke:#000;stroke-width:0.3px;"/><path d="M9.378,281.523c-0.05,0.208 -0.095,0.417 -0.134,0.628l3.716,0c-0.04,-0.211 -0.085,-0.42 -0.134,-0.628" style="fill:none;stroke:#000;stroke-width:0.3px;"/><path d="M10.074,279.421c0.19,-0.442 0.405,-0.874 0.643,-1.293l0,-0.569" style="fill:none;stroke:#000;stroke-width:0.3px;"/><path d="M11.487,277.559l0,0.569c0.229,0.404 0.437,0.82 0.622,1.246" style="fill:none;stroke:#000;stroke-width:0.3px;"/><path d="M7.36,279.877c-0.27,-0.825 -0.623,-1.622 -1.052,-2.377l-0.77,0c-0.71,1.25 -1.208,2.609 -1.473,4.023l3.716,0" style="fill:#333;fill-rule:nonzero;stroke:#000;stroke-width:0.3px;"/><path d="M14.806,277.276c0.028,0.081 0.069,0.156 0.121,0.224l2.631,0c0.114,-0.148 0.172,-0.331 0.163,-0.518" style="fill:none;stroke:#000;stroke-width:0.3px;"/><path d="M14.384,281.523l3.716,0c-0.265,-1.414 -0.762,-2.773 -1.473,-4.023l-0.77,0c-0.429,0.755 -0.781,1.552 -1.051,2.377" style="fill:#333;fill-rule:nonzero;stroke:#000;stroke-width:0.3px;"/><path d="M8.411,277.5c-0.71,1.25 -1.208,2.609 -1.473,4.023l3.716,0c-0.265,-1.414 -0.762,-2.773 -1.473,-4.023l-0.77,0Z" style="fill:#333;fill-rule:nonzero;stroke:#000;stroke-width:0.3px;"/></g><g><g><path d="M1.418,47.157c-0.049,-0.754 -0.066,-7.451 -0.038,-14.881c0.056,-14.681 0.047,-14.496 0.851,-18.25c0.917,-4.285 2.667,-7.653 5.626,-10.827c1.17,-1.255 2.108,-1.882 2.82,-1.885l0.301,-0.002l0,47.215l-4.735,0l-4.736,0l-0.089,-1.371l0,0.001Z" style="fill:url(#_Linear4);fill-rule:nonzero;"/><path d="M4.059,53.443c-0.071,-0.092 -0.569,-0.98 -1.105,-1.973c-0.536,-0.993 -1.092,-2.001 -1.234,-2.24l-0.26,-0.435l9.518,0l0,4.815l-3.394,0c-2.557,0 -3.427,-0.041 -3.525,-0.167Z" style="fill:url(#_Linear5);fill-rule:nonzero;"/></g><g><path d="M20.785,47.157c0.049,-0.754 0.066,-7.451 0.038,-14.881c-0.056,-14.681 -0.047,-14.496 -0.851,-18.25c-0.917,-4.285 -2.667,-7.653 -5.625,-10.827c-1.171,-1.255 -2.109,-1.882 -2.821,-1.885l-0.301,-0.002l0,47.215l4.736,0l4.735,0l0.089,-1.371l0,0.001Z" style="fill:url(#_Linear6);fill-rule:nonzero;"/><path d="M18.144,53.443c0.071,-0.092 0.569,-0.98 1.105,-1.973c0.536,-0.993 1.092,-2.001 1.234,-2.24l0.26,-0.435l-9.518,0l0,4.815l3.394,0c2.557,0 3.427,-0.041 3.525,-0.167Z" style="fill:url(#_Linear7);fill-rule:nonzero;"/></g></g><path d="M4.029,53.698l14.108,0" style="fill:none;stroke:#000;stroke-width:0.3px;"/><path d="M1.275,48.647l19.616,0" style="fill:none;stroke:#000;stroke-width:0.3px;"/><path d="M4.029,53.698l-0.295,-0.54l-0.294,-0.54l-0.295,-0.54l-0.294,-0.54l-0.295,-0.541l-0.294,-0.54l-0.295,-0.54l-0.294,-0.54l-0.295,-0.54l-0.103,-2.167l0,-3.05l0,-3.049l0,-3.05l0,-3.049l0,-3.05l0,-3.049l0,-3.05l0,-3.049l0.011,-2.264l0.038,-0.4l0.038,-0.401l0.039,-0.401l0.041,-0.401l0.042,-0.401l0.045,-0.401l0.048,-0.401l0.051,-0.401l0.055,-0.401l0.059,-0.401l0.063,-0.402l0.067,-0.401l0.073,-0.4l0.077,-0.4l0.082,-0.398l0.088,-0.397l0.093,-0.396l0.098,-0.394l0.104,-0.392l0.11,-0.39l0.116,-0.388l0.123,-0.385l0.128,-0.381l0.135,-0.379l0.142,-0.375l0.149,-0.372l0.156,-0.368l0.163,-0.364l0.171,-0.359l0.177,-0.356l0.185,-0.352l0.191,-0.349l0.199,-0.345l0.205,-0.342l0.212,-0.339l0.219,-0.336l0.226,-0.334l0.232,-0.33l0.239,-0.328l0.245,-0.326l0.252,-0.324l0.258,-0.321l0.265,-0.32l0.27,-0.318l0.277,-0.317l0.283,-0.315l0.29,-0.309l0.299,-0.298l0.309,-0.28l0.322,-0.254l0.335,-0.223l0.351,-0.184l0.369,-0.14l0.387,-0.089l0.409,-0.05l0.427,0l0.41,0.049l0.387,0.089l0.369,0.139l0.351,0.184l0.335,0.223l0.322,0.254l0.309,0.279l0.299,0.298l0.29,0.309l0.283,0.315l0.277,0.317l0.271,0.318l0.264,0.32l0.258,0.321l0.252,0.324l0.245,0.326l0.238,0.328l0.233,0.33l0.225,0.334l0.219,0.336l0.212,0.338l0.206,0.342l0.198,0.346l0.192,0.348l0.185,0.352l0.178,0.356l0.171,0.36l0.164,0.364l0.156,0.367l0.15,0.372l0.143,0.375l0.136,0.379l0.13,0.381l0.123,0.385l0.117,0.387l0.111,0.39l0.104,0.392l0.099,0.394l0.093,0.396l0.088,0.397l0.081,0.399l0.077,0.399l0.071,0.401l0.067,0.401l0.061,0.401l0.057,0.402l0.051,0.402l0.048,0.401l0.045,0.401l0.041,0.402l0.038,0.401l0.037,0.401l0.034,0.402l0.034,0.401l0.033,0.401l0.01,2.264l0,24.396l-0.104,2.167l-0.294,0.54l-0.295,0.54l-0.294,0.54l-0.295,0.54l-0.294,0.541l-0.295,0.54l-0.294,0.54l-0.295,0.54l-0.294,0.54" style="fill:none;stroke:#000;stroke-width:0.3px;"/><path d="M11.083,53.698l0,-52.517" style="fill:none;stroke:#000;stroke-width:0.3px;"/><path d="M6.927,236.307l-0.934,-0.989" style="fill:none;stroke:#000;stroke-width:0.3px;"/><path d="M5.993,235.318l-1.703,0" style="fill:none;stroke:#000;stroke-width:0.3px;"/><path d="M4.087,258.293l0.132,-18.25" style="fill:none;stroke:#000;stroke-width:0.3px;"/><path d="M4.219,240.043l1.634,-2.213" style="fill:none;stroke:#000;stroke-width:0.3px;"/><path d="M4.219,240.043l-0.781,-2.023" style="fill:none;stroke:#000;stroke-width:0.3px;"/><path d="M5.853,237.83l0.14,-2.512" style="fill:none;stroke:#000;stroke-width:0.3px;stroke-linecap:round;"/><path d="M4.029,235.868l0,-182.247" style="fill:none;stroke:#000;stroke-width:0.3px;"/><path d="M3.564,273.902l0.465,0" style="fill:none;stroke:#000;stroke-width:0.3px;"/><path d="M3.507,274.398l0.522,0" style="fill:none;stroke:#000;stroke-width:0.3px;"/><path d="M18.137,269.553l0,6.288c-0.019,0.406 -0.147,0.801 -0.37,1.141l-6.684,0l-6.684,0c-0.224,-0.34 -0.352,-0.735 -0.37,-1.141l0,-6.288" style="fill:none;stroke:#000;stroke-width:0.3px;"/><path d="M10.851,274.398l0.463,0" style="fill:none;stroke:#000;stroke-width:0.3px;"/><path d="M11,273.902l0.166,0" style="fill:none;stroke:#000;stroke-width:0.3px;"/><path d="M2.567,273.829l0.089,-1.137l0.09,-1.136l0.089,-1.136l0.09,-1.136l0.09,-1.137l0.089,-1.136l0.09,-1.136l0.089,-1.137l0.09,-1.136l0.09,-1.136l0.089,-1.136l0.09,-1.137l0.089,-1.136l0.038,-0.361l0.025,-0.09l0.03,-0.077l0.034,-0.065l0.037,-0.054l0.041,-0.043l0.044,-0.033l0.046,-0.023l0.047,-0.015l0.049,-0.007l0.05,0l0.049,0.007l0.05,0.014l0.049,0.019l0.047,0.024l0.047,0.029l0.045,0.032l0.044,0.036l0.043,0.039l0.042,0.042l0.04,0.044l0.039,0.045l0.038,0.047l0.036,0.048l0.034,0.048l0.033,0.049l0.134,0.333l0.441,1.187l0.441,1.187l0.441,1.188l0.441,1.187l0.441,1.187l0.882,2.375l0.441,1.188l0.441,1.187l0.441,1.187l0.882,2.375l0.441,1.188" style="fill:none;stroke:#000;stroke-width:0.3px;"/><path d="M15.239,236.307l0.933,-0.989" style="fill:none;stroke:#000;stroke-width:0.3px;"/><path d="M16.172,235.318l1.703,0" style="fill:none;stroke:#000;stroke-width:0.3px;"/><path d="M18.079,258.293l-0.132,-18.25" style="fill:none;stroke:#000;stroke-width:0.3px;"/><path d="M17.947,240.043l-1.635,-2.213" style="fill:none;stroke:#000;stroke-width:0.3px;"/><path d="M17.947,240.043l0.781,-2.023" style="fill:none;stroke:#000;stroke-width:0.3px;"/><path d="M16.312,237.83l-0.14,-2.512" style="fill:none;stroke:#000;stroke-width:0.3px;stroke-linecap:round;"/><path d="M18.601,273.902l-0.464,0" style="fill:none;stroke:#000;stroke-width:0.3px;"/><path d="M18.658,274.398l-0.521,0" style="fill:none;stroke:#000;stroke-width:0.3px;"/><path d="M19.599,273.829l-0.09,-1.137l-0.089,-1.136l-0.09,-1.136l-0.09,-1.136l-0.089,-1.137l-0.09,-1.136l-0.089,-1.136l-0.09,-1.137l-0.09,-1.136l-0.089,-1.136l-0.09,-1.136l-0.089,-1.137l-0.09,-1.136l-0.038,-0.361l-0.025,-0.09l-0.029,-0.077l-0.034,-0.065l-0.038,-0.054l-0.041,-0.043l-0.043,-0.033l-0.046,-0.023l-0.048,-0.015l-0.049,-0.007l-0.049,0l-0.05,0.007l-0.049,0.014l-0.049,0.019l-0.048,0.024l-0.046,0.029l-0.046,0.032l-0.044,0.036l-0.043,0.039l-0.042,0.042l-0.04,0.044l-0.039,0.045l-0.037,0.047l-0.036,0.048l-0.035,0.048l-0.033,0.049l-0.133,0.333l-0.441,1.187l-0.441,1.187l-0.441,1.188l-0.441,1.187l-0.441,1.187l-0.441,1.188l-0.441,1.187l-0.441,1.188l-0.441,1.187l-0.441,1.187l-0.441,1.188l-0.441,1.187l-0.441,1.188" style="fill:none;stroke:#000;stroke-width:0.3px;"/><path d="M13.754,277.5c0.711,1.25 1.208,2.609 1.473,4.023l-3.716,0c0.265,-1.414 0.763,-2.773 1.473,-4.023" style="fill:#333;fill-rule:nonzero;stroke:#000;stroke-width:0.3px;"/><path d="M12.054,277.5l2.631,0" style="fill:none;stroke:#000;stroke-width:0.3px;"/><path d="M4.444,276.982c-0.008,0.187 0.05,0.37 0.164,0.518l2.631,0c0.052,-0.068 0.093,-0.143 0.121,-0.224" style="fill:none;stroke:#000;stroke-width:0.3px;"/><path d="M7.317,276.982c-0.008,0.187 0.05,0.37 0.164,0.518" style="fill:none;stroke:#000;stroke-width:0.3px;"/><path d="M12.149,173.756l-2.927,0l-0.108,0.081l0,2.604l0.81,0l0,-0.976l0.077,-0.069l2.148,0c0.542,0 0.797,-0.146 0.797,-0.521l0,-0.598c-0.001,-0.375 -0.255,-0.521 -0.797,-0.521m0,0.963c0,0.176 -0.117,0.213 -0.371,0.213l-1.768,0l-0.086,-0.084l0,-0.558l0.077,-0.07l1.777,0c0.254,0 0.371,0.036 0.371,0.213l0,0.286l0,0Z" style="fill:#005288;fill-rule:nonzero;"/><path d="M10.454,179.678l0.697,1.022l-0.039,0.099l-1.541,0l-0.394,0.484l2.295,0l0.159,0.097l0.356,0.491l0.928,0l-2.033,-2.719" style="fill:#005288;fill-rule:nonzero;"/><g><path d="M10.021,193.244l0,-0.722l0.083,-0.072l1.551,0l0,-0.461l-2.458,0l0,1.784l3.626,0l0,-0.458l-2.715,0" style="fill:#005288;fill-rule:nonzero;"/><rect x="9.197" y="191.088" width="3.665" height="0.506" style="fill:#005288;fill-rule:nonzero;"/></g><path d="M10.009,185.489l2.952,0c-0.045,-0.375 -0.278,-0.48 -0.869,-0.48l-2.115,0c-0.667,0 -0.879,0.131 -0.879,0.635l0,1.416c0,0.505 0.212,0.635 0.879,0.635l2.115,0c0.599,0 0.829,-0.112 0.845,-0.502l-2.928,0l-0.087,-0.081l0,-1.568" style="fill:#005288;fill-rule:nonzero;"/><path d="M12.117,168.616l-2.148,0l-0.063,-0.07l0,-0.459l0.063,-0.049l2.896,0l0.039,-0.097c-0.099,-0.253 -0.354,-0.372 -0.828,-0.372l-2.012,0c-0.666,0 -0.879,0.131 -0.879,0.635l0,0.297c0,0.505 0.213,0.635 0.879,0.635l2.144,0l0.067,0.059l0,0.481l-0.055,0.075l-2.451,0l0,-0.003l-0.642,0c0,0 -0.074,0.037 -0.071,0.054c0.055,0.353 0.295,0.453 0.871,0.453l2.19,0c0.667,0 0.886,-0.13 0.886,-0.635l0,-0.37c0,-0.504 -0.219,-0.634 -0.886,-0.634" style="fill:#005288;fill-rule:nonzero;"/><path d="M10.05,197.313l-1.206,0l-0.066,0.125l1.339,0.976c0.254,-0.147 0.53,-0.296 0.83,-0.443" style="fill:#005288;fill-rule:nonzero;"/><path d="M11.13,199.152l1.177,0.858l1.22,0l0.05,-0.114l-1.757,-1.286c-0.233,0.172 -0.464,0.352 -0.69,0.542" style="fill:#005288;fill-rule:nonzero;"/><path d="M9.87,200.008l-1.091,0l-0.092,-0.144c0.742,-0.716 4.128,-3.408 8.536,-3.75c0,0 -3.856,0.428 -7.353,3.894" style="fill:#a7a9ac;fill-rule:nonzero;"/><g><rect x="7.588" y="132.749" width="6.96" height="3.912" style="fill:#b22234;fill-rule:nonzero;"/><path d="M7.588,133.2l6.96,0m0,0.602l-6.96,0m0,0.602l6.96,0m0,0.602l-6.96,0m0,0.602l6.96,0m0,0.601l-6.96,0" style="fill-rule:nonzero;stroke:#fff;stroke-width:0.29px;"/><rect x="7.588" y="132.749" width="2.784" height="2.107" style="fill:#3c3b6e;fill-rule:nonzero;"/><g><path d="M7.82,132.839l0.067,0.218l-0.174,-0.135l0.215,0l-0.174,0.135l0.066,-0.218Z" style="fill:#fff;fill-rule:nonzero;"/><path d="M7.82,133.26l0.067,0.218l-0.174,-0.134l0.215,0l-0.174,0.134l0.066,-0.218Z" style="fill:#fff;fill-rule:nonzero;"/><path d="M7.82,133.682l0.067,0.217l-0.174,-0.134l0.215,0l-0.174,0.134l0.066,-0.217Z" style="fill:#fff;fill-rule:nonzero;"/><path d="M7.82,134.103l0.067,0.218l-0.174,-0.135l0.215,0l-0.174,0.135l0.066,-0.218Z" style="fill:#fff;fill-rule:nonzero;"/><path d="M7.82,134.524l0.067,0.218l-0.174,-0.135l0.215,0l-0.174,0.135l0.066,-0.218Z" style="fill:#fff;fill-rule:nonzero;"/><g><path d="M8.052,133.05l0.067,0.217l-0.174,-0.134l0.215,0l-0.174,0.134l0.066,-0.217Z" style="fill:#fff;fill-rule:nonzero;"/><path d="M8.052,133.471l0.067,0.218l-0.174,-0.135l0.215,0l-0.174,0.135l0.066,-0.218Z" style="fill:#fff;fill-rule:nonzero;"/><path d="M8.052,133.892l0.067,0.218l-0.174,-0.135l0.215,0l-0.174,0.135l0.066,-0.218Z" style="fill:#fff;fill-rule:nonzero;"/><path d="M8.052,134.314l0.067,0.217l-0.174,-0.134l0.215,0l-0.174,0.134l0.066,-0.217Z" style="fill:#fff;fill-rule:nonzero;"/></g><g><path d="M8.284,132.839l0.067,0.218l-0.174,-0.135l0.215,0l-0.174,0.135l0.066,-0.218Z" style="fill:#fff;fill-rule:nonzero;"/><path d="M8.284,133.26l0.067,0.218l-0.174,-0.134l0.215,0l-0.174,0.134l0.066,-0.218Z" style="fill:#fff;fill-rule:nonzero;"/><path d="M8.284,133.682l0.067,0.217l-0.174,-0.134l0.215,0l-0.174,0.134l0.066,-0.217Z" style="fill:#fff;fill-rule:nonzero;"/><path d="M8.284,134.103l0.067,0.218l-0.174,-0.135l0.215,0l-0.174,0.135l0.066,-0.218Z" style="fill:#fff;fill-rule:nonzero;"/><path d="M8.284,134.524l0.067,0.218l-0.174,-0.135l0.215,0l-0.174,0.135l0.066,-0.218Z" style="fill:#fff;fill-rule:nonzero;"/></g><g><path d="M8.516,133.05l0.067,0.217l-0.174,-0.134l0.215,0l-0.174,0.134l0.066,-0.217Z" style="fill:#fff;fill-rule:nonzero;"/><path d="M8.516,133.471l0.067,0.218l-0.174,-0.135l0.215,0l-0.174,0.135l0.066,-0.218Z" style="fill:#fff;fill-rule:nonzero;"/><path d="M8.516,133.892l0.067,0.218l-0.174,-0.135l0.215,0l-0.174,0.135l0.066,-0.218Z" style="fill:#fff;fill-rule:nonzero;"/><path d="M8.516,134.314l0.067,0.217l-0.174,-0.134l0.215,0l-0.174,0.134l0.066,-0.217Z" style="fill:#fff;fill-rule:nonzero;"/></g><g><path d="M8.748,132.839l0.067,0.218l-0.174,-0.135l0.215,0l-0.174,0.135l0.066,-0.218Z" style="fill:#fff;fill-rule:nonzero;"/><path d="M8.748,133.26l0.067,0.218l-0.174,-0.134l0.215,0l-0.174,0.134l0.066,-0.218Z" style="fill:#fff;fill-rule:nonzero;"/><path d="M8.748,133.682l0.067,0.217l-0.174,-0.134l0.215,0l-0.174,0.134l0.066,-0.217Z" style="fill:#fff;fill-rule:nonzero;"/><path d="M8.748,134.103l0.067,0.218l-0.174,-0.135l0.215,0l-0.174,0.135l0.066,-0.218Z" style="fill:#fff;fill-rule:nonzero;"/><path d="M8.748,134.524l0.067,0.218l-0.174,-0.135l0.215,0l-0.174,0.135l0.066,-0.218Z" style="fill:#fff;fill-rule:nonzero;"/></g><g><path d="M8.98,133.05l0.067,0.217l-0.174,-0.134l0.215,0l-0.174,0.134l0.066,-0.217Z" style="fill:#fff;fill-rule:nonzero;"/><path d="M8.98,133.471l0.067,0.218l-0.174,-0.135l0.215,0l-0.174,0.135l0.066,-0.218Z" style="fill:#fff;fill-rule:nonzero;"/><path d="M8.98,133.892l0.067,0.218l-0.174,-0.135l0.215,0l-0.174,0.135l0.066,-0.218Z" style="fill:#fff;fill-rule:nonzero;"/><path d="M8.98,134.314l0.067,0.217l-0.174,-0.134l0.215,0l-0.174,0.134l0.066,-0.217Z" style="fill:#fff;fill-rule:nonzero;"/></g><g><path d="M9.212,132.839l0.067,0.218l-0.174,-0.135l0.215,0l-0.174,0.135l0.066,-0.218Z" style="fill:#fff;fill-rule:nonzero;"/><path d="M9.212,133.26l0.067,0.218l-0.174,-0.134l0.215,0l-0.174,0.134l0.066,-0.218Z" style="fill:#fff;fill-rule:nonzero;"/><path d="M9.212,133.682l0.067,0.217l-0.174,-0.134l0.215,0l-0.174,0.134l0.066,-0.217Z" style="fill:#fff;fill-rule:nonzero;"/><path d="M9.212,134.103l0.067,0.218l-0.174,-0.135l0.215,0l-0.174,0.135l0.066,-0.218Z" style="fill:#fff;fill-rule:nonzero;"/><path d="M9.212,134.524l0.067,0.218l-0.174,-0.135l0.215,0l-0.174,0.135l0.066,-0.218Z" style="fill:#fff;fill-rule:nonzero;"/></g><g><path d="M9.444,133.05l0.067,0.217l-0.174,-0.134l0.215,0l-0.174,0.134l0.066,-0.217Z" style="fill:#fff;fill-rule:nonzero;"/><path d="M9.444,133.471l0.067,0.218l-0.174,-0.135l0.215,0l-0.174,0.135l0.066,-0.218Z" style="fill:#fff;fill-rule:nonzero;"/><path d="M9.444,133.892l0.067,0.218l-0.174,-0.135l0.215,0l-0.174,0.135l0.066,-0.218Z" style="fill:#fff;fill-rule:nonzero;"/><path d="M9.444,134.314l0.067,0.217l-0.174,-0.134l0.215,0l-0.174,0.134l0.066,-0.217Z" style="fill:#fff;fill-rule:nonzero;"/></g><g><path d="M9.676,132.839l0.067,0.218l-0.174,-0.135l0.215,0l-0.174,0.135l0.066,-0.218Z" style="fill:#fff;fill-rule:nonzero;"/><path d="M9.676,133.26l0.067,0.218l-0.174,-0.134l0.215,0l-0.174,0.134l0.066,-0.218Z" style="fill:#fff;fill-rule:nonzero;"/><path d="M9.676,133.682l0.067,0.217l-0.174,-0.134l0.215,0l-0.174,0.134l0.066,-0.217Z" style="fill:#fff;fill-rule:nonzero;"/><path d="M9.676,134.103l0.067,0.218l-0.174,-0.135l0.215,0l-0.174,0.135l0.066,-0.218Z" style="fill:#fff;fill-rule:nonzero;"/><path d="M9.676,134.524l0.067,0.218l-0.174,-0.135l0.215,0l-0.174,0.135l0.066,-0.218Z" style="fill:#fff;fill-rule:nonzero;"/></g><g><path d="M9.908,133.05l0.067,0.217l-0.174,-0.134l0.215,0l-0.174,0.134l0.066,-0.217Z" style="fill:#fff;fill-rule:nonzero;"/><path d="M9.908,133.471l0.067,0.218l-0.174,-0.135l0.215,0l-0.174,0.135l0.066,-0.218Z" style="fill:#fff;fill-rule:nonzero;"/><path d="M9.908,133.892l0.067,0.218l-0.174,-0.135l0.215,0l-0.174,0.135l0.066,-0.218Z" style="fill:#fff;fill-rule:nonzero;"/><path d="M9.908,134.314l0.067,0.217l-0.174,-0.134l0.215,0l-0.174,0.134l0.066,-0.217Z" style="fill:#fff;fill-rule:nonzero;"/></g><g><path d="M10.14,132.839l0.067,0.218l-0.174,-0.135l0.215,0l-0.174,0.135l0.066,-0.218Z" style="fill:#fff;fill-rule:nonzero;"/><path d="M10.14,133.26l0.067,0.218l-0.174,-0.134l0.215,0l-0.174,0.134l0.066,-0.218Z" style="fill:#fff;fill-rule:nonzero;"/><path d="M10.14,133.682l0.067,0.217l-0.174,-0.134l0.215,0l-0.174,0.134l0.066,-0.217Z" style="fill:#fff;fill-rule:nonzero;"/><path d="M10.14,134.103l0.067,0.218l-0.174,-0.135l0.215,0l-0.174,0.135l0.066,-0.218Z" style="fill:#fff;fill-rule:nonzero;"/><path d="M10.14,134.524l0.067,0.218l-0.174,-0.135l0.215,0l-0.174,0.135l0.066,-0.218Z" style="fill:#fff;fill-rule:nonzero;"/></g></g></g><g><g><path d="M9.061,126.894c0.233,-0.125 0.467,-0.246 0.713,-0.342c-2.778,-1.462 -2.933,-2.56 -3.504,-3.716c0.439,1.338 0.806,2.675 2.791,4.058Z" style="fill:#a80126;"/><path d="M7.615,124.701c1.058,0.884 1.976,1.515 2.654,1.707c0.67,-0.358 2.886,-0.552 2.838,-0.048c-0.485,-0.239 -0.773,-0.125 -1.048,-0.037c0.138,-0.002 0.503,-0.042 0.613,-0.004c-0.045,0.054 -0.093,0.077 -0.143,0.108c0.179,0.039 0.348,0.09 0.489,0.174c0.092,-0.008 0.152,-0.006 0.179,0.022c-0.093,0.025 -0.205,0.144 -0.26,0.226c0.616,0.017 1.272,0.011 1.34,0.66c0.195,-0.575 -0.153,-0.874 -0.83,-1.004c-0.089,-0.197 -0.232,-0.366 -0.371,-0.556c-1.85,-0.103 -3.699,-0.229 -5.461,-1.248Z" style="fill:#a80126;"/></g><path d="M6.162,129.177l0,-1.121l0.75,0c-0.029,0.039 -0.054,0.079 -0.118,0.105l-0.469,0l0,0.295l0.419,0c-0.024,0.035 -0.051,0.068 -0.095,0.083l-0.324,0l0,0.399c-0.035,0.091 -0.08,0.176 -0.163,0.239Z"/><path d="M8.186,128.172l0,0.82l0.213,0l0,-0.772c-0.288,-0.262 -0.576,-0.262 -0.865,0l0,0.772l0.193,0l0,-0.453l0.152,0c0.035,-0.018 0.06,-0.04 0.074,-0.065l-0.223,0l0,-0.299c0.171,-0.117 0.308,-0.117 0.456,-0.003l0,0Z"/><path d="M10.409,129.019l-0.864,0l0,-0.945l0.216,0l0,0.867l0.76,0c-0.031,0.03 -0.048,0.068 -0.112,0.078Z"/><path d="M11.701,128.057l0,0.185c-0.347,0.471 0.245,1.036 0.911,0.622l0.05,-0.011c-0.413,0.466 -1.925,0.088 -0.961,-0.796l0,0Z"/><path d="M11.244,128.081l0,0.342c0.332,-0.598 0.793,-0.896 2.202,-0.499c-1.352,-0.531 -1.854,-0.253 -2.202,0.157Z"/><path d="M13.87,127.982c-0.282,0.005 -0.565,0.193 -0.564,0.551c0.004,0.714 1.128,0.751 1.128,0c0,-0.376 -0.281,-0.555 -0.564,-0.551Zm-0.002,0.075c0.167,-0.002 0.335,0.155 0.337,0.476c0.003,0.641 -0.664,0.626 -0.668,0c-0.003,-0.314 0.163,-0.474 0.331,-0.476Z"/><path d="M15.486,128.175l0,0.851l-0.168,0l0,-0.894l0.169,-0.081l-0.002,0.038c0.26,-0.005 0.442,0.114 0.489,0.179l0,0.766l-0.163,0l0,-0.752c-0.061,-0.1 -0.128,-0.126 -0.325,-0.128l0,0.021Z"/><path d="M11.082,129.684c-1.739,0.008 -1.288,1.402 -0.327,1.374c0.448,-0.012 0.532,-0.059 0.832,-0.38c-0.187,0.94 -0.825,0.94 -1.593,1.015c-0.097,0.063 -0.116,0.077 -0.182,0.178c1.304,-0.026 2.397,-0.258 2.365,-1.27c-0.022,-0.708 -0.496,-0.92 -1.095,-0.917Zm-0.026,0.169c0,0 0,0 0,0c0.315,0 0.574,0.203 0.574,0.451c0,0 0,0 0,0c-0.001,0.247 -0.26,0.45 -0.574,0.45c-0.314,-0.001 -0.572,-0.204 -0.573,-0.45c0,-0.248 0.259,-0.451 0.573,-0.451Z"/></g><rect x="3.862" y="88.842" width="14.409" height="26.963" style="fill:url(#_Linear8);fill-rule:nonzero;"/><path d="M4.029,115.804l14.108,0" style="fill:none;stroke:#000;stroke-width:0.3px;"/><g><path d="M3.769,119.741l-0.024,-4.847l0.804,-1.182l-0.024,-1.277l0.639,-1.206l0.212,-0.685l0.521,-0.19l0.52,0.048l0.307,0.094l0.284,0.757l0.165,0.827l0.024,0.71l0,0.756l-0.071,0.544l0.615,0.686l0,4.894l-0.473,0.095l-3.499,-0.024Z" style="fill:#fff;"/><path d="M7.264,114.895l0,4.866l-3.499,0l0,-4.846l0.707,-1.223l1.671,0l1.121,1.203Z" style="fill:none;stroke:#000;stroke-width:0.23px;stroke-linecap:square;stroke-linejoin:round;"/><path d="M6.695,113.692l-2.146,0.02l-0.024,-1.277l0.582,-1.118l0.284,-0.735c0.373,-0.221 0.831,-0.219 1.337,-0.084c0.502,1.143 0.55,2.346 0.385,3.578" style="fill:url(#_Radial9);stroke:#000;stroke-width:0.23px;stroke-linecap:square;stroke-linejoin:round;"/><path d="M4.522,119.66l0,-5.935l0,-1.237l0.585,-1.171c0.685,-0.321 1.266,-0.202 1.772,0.235l-0.084,2.19" style="fill:none;stroke:#000;stroke-width:0.23px;stroke-linecap:square;stroke-linejoin:round;"/><path d="M6.068,113.725l0,5.935" style="fill:none;stroke:#000;stroke-width:0.23px;stroke-linecap:square;stroke-linejoin:round;"/><path d="M6.127,113.708l0.568,-0.016l1.037,1.12l0,4.894l-0.476,0.047" style="fill:none;stroke:#000;stroke-width:0.23px;stroke-linecap:square;stroke-linejoin:round;"/><path d="M6.177,113.675l0.017,-1.204l0.652,-0.836" style="fill:none;stroke:#000;stroke-width:0.23px;stroke-linecap:square;stroke-linejoin:round;"/><path d="M4.555,112.387c0.614,-0.25 1.141,-0.211 1.622,-0.016" style="fill:none;stroke:#000;stroke-width:0.23px;stroke-linecap:round;stroke-linejoin:round;"/><g><path d="M6.062,119.741l1.182,-1.182" style="fill:#fff;"/><path d="M6.062,119.741l1.159,-1.277" style="fill:#fff;stroke:#000;stroke-width:0.23px;stroke-linecap:round;stroke-linejoin:round;"/><path d="M4.998,119.741l2.199,-2.79" style="fill:#fff;stroke:#000;stroke-width:0.23px;stroke-linecap:round;stroke-linejoin:round;"/><path d="M7.221,115.532l-3.287,4.186" style="fill:#fff;stroke:#000;stroke-width:0.23px;stroke-linecap:round;stroke-linejoin:round;"/><path d="M6.89,114.587l-3.098,3.972" style="fill:#fff;stroke:#000;stroke-width:0.23px;stroke-linecap:round;stroke-linejoin:round;"/><path d="M6.299,113.877l-2.483,3.263" style="fill:#fff;stroke:#000;stroke-width:0.23px;stroke-linecap:round;stroke-linejoin:round;"/><path d="M5.282,113.759l-1.508,1.933" style="fill:#fff;stroke:#000;stroke-width:0.23px;stroke-linecap:round;stroke-linejoin:round;"/><path d="M5.518,119.694l-1.749,-2.483" style="fill:#fff;stroke:#000;stroke-width:0.23px;stroke-linecap:round;stroke-linejoin:round;"/><path d="M3.816,118.583l0.733,1.158" style="fill:#fff;stroke:#000;stroke-width:0.23px;stroke-linecap:round;stroke-linejoin:round;"/><path d="M6.689,119.704l-2.897,-3.793" style="fill:#fff;stroke:#000;stroke-width:0.23px;stroke-linecap:round;stroke-linejoin:round;"/><path d="M7.197,118.961l-3.31,-4.209" style="fill:#fff;stroke:#000;stroke-width:0.23px;stroke-linecap:round;stroke-linejoin:round;"/><path d="M7.244,117.519l-2.932,-3.452" style="fill:#fff;stroke:#000;stroke-width:0.23px;stroke-linecap:round;stroke-linejoin:round;"/><path d="M7.268,116.147l-2.128,-2.411" style="fill:#fff;stroke:#000;stroke-width:0.23px;stroke-linecap:round;stroke-linejoin:round;"/></g></g><g><path d="M18.321,119.741l0.024,-4.847l-0.804,-1.182l0.023,-1.277l-0.638,-1.206l-0.213,-0.685l-0.52,-0.19l-0.52,0.048l-0.308,0.094l-0.283,0.757l-0.166,0.827l-0.023,0.71l0,0.756l0.071,0.544l-0.615,0.686l0,4.894l0.473,0.095l3.499,-0.024Z" style="fill:#fff;"/><path d="M14.826,114.895l0,4.866l3.498,0l0,-4.846l-0.706,-1.223l-1.672,0l-1.12,1.203Z" style="fill:none;stroke:#000;stroke-width:0.23px;stroke-linecap:square;stroke-linejoin:round;"/><path d="M15.395,113.692l2.146,0.02l0.023,-1.277l-0.64,-1.303l-0.225,-0.55c-0.374,-0.221 -0.831,-0.219 -1.338,-0.084c-0.501,1.143 -0.55,2.346 -0.384,3.578" style="fill:url(#_Radial10);stroke:#000;stroke-width:0.23px;stroke-linecap:square;stroke-linejoin:round;"/><path d="M17.568,119.66l0,-5.935l0,-1.237l-0.585,-1.171c-0.685,-0.321 -1.266,-0.202 -1.772,0.235l0.083,2.19" style="fill:none;stroke:#000;stroke-width:0.23px;stroke-linecap:square;stroke-linejoin:round;"/><path d="M16.021,113.725l0,5.935" style="fill:none;stroke:#000;stroke-width:0.23px;stroke-linecap:square;stroke-linejoin:round;"/><path d="M15.963,113.708l-0.568,-0.016l-1.037,1.12l0,4.894l0.476,0.047" style="fill:none;stroke:#000;stroke-width:0.23px;stroke-linecap:square;stroke-linejoin:round;"/><path d="M15.913,113.675l-0.017,-1.204l-0.652,-0.836" style="fill:none;stroke:#000;stroke-width:0.23px;stroke-linecap:square;stroke-linejoin:round;"/><path d="M17.535,112.387c-0.615,-0.25 -1.142,-0.211 -1.622,-0.016" style="fill:none;stroke:#000;stroke-width:0.23px;stroke-linecap:round;stroke-linejoin:round;"/><g><path d="M16.028,119.741l-1.183,-1.182" style="fill:#fff;"/><path d="M16.028,119.741l-1.159,-1.277" style="fill:#fff;stroke:#000;stroke-width:0.23px;stroke-linecap:round;stroke-linejoin:round;"/><path d="M17.092,119.741l-2.199,-2.79" style="fill:#fff;stroke:#000;stroke-width:0.23px;stroke-linecap:round;stroke-linejoin:round;"/><path d="M14.869,115.532l3.287,4.186" style="fill:#fff;stroke:#000;stroke-width:0.23px;stroke-linecap:round;stroke-linejoin:round;"/><path d="M15.2,114.587l3.097,3.972" style="fill:#fff;stroke:#000;stroke-width:0.23px;stroke-linecap:round;stroke-linejoin:round;"/><path d="M15.791,113.877l2.483,3.263" style="fill:#fff;stroke:#000;stroke-width:0.23px;stroke-linecap:round;stroke-linejoin:round;"/><path d="M16.808,113.759l1.507,1.933" style="fill:#fff;stroke:#000;stroke-width:0.23px;stroke-linecap:round;stroke-linejoin:round;"/><path d="M16.571,119.694l1.75,-2.483" style="fill:#fff;stroke:#000;stroke-width:0.23px;stroke-linecap:round;stroke-linejoin:round;"/><path d="M18.274,118.583l-0.733,1.158" style="fill:#fff;stroke:#000;stroke-width:0.23px;stroke-linecap:round;stroke-linejoin:round;"/><path d="M15.4,119.704l2.897,-3.793" style="fill:#fff;stroke:#000;stroke-width:0.23px;stroke-linecap:round;stroke-linejoin:round;"/><path d="M14.893,118.961l3.31,-4.209" style="fill:#fff;stroke:#000;stroke-width:0.23px;stroke-linecap:round;stroke-linejoin:round;"/><path d="M14.845,117.519l2.932,-3.452" style="fill:#fff;stroke:#000;stroke-width:0.23px;stroke-linecap:round;stroke-linejoin:round;"/><path d="M14.822,116.147l2.128,-2.411" style="fill:#fff;stroke:#000;stroke-width:0.23px;stroke-linecap:round;stroke-linejoin:round;"/></g></g><path d="M4.751,264.377l0.035,-0.106l0.059,-0.118l0.083,-0.122l0.102,-0.122l0.121,-0.115l0.137,-0.103l0.15,-0.086l0.162,-0.063l0.17,-0.034l0.178,0l0.181,0.039l0.184,0.085l0.305,0.799l0.96,2.647l0.32,0.882l0.32,0.883l0.96,2.647l0.32,0.882l0.64,1.765l0.081,0.214l0.015,0.027l0.017,0.025l0.018,0.022l0.019,0.022l0.02,0.019l0.021,0.019l0.021,0.015l0.023,0.015l0.023,0.013l0.023,0.011l0.025,0.01l0.024,0.008l0.049,0.015l0.073,0l0.023,0l0.133,0l0.04,-0.018l0.039,-0.037l0.038,-0.056l0.037,-0.072l0.036,-0.085l0.033,-0.097l0.031,-0.106l0.028,-0.114l0.026,-0.119l0.022,-0.123l0.018,-0.123l-0.146,-1.38l-0.34,-2.887l-0.339,-2.887l-0.34,-2.887l-0.34,-2.886l-0.339,-2.887l-0.34,-2.887l-0.339,-2.887l-0.34,-2.887l-0.339,-2.887l-0.34,-2.887l-0.339,-2.886l-0.223,-1.955l-0.001,-0.19l-0.002,-0.19l-0.001,-0.19l-0.002,-0.189l-0.001,-0.19l-0.002,-0.19l-0.002,-0.19l-0.001,-0.189l-0.002,-0.19l-0.001,-0.19l-0.002,-0.189l-0.007,-0.238l-0.027,-0.369l-0.028,-0.335l-0.028,-0.302l-0.029,-0.272l-0.03,-0.245l-0.03,-0.22l-0.031,-0.197l-0.031,-0.176l-0.033,-0.158l-0.032,-0.143l-0.034,-0.129l-0.033,-0.118l-0.035,-0.109l-0.035,-0.101l-0.035,-0.092l-0.036,-0.085l-0.036,-0.076l-0.037,-0.07l-0.038,-0.063l-0.038,-0.057l-0.038,-0.05l-0.039,-0.044l-0.04,-0.04l-0.04,-0.034l-0.041,-0.029l-0.042,-0.024l-0.041,-0.02l-0.043,-0.016l-0.043,-0.01l-0.043,-0.006l-0.044,-0.002l-0.045,0.003l-0.045,0.008l-0.045,0.012l-0.046,0.017l-0.047,0.021l-0.047,0.026l-0.047,0.03l-0.048,0.035l-0.049,0.041l-0.049,0.045l-0.05,0.052l-0.05,0.057l-0.052,0.063l-0.052,0.07l-0.053,0.075l-0.054,0.083l-0.055,0.09l-0.056,0.097l-0.056,0.103l-0.058,0.109l-0.057,0.115l-0.058,0.119l-0.057,0.123l-0.057,0.126l-0.056,0.128l-0.055,0.13l-0.053,0.13l-0.052,0.131l-0.05,0.13l-0.048,0.128l-0.046,0.128l-0.043,0.126l-0.041,0.126l-0.038,0.125l-0.035,0.126l-0.033,0.126l-0.029,0.127l-0.026,0.128l-0.023,0.129" style="fill:url(#_Linear11);fill-rule:nonzero;stroke:#000;stroke-width:0.3px;"/><path d="M4.751,264.377l-0.028,0.163l-0.028,0.166l-0.028,0.169l-0.028,0.173l-0.027,0.175l-0.027,0.178l-0.026,0.18l-0.027,0.184l-0.026,0.186l-0.025,0.188l-0.026,0.19l-0.026,0.193l-0.025,0.194l-0.025,0.197l-0.024,0.199l-0.025,0.2l-0.024,0.202l-0.025,0.203l-0.024,0.205l-0.023,0.206l-0.024,0.207l-0.024,0.208l-0.046,0.419l-0.047,0.423l-0.045,0.424l-0.091,0.852l-0.044,0.426l-0.045,0.424l-0.044,0.423l-0.045,0.419l-0.022,0.208l-0.022,0.207l-0.022,0.206l-0.022,0.204l-0.022,0.203l-0.023,0.202l-0.022,0.2l-0.022,0.198l-0.023,0.196l-0.022,0.194l-0.011,0.097l-0.003,0.024l-0.002,0.012l-0.001,0.008l0,0l-0.001,0l-0.005,0.012l-0.006,0.011l-0.006,0.009l-0.006,0.008l-0.006,0.007l-0.006,0.008l-0.006,0l-0.006,0l-0.013,0l-0.012,0l-0.013,0l-0.025,-0.012l-0.049,-0.028l-0.047,-0.029l-0.047,-0.029l-0.044,-0.029l-0.044,-0.029l-0.041,-0.03l-0.041,-0.03l-0.039,-0.03l-0.038,-0.03l-0.036,-0.031l-0.036,-0.031l-0.034,-0.032l-0.033,-0.032l-0.031,-0.032l-0.031,-0.031l-0.029,-0.033l-0.028,-0.033l-0.054,-0.065l-0.049,-0.067l-0.045,-0.067l-0.041,-0.068l-0.039,-0.069l-0.034,-0.069l-0.032,-0.07l-0.029,-0.069l-0.027,-0.071l-0.024,-0.07l-0.022,-0.07l-0.02,-0.072l-0.018,-0.071l-0.016,-0.071l-0.016,-0.07l-0.014,-0.071l-0.007,-0.035l-0.003,-0.017l-0.001,-0.01l0,0l-0.001,0l0,0l0.001,-0.008l0.001,-0.042l0.003,-0.086l0.182,-5.457l0.365,-10.915l0.364,-10.915l0.182,-5.457l0.046,-1.365l0.011,-0.341l0.001,-0.021l0,-0.003l0,-0.002l0,0l0,0l0,-0.001l0.001,-0.002l0,-0.004l0.002,-0.009l0.005,-0.036l0.011,-0.071l0.011,-0.068l0.011,-0.067l0.011,-0.066l0.011,-0.064l0.011,-0.062l0.011,-0.061l0.012,-0.06l0.011,-0.059l0.011,-0.057l0.023,-0.113l0.024,-0.109l0.024,-0.106l0.026,-0.105l0.025,-0.103l0.027,-0.103l0.028,-0.103l0.03,-0.104l0.03,-0.104l0.032,-0.107l0.035,-0.108l0.037,-0.111l0.04,-0.113l0.021,-0.057l0.023,-0.058l0.023,-0.059l0.024,-0.06l0.025,-0.061l0.026,-0.061l0.027,-0.062l0.028,-0.064l0.029,-0.064l0.031,-0.065l0.032,-0.066l0.033,-0.068l0.035,-0.068l0.036,-0.07" style="fill:url(#_Linear12);fill-rule:nonzero;stroke:#000;stroke-width:0.3px;stroke-linecap:round;"/><path d="M17.512,264.377l-0.035,-0.106l-0.059,-0.118l-0.083,-0.122l-0.102,-0.122l-0.121,-0.115l-0.137,-0.103l-0.15,-0.086l-0.162,-0.063l-0.17,-0.034l-0.178,0l-0.181,0.039l-0.184,0.085l-0.305,0.799l-0.32,0.882l-0.32,0.882l-0.32,0.883l-0.32,0.882l-0.32,0.883l-0.32,0.882l-0.32,0.882l-0.32,0.883l-0.32,0.882l-0.32,0.883l-0.32,0.882l-0.081,0.214l-0.016,0.027l-0.016,0.025l-0.018,0.022l-0.019,0.022l-0.02,0.019l-0.021,0.019l-0.021,0.015l-0.023,0.015l-0.023,0.013l-0.024,0.011l-0.024,0.01l-0.024,0.008l-0.025,0.008l-0.024,0.007l-0.025,0l-0.024,0l-0.024,0l-0.024,0l-0.022,0l-0.022,0l-0.021,0l-0.019,0l-0.018,0l-0.03,0l-0.04,-0.018l-0.039,-0.037l-0.039,-0.056l-0.037,-0.072l-0.035,-0.085l-0.033,-0.097l-0.031,-0.106l-0.029,-0.114l-0.025,-0.119l-0.022,-0.123l-0.018,-0.123l0.146,-1.38l0.34,-2.887l0.339,-2.887l0.34,-2.887l0.339,-2.886l0.34,-2.887l0.339,-2.887l0.34,-2.887l0.34,-2.887l0.339,-2.887l0.34,-2.887l0.339,-2.886l0.223,-1.955l0.001,-0.19l0.002,-0.19l0.001,-0.19l0.002,-0.189l0.001,-0.19l0.002,-0.19l0.001,-0.19l0.002,-0.189l0.001,-0.19l0.002,-0.19l0.001,-0.189l0.008,-0.238l0.027,-0.369l0.027,-0.335l0.029,-0.302l0.029,-0.272l0.029,-0.245l0.031,-0.22l0.031,-0.197l0.031,-0.176l0.032,-0.158l0.033,-0.143l0.033,-0.129l0.034,-0.118l0.035,-0.109l0.034,-0.101l0.036,-0.092l0.036,-0.085l0.036,-0.076l0.037,-0.07l0.037,-0.063l0.038,-0.057l0.039,-0.05l0.039,-0.044l0.04,-0.04l0.04,-0.034l0.041,-0.029l0.041,-0.024l0.042,-0.02l0.043,-0.016l0.043,-0.01l0.043,-0.006l0.044,-0.002l0.045,0.003l0.045,0.008l0.045,0.012l0.046,0.017l0.047,0.021l0.047,0.026l0.047,0.03l0.048,0.035l0.048,0.041l0.05,0.045l0.049,0.052l0.051,0.057l0.051,0.063l0.053,0.07l0.053,0.075l0.054,0.083l0.055,0.09l0.055,0.097l0.057,0.103l0.057,0.109l0.058,0.115l0.058,0.119l0.057,0.123l0.057,0.126l0.056,0.128l0.054,0.13l0.054,0.13l0.052,0.131l0.05,0.13l0.048,0.128l0.046,0.128l0.043,0.126l0.041,0.126l0.038,0.125l0.035,0.126l0.032,0.126l0.03,0.127l0.026,0.128l0.022,0.129" style="fill:url(#_Linear13);fill-rule:nonzero;stroke:#000;stroke-width:0.3px;"/><path d="M17.512,264.377l0.028,0.163l0.028,0.166l0.028,0.169l0.027,0.173l0.028,0.175l0.026,0.178l0.027,0.18l0.026,0.184l0.027,0.186l0.025,0.188l0.026,0.19l0.025,0.193l0.026,0.194l0.025,0.197l0.024,0.199l0.025,0.2l0.024,0.202l0.025,0.203l0.024,0.205l0.023,0.206l0.024,0.207l0.024,0.208l0.046,0.419l0.046,0.423l0.046,0.424l0.09,0.852l0.045,0.426l0.045,0.424l0.044,0.423l0.044,0.419l0.023,0.208l0.022,0.207l0.022,0.206l0.022,0.204l0.022,0.203l0.023,0.202l0.022,0.2l0.022,0.198l0.023,0.196l0.022,0.194l0.011,0.097l0.005,0.036l0.001,0.008l0.001,0l0.005,0.012l0.006,0.011l0.006,0.009l0.018,0.023l0.05,0l0.025,-0.012l0.049,-0.028l0.047,-0.029l0.047,-0.029l0.044,-0.029l0.044,-0.029l0.041,-0.03l0.041,-0.03l0.039,-0.03l0.038,-0.03l0.036,-0.031l0.036,-0.031l0.034,-0.032l0.033,-0.032l0.031,-0.032l0.031,-0.031l0.029,-0.033l0.028,-0.033l0.053,-0.065l0.05,-0.067l0.045,-0.067l0.041,-0.068l0.039,-0.069l0.034,-0.069l0.032,-0.07l0.029,-0.069l0.027,-0.071l0.024,-0.07l0.021,-0.07l0.02,-0.072l0.019,-0.071l0.016,-0.071l0.015,-0.07l0.015,-0.071l0.006,-0.035l0.004,-0.017l0.001,-0.01l0,0l0,0l0,0l0,-0.008l-0.001,-0.042l-0.003,-0.086l-0.183,-5.457l-0.364,-10.915l-0.364,-10.915l-0.183,-5.457l-0.045,-1.365l-0.012,-0.341l0,-0.021l0,-0.003l0,-0.002l0,0l0,0l-0.001,-0.001l0,-0.002l-0.001,-0.004l-0.001,-0.009l-0.005,-0.036l-0.011,-0.071l-0.011,-0.068l-0.011,-0.067l-0.011,-0.066l-0.011,-0.064l-0.011,-0.062l-0.011,-0.061l-0.012,-0.06l-0.011,-0.059l-0.011,-0.057l-0.024,-0.113l-0.023,-0.109l-0.025,-0.106l-0.025,-0.105l-0.026,-0.103l-0.027,-0.103l-0.028,-0.103l-0.029,-0.104l-0.03,-0.104l-0.033,-0.107l-0.034,-0.108l-0.037,-0.111l-0.04,-0.113l-0.022,-0.057l-0.022,-0.058l-0.023,-0.059l-0.024,-0.06l-0.025,-0.061l-0.026,-0.061l-0.027,-0.062l-0.028,-0.064l-0.03,-0.064l-0.03,-0.065l-0.032,-0.066l-0.034,-0.068l-0.034,-0.068l-0.036,-0.07" style="fill:url(#_Linear14);fill-rule:nonzero;stroke:#000;stroke-width:0.3px;stroke-linecap:round;"/><path d="M6.976,236.288l-0.934,-0.989" style="fill:url(#_Linear15);fill-rule:nonzero;stroke:#000;stroke-width:0.3px;"/><path d="M6.042,235.299l-1.703,0" style="fill:url(#_Linear16);fill-rule:nonzero;stroke:#000;stroke-width:0.3px;"/><path d="M4.136,258.274l0.132,-18.249" style="fill:url(#_Linear17);fill-rule:nonzero;stroke:#000;stroke-width:0.3px;"/><path d="M4.268,240.025l1.634,-2.214" style="fill:url(#_Linear18);fill-rule:nonzero;stroke:#000;stroke-width:0.3px;"/><path d="M4.268,240.025l-0.781,-2.024" style="fill:url(#_Linear19);fill-rule:nonzero;stroke:#000;stroke-width:0.3px;"/><path d="M5.902,237.811l0.14,-2.512" style="fill:url(#_Linear20);fill-rule:nonzero;stroke:#000;stroke-width:0.3px;stroke-linecap:round;"/><path d="M3.613,273.883l0.464,0" style="fill:url(#_Linear21);fill-rule:nonzero;stroke:#000;stroke-width:0.3px;"/><path d="M3.556,274.379l0.521,0" style="fill:url(#_Linear22);fill-rule:nonzero;stroke:#000;stroke-width:0.3px;"/><path d="M10.9,274.379l0.463,0" style="fill:url(#_Linear23);fill-rule:nonzero;stroke:#000;stroke-width:0.3px;"/><path d="M11.049,273.883l0.165,0" style="fill:url(#_Linear24);fill-rule:nonzero;stroke:#000;stroke-width:0.3px;"/><path d="M2.615,273.81l0.09,-1.136l0.09,-1.137l0.089,-1.136l0.09,-1.136l0.089,-1.137l0.09,-1.136l0.09,-1.136l0.089,-1.137l0.09,-1.136l0.089,-1.136l0.09,-1.136l0.09,-1.137l0.089,-1.136l0.038,-0.361l0.025,-0.09l0.029,-0.077l0.034,-0.065l0.038,-0.054l0.041,-0.043l0.044,-0.033l0.045,-0.023l0.048,-0.014l0.049,-0.008l0.049,0l0.05,0.008l0.05,0.013l0.048,0.019l0.048,0.024l0.046,0.029l0.046,0.033l0.044,0.035l0.043,0.039l0.042,0.042l0.04,0.044l0.039,0.045l0.037,0.047l0.036,0.048l0.035,0.048l0.033,0.049l0.134,0.333l0.441,1.187l0.441,1.187l0.441,1.188l0.441,1.187l0.441,1.188l0.882,2.374l0.441,1.188l0.441,1.187l0.44,1.187l0.882,2.375l0.441,1.188" style="fill:url(#_Linear25);fill-rule:nonzero;stroke:#000;stroke-width:0.3px;"/><path d="M15.287,236.288l0.934,-0.989" style="fill:url(#_Linear26);fill-rule:nonzero;stroke:#000;stroke-width:0.3px;"/><path d="M16.221,235.299l1.703,0" style="fill:url(#_Linear27);fill-rule:nonzero;stroke:#000;stroke-width:0.3px;"/><path d="M18.127,258.274l-0.132,-18.249" style="fill:url(#_Linear28);fill-rule:nonzero;stroke:#000;stroke-width:0.3px;"/><path d="M17.995,240.025l-1.634,-2.214" style="fill:url(#_Linear29);fill-rule:nonzero;stroke:#000;stroke-width:0.3px;"/><path d="M17.995,240.025l0.781,-2.024" style="fill:url(#_Linear30);fill-rule:nonzero;stroke:#000;stroke-width:0.3px;"/><path d="M16.361,237.811l-0.14,-2.512" style="fill:url(#_Linear31);fill-rule:nonzero;stroke:#000;stroke-width:0.3px;stroke-linecap:round;"/><path d="M18.65,273.883l-0.464,0" style="fill:url(#_Linear32);fill-rule:nonzero;stroke:#000;stroke-width:0.3px;"/><path d="M18.707,274.379l-0.521,0" style="fill:url(#_Linear33);fill-rule:nonzero;stroke:#000;stroke-width:0.3px;"/><path d="M19.648,273.81l-0.09,-1.136l-0.09,-1.137l-0.089,-1.136l-0.09,-1.136l-0.089,-1.137l-0.09,-1.136l-0.09,-1.136l-0.089,-1.137l-0.09,-1.136l-0.089,-1.136l-0.09,-1.136l-0.09,-1.137l-0.089,-1.136l-0.038,-0.361l-0.025,-0.09l-0.029,-0.077l-0.034,-0.065l-0.038,-0.054l-0.041,-0.043l-0.044,-0.033l-0.045,-0.023l-0.048,-0.014l-0.049,-0.008l-0.049,0l-0.05,0.008l-0.05,0.013l-0.048,0.019l-0.048,0.024l-0.047,0.029l-0.045,0.033l-0.044,0.035l-0.043,0.039l-0.042,0.042l-0.04,0.044l-0.039,0.045l-0.037,0.047l-0.037,0.048l-0.034,0.048l-0.033,0.049l-0.134,0.333l-0.441,1.187l-0.441,1.187l-0.441,1.188l-0.441,1.187l-0.441,1.188l-0.441,1.187l-0.441,1.187l-0.441,1.188l-0.441,1.187l-0.441,1.187l-0.441,1.188l-0.441,1.187l-0.441,1.188" style="fill:url(#_Linear34);fill-rule:nonzero;stroke:#000;stroke-width:0.3px;"/></g></g><defs><linearGradient id="_Linear2" x1="0" y1="0" x2="1" y2="0" gradientUnits="userSpaceOnUse" gradientTransform="matrix(3.38763,0,0,3.35399,6.54146,104.802)"><stop offset="0" style="stop-color:#000;stop-opacity:0.033654"/><stop offset="1" style="stop-color:#000;stop-opacity:0"/></linearGradient><linearGradient id="_Linear3" x1="0" y1="0" x2="1" y2="0" gradientUnits="userSpaceOnUse" gradientTransform="matrix(-3.33792,0,0,3.30477,15.63,104.7)"><stop offset="0" style="stop-color:#000;stop-opacity:0.033654"/><stop offset="1" style="stop-color:#000;stop-opacity:0"/></linearGradient><linearGradient id="_Linear4" x1="0" y1="0" x2="1" y2="0" gradientUnits="userSpaceOnUse" gradientTransform="matrix(10.6799,0,0,10.6799,-1.25742,525.334)"><stop offset="0" style="stop-color:#e6e6e6;stop-opacity:1"/><stop offset="1" style="stop-color:#f9f9f9;stop-opacity:1"/></linearGradient><linearGradient id="_Linear5" x1="0" y1="0" x2="1" y2="0" gradientUnits="userSpaceOnUse" gradientTransform="matrix(10.6799,0,0,10.6799,-1.25742,525.334)"><stop offset="0" style="stop-color:#e6e6e6;stop-opacity:1"/><stop offset="1" style="stop-color:#f9f9f9;stop-opacity:1"/></linearGradient><linearGradient id="_Linear6" x1="0" y1="0" x2="1" y2="0" gradientUnits="userSpaceOnUse" gradientTransform="matrix(-13.2258,0,0,13.2258,24.1148,525.618)"><stop offset="0" style="stop-color:#e6e6e6;stop-opacity:1"/><stop offset="1" style="stop-color:#fff;stop-opacity:1"/></linearGradient><linearGradient id="_Linear7" x1="0" y1="0" x2="1" y2="0" gradientUnits="userSpaceOnUse" gradientTransform="matrix(-13.2258,0,0,13.2258,24.1148,525.618)"><stop offset="0" style="stop-color:#e6e6e6;stop-opacity:1"/><stop offset="1" style="stop-color:#fff;stop-opacity:1"/></linearGradient><linearGradient id="_Linear8" x1="0" y1="0" x2="1" y2="0" gradientUnits="userSpaceOnUse" gradientTransform="matrix(-7.07918,-0,-0,-7.07918,18.2705,102.323)"><stop offset="0" style="stop-color:#000;stop-opacity:1"/><stop offset="1" style="stop-color:#000;stop-opacity:0.623529"/></linearGradient><radialGradient id="_Radial9" cx="0" cy="0" r="1" gradientUnits="userSpaceOnUse" gradientTransform="matrix(1.44992,0,0,1.95614,5.86168,112.248)"><stop offset="0" style="stop-color:#808080;stop-opacity:1"/><stop offset="1" style="stop-color:#000;stop-opacity:1"/></radialGradient><radialGradient id="_Radial10" cx="0" cy="0" r="1" gradientUnits="userSpaceOnUse" gradientTransform="matrix(-1.45002,0,0,1.95614,16.2279,112.248)"><stop offset="0" style="stop-color:#808080;stop-opacity:1"/><stop offset="1" style="stop-color:#000;stop-opacity:1"/></radialGradient><linearGradient id="_Linear11" x1="0" y1="0" x2="1" y2="0" gradientUnits="userSpaceOnUse" gradientTransform="matrix(9.04957,0,0,9.04957,2.13782,253.594)"><stop offset="0" style="stop-color:#051307;stop-opacity:1"/><stop offset="1" style="stop-color:#050707;stop-opacity:0.498039"/></linearGradient><linearGradient id="_Linear12" x1="0" y1="0" x2="1" y2="0" gradientUnits="userSpaceOnUse" gradientTransform="matrix(9.04957,0,0,9.04957,2.13782,253.594)"><stop offset="0" style="stop-color:#051307;stop-opacity:1"/><stop offset="1" style="stop-color:#050707;stop-opacity:0.498039"/></linearGradient><linearGradient id="_Linear13" x1="0" y1="0" x2="1" y2="0" gradientUnits="userSpaceOnUse" gradientTransform="matrix(9.04957,0,0,9.04957,2.13782,253.594)"><stop offset="0" style="stop-color:#051307;stop-opacity:1"/><stop offset="1" style="stop-color:#050707;stop-opacity:0.498039"/></linearGradient><linearGradient id="_Linear14" x1="0" y1="0" x2="1" y2="0" gradientUnits="userSpaceOnUse" gradientTransform="matrix(9.04957,0,0,9.04957,2.13782,253.594)"><stop offset="0" style="stop-color:#051307;stop-opacity:1"/><stop offset="1" style="stop-color:#050707;stop-opacity:0.498039"/></linearGradient><linearGradient id="_Linear15" x1="0" y1="0" x2="1" y2="0" gradientUnits="userSpaceOnUse" gradientTransform="matrix(9.04957,0,0,9.04957,2.13782,253.594)"><stop offset="0" style="stop-color:#051307;stop-opacity:1"/><stop offset="1" style="stop-color:#050707;stop-opacity:0.498039"/></linearGradient><linearGradient id="_Linear16" x1="0" y1="0" x2="1" y2="0" gradientUnits="userSpaceOnUse" gradientTransform="matrix(9.04957,0,0,9.04957,2.13782,253.594)"><stop offset="0" style="stop-color:#051307;stop-opacity:1"/><stop offset="1" style="stop-color:#050707;stop-opacity:0.498039"/></linearGradient><linearGradient id="_Linear17" x1="0" y1="0" x2="1" y2="0" gradientUnits="userSpaceOnUse" gradientTransform="matrix(9.04957,0,0,9.04957,2.13782,253.594)"><stop offset="0" style="stop-color:#051307;stop-opacity:1"/><stop offset="1" style="stop-color:#050707;stop-opacity:0.498039"/></linearGradient><linearGradient id="_Linear18" x1="0" y1="0" x2="1" y2="0" gradientUnits="userSpaceOnUse" gradientTransform="matrix(9.04957,0,0,9.04957,2.13782,253.594)"><stop offset="0" style="stop-color:#051307;stop-opacity:1"/><stop offset="1" style="stop-color:#050707;stop-opacity:0.498039"/></linearGradient><linearGradient id="_Linear19" x1="0" y1="0" x2="1" y2="0" gradientUnits="userSpaceOnUse" gradientTransform="matrix(9.04957,0,0,9.04957,2.13782,253.594)"><stop offset="0" style="stop-color:#051307;stop-opacity:1"/><stop offset="1" style="stop-color:#050707;stop-opacity:0.498039"/></linearGradient><linearGradient id="_Linear20" x1="0" y1="0" x2="1" y2="0" gradientUnits="userSpaceOnUse" gradientTransform="matrix(9.04957,0,0,9.04957,2.13782,253.594)"><stop offset="0" style="stop-color:#051307;stop-opacity:1"/><stop offset="1" style="stop-color:#050707;stop-opacity:0.498039"/></linearGradient><linearGradient id="_Linear21" x1="0" y1="0" x2="1" y2="0" gradientUnits="userSpaceOnUse" gradientTransform="matrix(9.04957,0,0,9.04957,2.13782,253.594)"><stop offset="0" style="stop-color:#051307;stop-opacity:1"/><stop offset="1" style="stop-color:#050707;stop-opacity:0.498039"/></linearGradient><linearGradient id="_Linear22" x1="0" y1="0" x2="1" y2="0" gradientUnits="userSpaceOnUse" gradientTransform="matrix(9.04957,0,0,9.04957,2.13782,253.594)"><stop offset="0" style="stop-color:#051307;stop-opacity:1"/><stop offset="1" style="stop-color:#050707;stop-opacity:0.498039"/></linearGradient><linearGradient id="_Linear23" x1="0" y1="0" x2="1" y2="0" gradientUnits="userSpaceOnUse" gradientTransform="matrix(9.04957,0,0,9.04957,2.13782,253.594)"><stop offset="0" style="stop-color:#051307;stop-opacity:1"/><stop offset="1" style="stop-color:#050707;stop-opacity:0.498039"/></linearGradient><linearGradient id="_Linear24" x1="0" y1="0" x2="1" y2="0" gradientUnits="userSpaceOnUse" gradientTransform="matrix(9.04957,0,0,9.04957,2.13782,253.594)"><stop offset="0" style="stop-color:#051307;stop-opacity:1"/><stop offset="1" style="stop-color:#050707;stop-opacity:0.498039"/></linearGradient><linearGradient id="_Linear25" x1="0" y1="0" x2="1" y2="0" gradientUnits="userSpaceOnUse" gradientTransform="matrix(9.04957,0,0,9.04957,2.13782,253.594)"><stop offset="0" style="stop-color:#051307;stop-opacity:1"/><stop offset="1" style="stop-color:#050707;stop-opacity:0.498039"/></linearGradient><linearGradient id="_Linear26" x1="0" y1="0" x2="1" y2="0" gradientUnits="userSpaceOnUse" gradientTransform="matrix(9.04957,0,0,9.04957,2.13782,253.594)"><stop offset="0" style="stop-color:#051307;stop-opacity:1"/><stop offset="1" style="stop-color:#050707;stop-opacity:0.498039"/></linearGradient><linearGradient id="_Linear27" x1="0" y1="0" x2="1" y2="0" gradientUnits="userSpaceOnUse" gradientTransform="matrix(9.04957,0,0,9.04957,2.13782,253.594)"><stop offset="0" style="stop-color:#051307;stop-opacity:1"/><stop offset="1" style="stop-color:#050707;stop-opacity:0.498039"/></linearGradient><linearGradient id="_Linear28" x1="0" y1="0" x2="1" y2="0" gradientUnits="userSpaceOnUse" gradientTransform="matrix(9.04957,0,0,9.04957,2.13782,253.594)"><stop offset="0" style="stop-color:#051307;stop-opacity:1"/><stop offset="1" style="stop-color:#050707;stop-opacity:0.498039"/></linearGradient><linearGradient id="_Linear29" x1="0" y1="0" x2="1" y2="0" gradientUnits="userSpaceOnUse" gradientTransform="matrix(9.04957,0,0,9.04957,2.13782,253.594)"><stop offset="0" style="stop-color:#051307;stop-opacity:1"/><stop offset="1" style="stop-color:#050707;stop-opacity:0.498039"/></linearGradient><linearGradient id="_Linear30" x1="0" y1="0" x2="1" y2="0" gradientUnits="userSpaceOnUse" gradientTransform="matrix(9.04957,0,0,9.04957,2.13782,253.594)"><stop offset="0" style="stop-color:#051307;stop-opacity:1"/><stop offset="1" style="stop-color:#050707;stop-opacity:0.498039"/></linearGradient><linearGradient id="_Linear31" x1="0" y1="0" x2="1" y2="0" gradientUnits="userSpaceOnUse" gradientTransform="matrix(9.04957,0,0,9.04957,2.13782,253.594)"><stop offset="0" style="stop-color:#051307;stop-opacity:1"/><stop offset="1" style="stop-color:#050707;stop-opacity:0.498039"/></linearGradient><linearGradient id="_Linear32" x1="0" y1="0" x2="1" y2="0" gradientUnits="userSpaceOnUse" gradientTransform="matrix(9.04957,0,0,9.04957,2.13782,253.594)"><stop offset="0" style="stop-color:#051307;stop-opacity:1"/><stop offset="1" style="stop-color:#050707;stop-opacity:0.498039"/></linearGradient><linearGradient id="_Linear33" x1="0" y1="0" x2="1" y2="0" gradientUnits="userSpaceOnUse" gradientTransform="matrix(9.04957,0,0,9.04957,2.13782,253.594)"><stop offset="0" style="stop-color:#051307;stop-opacity:1"/><stop offset="1" style="stop-color:#050707;stop-opacity:0.498039"/></linearGradient><linearGradient id="_Linear34" x1="0" y1="0" x2="1" y2="0" gradientUnits="userSpaceOnUse" gradientTransform="matrix(9.04957,0,0,9.04957,2.13782,253.594)"><stop offset="0" style="stop-color:#051307;stop-opacity:1"/><stop offset="1" style="stop-color:#050707;stop-opacity:0.498039"/></linearGradient></defs></svg>