<?xml version="1.0" encoding="UTF-8" standalone="no"?><!DOCTYPE svg PUBLIC "-//W3C//DTD SVG 1.1//EN" "http://www.w3.org/Graphics/SVG/1.1/DTD/svg11.dtd"><svg width="100%" height="100%" viewBox="0 0 30 377" version="1.1" xmlns="http://www.w3.org/2000/svg" xmlns:xlink="http://www.w3.org/1999/xlink" xml:space="preserve" style="fill-rule:evenodd;clip-rule:evenodd;stroke-linecap:round;stroke-linejoin:round;stroke-miterlimit:1.5;"><g><path d="M14.905,370.317l14.432,0c0,0 0,-277.312 0,-305.601c0,-28.289 2.22,-43.51 -14.432,-64.341l0,0c-16.652,20.831 -14.432,36.052 -14.432,64.341c0,28.289 0,305.601 0,305.601l14.432,0" style="fill:#a6a6a6;stroke:#000;stroke-width:0.75px;"/><path d="M14.905,370.317c0,0 -0.078,0.076 3.934,0c3.413,2.611 3.561,6.253 3.332,6.253c-0.23,0 -7.266,0 -7.266,0l0,0c0,0 -7.036,0 -7.265,0c-0.229,0 -0.081,-3.642 3.332,-6.253c4.011,0.076 3.933,0 3.933,0" style="stroke:#000;stroke-width:0.75px;"/></g></svg>