<?xml version="1.0" standalone="yes"?>
<svg width="50" height="217">
<path style="fill:#ffffff; stroke:none;" d="M0 0L0 217L7 217L3 212C9.77969 199.858 8.54049 182.672 10.4236 169C15.4901 132.215 18.1954 97.1954 17.9992 60C17.9134 43.713 7.2614 13.9822 23 1L0 0z"/>
<path style="fill:#000000; stroke:none;" d="M3 212L7 217L17 214L18 214L19 217L21 214L22 217C25.3008 216.81 28.229 217.667 29 214L30 214L30 217L43 217L48 212C40.2677 199.71 41.4706 181.248 39.7153 167C35.3369 131.461 26.3481 91.9475 32.2238 56C34.5076 42.0273 36.7404 28.3536 33.5756 14C32.621 9.67029 31.9012 2.29146 26.9452 0.647385C20.8091 -1.38817 18.6758 5.5768 17.6512 10C14.9226 21.7799 14.1699 33.8967 15.0548 46C16.6438 67.7348 19.4395 89.6716 17.9105 112C16.7617 128.776 13.155 145.287 11.1551 162C9.17579 178.541 9.07958 196.558 3 212z"/>
<path style="fill:#ffffff; stroke:none;" d="M28 0C39.5128 20.1674 32.1111 39.0752 32.0008 60C31.8086 96.4468 34.7307 130.983 39.5756 167C41.3278 180.026 39.3384 201.766 48 212C44.5256 212.577 43.5765 213.526 43 217L50 217L50 0L28 0M17 214L16 217L17 214M20 214L20 217L22 217L22 214L20 214M29 214L29 217L30 217L29 214M9 216L10 217L9 216M25 216L26 217L25 216M33 216L34 217L33 216M36 216L37 217L36 216M40 216L41 217L40 216z"/>
</svg>
