<?xml version="1.0" encoding="UTF-8" standalone="no"?><!DOCTYPE svg PUBLIC "-//W3C//DTD SVG 1.1//EN" "http://www.w3.org/Graphics/SVG/1.1/DTD/svg11.dtd"><svg width="100%" height="100%" viewBox="0 0 19 259" version="1.1" xmlns="http://www.w3.org/2000/svg" xmlns:xlink="http://www.w3.org/1999/xlink" xml:space="preserve" xmlns:serif="http://www.serif.com/" style="fill-rule:evenodd;clip-rule:evenodd;"><rect id="Artboard1" x="0" y="0" width="18.932" height="258.212" style="fill:none;"/><clipPath id="_clip1"><rect x="0" y="0" width="18.932" height="258.212"/></clipPath><g clip-path="url(#_clip1)"><g><rect x="3.241" y="28.848" width="14.124" height="220.797" style="fill:#fff;fill-rule:nonzero;"/><g><rect x="3.384" y="29.011" width="7.005" height="220.553" style="fill:url(#_Linear2);fill-rule:nonzero;"/><rect x="10.285" y="28.97" width="6.902" height="220.481" style="fill:url(#_Linear3);fill-rule:nonzero;"/></g><rect x="2.805" y="249.936" width="0.337" height="0.366" style="fill:#f7f7f7;fill-rule:nonzero;"/><rect x="17.341" y="249.902" width="0.443" height="0.451" style="fill:#f7f7f7;fill-rule:nonzero;"/><path d="M3.864,253.283c-0.018,-0.039 -0.035,-0.089 -0.039,-0.112l-0.007,-0.041l2.573,0l0.013,0.069c0.012,0.058 0.011,0.075 -0.005,0.106l-0.019,0.038l-1.242,0l-1.243,0l-0.032,-0.071l0.001,0.011Z" style="fill:#f7f7f7;fill-rule:nonzero;"/><path d="M6.736,253.283c-0.017,-0.039 -0.035,-0.089 -0.038,-0.112l-0.007,-0.041l1.32,0c1.097,0 1.319,0 1.319,0.016c0,0.025 -0.045,0.151 -0.065,0.182l-0.018,0.027l-1.239,0l-1.24,0l-0.032,-0.071l0,-0.001Z" style="fill:#f7f7f7;fill-rule:nonzero;"/><path d="M9.561,253.393c0.027,-0.071 0.052,-0.158 0.059,-0.207l0.009,-0.056l0.665,0c0.724,0 0.679,-0.007 0.68,0.063c0,0.014 0.015,0.07 0.033,0.123l0.033,0.098l-0.744,0c-0.703,0 -0.743,0 -0.735,-0.021l0,0Z" style="fill:#f7f7f7;fill-rule:nonzero;"/><path d="M11.314,253.298c-0.013,-0.031 -0.031,-0.081 -0.04,-0.112l-0.014,-0.056l1.323,0c0.901,0 1.323,0 1.323,0.012c0,0.022 -0.049,0.159 -0.066,0.186l-0.018,0.027l-1.241,0l-1.242,0l-0.025,-0.056l0,-0.001Z" style="fill:#f7f7f7;fill-rule:nonzero;"/><path d="M14.196,253.313c-0.017,-0.035 -0.018,-0.051 -0.006,-0.112l0.014,-0.071l1.287,0c0.876,0 1.287,0 1.287,0.012c0,0.022 -0.048,0.158 -0.066,0.186l-0.017,0.026l-1.24,0l-1.24,0l-0.019,-0.042l0,0.001Z" style="fill:#f7f7f7;fill-rule:nonzero;"/><path d="M3.255,249.623l14.049,0.023l0.007,2.477l-0.528,1.325l-12.989,-0.04l-0.528,-1.326l-0.011,-2.459Z" style="fill:#101010;fill-rule:nonzero;"/><g><path d="M6.429,255.456c-0.147,-0.36 -0.341,-0.779 -0.534,-1.155l-0.075,-0.146l0.031,-0.057c0.054,-0.1 0.179,-0.317 0.254,-0.442l0.027,-0.044l0.151,0c0.083,0 0.25,0 0.371,0l0.219,0l0.029,0.048c0.065,0.106 0.231,0.395 0.27,0.47l0.014,0.026l-0.039,0.075c-0.211,0.401 -0.422,0.856 -0.592,1.275l-0.028,0.071l-0.025,0l-0.025,0l-0.048,-0.12l0,-0.001Z" style="fill:#333;fill-rule:nonzero;"/><path d="M13.917,255.342c-0.147,-0.36 -0.34,-0.779 -0.534,-1.155l-0.075,-0.146l0.031,-0.057c0.055,-0.1 0.179,-0.317 0.255,-0.442l0.026,-0.044l0.152,0c0.083,0 0.249,0 0.37,0l0.219,0l0.03,0.048c0.064,0.106 0.23,0.395 0.27,0.47l0.013,0.026l-0.039,0.075c-0.211,0.401 -0.421,0.856 -0.591,1.275l-0.029,0.07l-0.024,0l-0.025,0l-0.049,-0.119l0,-0.001Z" style="fill:#333;fill-rule:nonzero;"/></g><path d="M9.428,254.933c0.061,-0.118 0.175,-0.329 0.253,-0.467l0.142,-0.252l-0.168,-0.293l-0.167,-0.294l-0.287,0c-0.245,0 -0.287,-0.008 -0.287,-0.031c0,-0.025 -0.024,-0.029 -0.124,-0.025c-0.118,0.009 -0.126,0.01 -0.165,0.077l-0.041,0.07l0.215,0.41c0.118,0.225 0.278,0.546 0.354,0.713c0.076,0.168 0.144,0.305 0.152,0.305c0.006,0.001 0.062,-0.096 0.123,-0.214l0,0.001Z" style="fill:#333;fill-rule:nonzero;"/><path d="M11.16,254.918c-0.06,-0.118 -0.174,-0.329 -0.252,-0.467l-0.142,-0.252l0.167,-0.293l0.167,-0.294l0.287,0c0.245,0 0.288,-0.008 0.288,-0.031c0,-0.025 0.023,-0.029 0.124,-0.025c0.117,0.009 0.126,0.01 0.165,0.077l0.041,0.07l-0.215,0.41c-0.119,0.225 -0.278,0.546 -0.354,0.713c-0.077,0.168 -0.145,0.305 -0.152,0.305c-0.007,0.001 -0.063,-0.096 -0.124,-0.214l0,0.001Z" style="fill:#333;fill-rule:nonzero;"/><path d="M8.48,258.143c0,-0.01 0.063,-0.288 0.072,-0.319c0.132,-1.702 0.269,-1.348 0.812,-2.381c0,-0.052 0.37,-0.793 0.575,-1.151l0.104,-0.183l0,-0.237l0,-0.237l0.513,0l0,0.481l0.11,0.192c0.115,0.2 0.432,0.819 0.506,0.985l0.043,0.097c0.673,1.817 0.167,0.222 0.86,2.567c0.017,0.08 0.032,0.155 0.032,0.169c0,0.025 -0.003,0.025 -1.814,0.025c-0.997,0 -1.814,0 -1.814,-0.008l0.001,0Z" style="fill:#333;fill-rule:nonzero;"/><g><path d="M3.243,91.808l14.108,0" style="fill:none;stroke:#000;stroke-width:0.3px;"/><path d="M12.969,253.504l-0.77,0" style="fill:none;stroke:#000;stroke-width:0.3px;"/><path d="M4.716,257.526l3.716,0" style="fill:none;stroke:#000;stroke-width:0.3px;"/><path d="M6.189,253.504l0.77,0" style="fill:none;stroke:#000;stroke-width:0.3px;"/><path d="M7.293,254.129c-0.106,-0.211 -0.217,-0.42 -0.334,-0.625" style="fill:none;stroke:#000;stroke-width:0.3px;"/><path d="M6.189,253.504c-0.116,0.205 -0.228,0.414 -0.333,0.625" style="fill:none;stroke:#000;stroke-width:0.3px;"/><path d="M8.748,253.504l0.578,0" style="fill:none;stroke:#000;stroke-width:0.3px;"/><path d="M9.889,254.206c-0.106,-0.218 -0.219,-0.432 -0.338,-0.644" style="fill:none;stroke:#000;stroke-width:0.3px;"/><path d="M8.748,253.504c-0.06,0.106 -0.119,0.212 -0.176,0.32" style="fill:none;stroke:#000;stroke-width:0.3px;"/><path d="M15.879,257.526l-3.717,0" style="fill:none;stroke:#000;stroke-width:0.3px;"/><path d="M14.406,253.504l-0.771,0" style="fill:none;stroke:#000;stroke-width:0.3px;"/><path d="M13.635,253.504c-0.116,0.205 -0.227,0.414 -0.333,0.625" style="fill:none;stroke:#000;stroke-width:0.3px;"/><path d="M14.739,254.129c-0.106,-0.211 -0.217,-0.42 -0.333,-0.625" style="fill:none;stroke:#000;stroke-width:0.3px;"/><path d="M11.847,253.504l-0.579,0" style="fill:none;stroke:#000;stroke-width:0.3px;"/><path d="M6.532,252.986c-0.009,0.186 0.049,0.37 0.163,0.518" style="fill:none;stroke:#000;stroke-width:0.3px;"/><path d="M9.326,253.504c0.114,-0.148 0.172,-0.332 0.164,-0.518" style="fill:none;stroke:#000;stroke-width:0.3px;"/><path d="M6.695,253.504l2.631,0" style="fill:none;stroke:#000;stroke-width:0.3px;"/><path d="M11.105,252.986c-0.009,0.186 0.049,0.37 0.163,0.518" style="fill:none;stroke:#000;stroke-width:0.3px;"/><path d="M13.899,253.504c0.114,-0.148 0.172,-0.332 0.164,-0.518" style="fill:none;stroke:#000;stroke-width:0.3px;"/><path d="M11.268,253.504l2.631,0" style="fill:none;stroke:#000;stroke-width:0.3px;"/><path d="M9.551,253.562l1.492,0" style="fill:none;stroke:#000;stroke-width:0.3px;"/><path d="M8.941,253.504c0.013,0.02 0.026,0.04 0.041,0.059" style="fill:none;stroke:#000;stroke-width:0.3px;"/><path d="M11.613,253.562c0.014,-0.019 0.028,-0.038 0.041,-0.059" style="fill:none;stroke:#000;stroke-width:0.3px;"/><path d="M8.982,253.562l2.631,0" style="fill:none;stroke:#000;stroke-width:0.3px;"/><path d="M11.081,253.562c-0.119,0.212 -0.231,0.426 -0.338,0.644" style="fill:none;stroke:#000;stroke-width:0.3px;"/><path d="M11.081,253.562c-0.119,0.212 -0.231,0.426 -0.338,0.644" style="fill:none;stroke:#000;stroke-width:0.3px;"/><path d="M12.042,253.789c-0.052,-0.096 -0.104,-0.191 -0.158,-0.285" style="fill:none;stroke:#000;stroke-width:0.3px;"/><path d="M3.243,64.802l14.108,0" style="fill:none;stroke:#000;stroke-width:0.3px;"/><path d="M17.351,29.357l0,222.487c-0.018,0.407 -0.146,0.801 -0.37,1.142l-6.684,0l-6.684,0c-0.223,-0.341 -0.351,-0.735 -0.37,-1.142l0,-222.487" style="fill:none;stroke:#000;stroke-width:0.3px;"/><path d="M8.592,257.526c-0.05,0.209 -0.094,0.418 -0.134,0.629l3.716,0c-0.039,-0.211 -0.084,-0.42 -0.134,-0.629" style="fill:none;stroke:#000;stroke-width:0.3px;"/><path d="M9.289,255.425c0.19,-0.442 0.404,-0.874 0.642,-1.293l0,-0.57" style="fill:none;stroke:#000;stroke-width:0.3px;"/><path d="M10.701,253.562l0,0.57c0.23,0.404 0.437,0.82 0.622,1.246" style="fill:none;stroke:#000;stroke-width:0.3px;"/><path d="M6.574,255.881c-0.27,-0.826 -0.622,-1.622 -1.051,-2.377l-0.77,0c-0.71,1.25 -1.208,2.609 -1.473,4.022l3.716,0" style="fill:#333;fill-rule:nonzero;stroke:#000;stroke-width:0.3px;"/><path d="M3.659,252.986c-0.009,0.186 0.049,0.37 0.163,0.518l2.631,0c0.052,-0.068 0.093,-0.144 0.121,-0.224" style="fill:none;stroke:#000;stroke-width:0.3px;"/><path d="M14.02,253.28c0.028,0.08 0.069,0.156 0.122,0.224l2.63,0c0.115,-0.148 0.173,-0.332 0.164,-0.518" style="fill:none;stroke:#000;stroke-width:0.3px;"/><path d="M13.599,257.526l3.716,0c-0.265,-1.413 -0.763,-2.772 -1.473,-4.022l-0.77,0c-0.429,0.755 -0.781,1.551 -1.052,2.377" style="fill:#333;fill-rule:nonzero;stroke:#000;stroke-width:0.3px;"/><path d="M12.969,253.504c0.71,1.25 1.208,2.609 1.473,4.022l-3.716,0c0.265,-1.413 0.763,-2.772 1.473,-4.022" style="fill:#333;fill-rule:nonzero;stroke:#000;stroke-width:0.3px;"/><path d="M7.626,253.504c-0.71,1.25 -1.208,2.609 -1.473,4.022l3.716,0c-0.265,-1.413 -0.763,-2.772 -1.473,-4.022l-0.77,0Z" style="fill:#333;fill-rule:nonzero;stroke:#000;stroke-width:0.3px;"/><path d="M3.243,249.662l14.108,0" style="fill:none;stroke:#000;stroke-width:0.3px;"/><path d="M3.93,240.396l0.035,-0.107l0.06,-0.117l0.082,-0.122l0.103,-0.122l0.121,-0.115l0.136,-0.103l0.151,-0.086l0.161,-0.063l0.171,-0.034l0.177,0l0.182,0.039l0.184,0.085l0.305,0.799l0.96,2.647l0.32,0.882l0.32,0.883l0.96,2.647l0.32,0.882l0.64,1.765l0.081,0.214l0.015,0.027l0.016,0.025l0.018,0.022l0.019,0.022l0.02,0.019l0.021,0.018l0.022,0.016l0.022,0.015l0.023,0.013l0.024,0.011l0.024,0.01l0.024,0.008l0.05,0.015l0.073,0l0.023,0l0.132,0l0.04,-0.018l0.04,-0.038l0.038,-0.056l0.037,-0.071l0.035,-0.085l0.034,-0.097l0.031,-0.106l0.028,-0.114l0.025,-0.119l0.022,-0.123l0.018,-0.124l-0.146,-1.379l-0.34,-2.887l-0.339,-2.887l-0.34,-2.887l-0.339,-2.887l-0.34,-2.886l-0.339,-2.887l-0.34,-2.887l-0.339,-2.887l-0.34,-2.887l-0.339,-2.887l-0.34,-2.886l-0.223,-1.955l-0.001,-0.19l-0.002,-0.19l-0.001,-0.19l-0.002,-0.189l-0.001,-0.19l-0.002,-0.19l-0.001,-0.19l-0.002,-0.189l-0.001,-0.19l-0.002,-0.19l-0.001,-0.19l-0.008,-0.237l-0.027,-0.369l-0.027,-0.335l-0.028,-0.302l-0.029,-0.272l-0.03,-0.245l-0.03,-0.22l-0.031,-0.197l-0.032,-0.176l-0.032,-0.158l-0.033,-0.143l-0.033,-0.129l-0.034,-0.118l-0.034,-0.109l-0.035,-0.101l-0.035,-0.092l-0.036,-0.085l-0.037,-0.076l-0.037,-0.07l-0.037,-0.063l-0.038,-0.057l-0.039,-0.05l-0.039,-0.045l-0.04,-0.039l-0.04,-0.034l-0.041,-0.029l-0.041,-0.025l-0.042,-0.019l-0.042,-0.016l-0.043,-0.01l-0.044,-0.006l-0.044,-0.002l-0.045,0.003l-0.045,0.008l-0.045,0.012l-0.046,0.017l-0.047,0.021l-0.046,0.026l-0.048,0.03l-0.048,0.035l-0.048,0.041l-0.049,0.045l-0.05,0.052l-0.051,0.057l-0.051,0.063l-0.052,0.069l-0.053,0.076l-0.054,0.083l-0.055,0.09l-0.056,0.097l-0.057,0.103l-0.057,0.109l-0.058,0.115l-0.057,0.119l-0.058,0.123l-0.056,0.126l-0.056,0.128l-0.055,0.13l-0.054,0.13l-0.052,0.131l-0.05,0.13l-0.048,0.128l-0.046,0.128l-0.043,0.126l-0.041,0.126l-0.038,0.125l-0.035,0.126l-0.032,0.126l-0.029,0.127l-0.027,0.128l-0.022,0.129" style="fill:url(#_Linear4);fill-rule:nonzero;stroke:#000;stroke-width:0.3px;"/><path d="M3.93,240.396l-0.028,0.163l-0.028,0.166l-0.028,0.169l-0.027,0.173l-0.027,0.175l-0.027,0.178l-0.027,0.18l-0.026,0.184l-0.026,0.185l-0.026,0.189l-0.026,0.19l-0.025,0.193l-0.025,0.194l-0.025,0.197l-0.025,0.198l-0.025,0.201l-0.024,0.201l-0.024,0.204l-0.024,0.204l-0.024,0.207l-0.024,0.207l-0.023,0.208l-0.047,0.419l-0.046,0.423l-0.046,0.424l-0.09,0.852l-0.045,0.426l-0.044,0.424l-0.045,0.422l-0.044,0.42l-0.022,0.208l-0.022,0.207l-0.023,0.206l-0.022,0.204l-0.022,0.203l-0.022,0.202l-0.022,0.199l-0.023,0.199l-0.022,0.196l-0.023,0.194l-0.011,0.097l-0.003,0.024l-0.001,0.012l-0.001,0.008l-0.001,0l0,0l-0.006,0.012l-0.006,0.011l-0.006,0.009l-0.006,0.008l-0.006,0.007l-0.006,0.008l-0.006,0l-0.006,0l-0.012,0l-0.013,0l-0.012,0l-0.025,-0.012l-0.049,-0.028l-0.048,-0.029l-0.046,-0.029l-0.045,-0.029l-0.043,-0.029l-0.042,-0.03l-0.041,-0.03l-0.039,-0.03l-0.038,-0.03l-0.036,-0.031l-0.035,-0.031l-0.034,-0.032l-0.033,-0.032l-0.032,-0.032l-0.03,-0.032l-0.03,-0.032l-0.028,-0.033l-0.053,-0.065l-0.049,-0.067l-0.046,-0.067l-0.041,-0.068l-0.038,-0.069l-0.035,-0.069l-0.032,-0.07l-0.029,-0.069l-0.026,-0.071l-0.024,-0.07l-0.022,-0.071l-0.02,-0.071l-0.018,-0.071l-0.017,-0.071l-0.015,-0.07l-0.014,-0.071l-0.007,-0.035l-0.003,-0.018l-0.002,-0.009l0,0l0,0l0,0l0,-0.008l0.002,-0.042l0.003,-0.086l0.182,-5.457l0.364,-10.915l0.365,-10.915l0.182,-5.458l0.045,-1.364l0.012,-0.341l0.001,-0.021l0,-0.003l0,-0.002l0,0l0,0l0,-0.001l0,-0.002l0.001,-0.005l0.001,-0.009l0.006,-0.035l0.011,-0.071l0.011,-0.069l0.011,-0.066l0.01,-0.066l0.012,-0.064l0.011,-0.062l0.011,-0.061l0.011,-0.06l0.011,-0.059l0.012,-0.057l0.023,-0.113l0.023,-0.109l0.025,-0.106l0.025,-0.105l0.026,-0.103l0.027,-0.103l0.028,-0.103l0.029,-0.104l0.031,-0.105l0.032,-0.106l0.034,-0.108l0.038,-0.111l0.04,-0.113l0.021,-0.057l0.022,-0.059l0.023,-0.058l0.024,-0.06l0.025,-0.061l0.026,-0.061l0.027,-0.062l0.028,-0.064l0.03,-0.064l0.031,-0.065l0.031,-0.066l0.034,-0.068l0.034,-0.068l0.036,-0.07" style="fill:url(#_Linear5);fill-rule:nonzero;stroke:#000;stroke-width:0.3px;stroke-linecap:round;"/><path d="M16.691,240.396l-0.034,-0.107l-0.06,-0.117l-0.082,-0.122l-0.103,-0.122l-0.121,-0.115l-0.137,-0.103l-0.15,-0.086l-0.161,-0.063l-0.171,-0.034l-0.177,0l-0.182,0.039l-0.184,0.085l-0.305,0.799l-0.32,0.882l-0.32,0.882l-0.32,0.883l-0.32,0.882l-0.32,0.883l-0.32,0.882l-0.32,0.882l-0.32,0.883l-0.32,0.882l-0.32,0.882l-0.32,0.883l-0.081,0.214l-0.015,0.027l-0.017,0.025l-0.018,0.022l-0.018,0.022l-0.02,0.019l-0.021,0.018l-0.022,0.016l-0.023,0.015l-0.023,0.013l-0.023,0.011l-0.024,0.01l-0.025,0.008l-0.024,0.008l-0.025,0.007l-0.025,0l-0.024,0l-0.024,0l-0.023,0l-0.023,0l-0.022,0l-0.02,0l-0.02,0l-0.018,0l-0.03,0l-0.04,-0.018l-0.039,-0.038l-0.038,-0.056l-0.037,-0.071l-0.036,-0.085l-0.033,-0.097l-0.031,-0.106l-0.028,-0.114l-0.025,-0.119l-0.022,-0.123l-0.018,-0.124l0.146,-1.379l0.339,-2.887l0.34,-2.887l0.339,-2.887l0.34,-2.887l0.339,-2.886l0.34,-2.887l0.339,-2.887l0.34,-2.887l0.339,-2.887l0.34,-2.887l0.34,-2.886l0.222,-1.955l0.002,-0.19l0.001,-0.19l0.002,-0.19l0.001,-0.189l0.002,-0.19l0.001,-0.19l0.002,-0.19l0.001,-0.189l0.002,-0.19l0.001,-0.19l0.002,-0.19l0.007,-0.237l0.027,-0.369l0.028,-0.335l0.028,-0.302l0.029,-0.272l0.03,-0.245l0.03,-0.22l0.031,-0.197l0.032,-0.176l0.032,-0.158l0.033,-0.143l0.033,-0.129l0.034,-0.118l0.034,-0.109l0.035,-0.101l0.035,-0.092l0.036,-0.085l0.036,-0.076l0.037,-0.07l0.038,-0.063l0.038,-0.057l0.038,-0.05l0.04,-0.045l0.039,-0.039l0.041,-0.034l0.04,-0.029l0.042,-0.025l0.042,-0.019l0.042,-0.016l0.043,-0.01l0.044,-0.006l0.044,-0.002l0.044,0.003l0.045,0.008l0.046,0.012l0.046,0.017l0.046,0.021l0.047,0.026l0.047,0.03l0.048,0.035l0.049,0.041l0.049,0.045l0.05,0.052l0.05,0.057l0.052,0.063l0.052,0.069l0.053,0.076l0.054,0.083l0.055,0.09l0.056,0.097l0.057,0.103l0.057,0.109l0.057,0.115l0.058,0.119l0.057,0.123l0.057,0.126l0.056,0.128l0.055,0.13l0.053,0.13l0.052,0.131l0.051,0.13l0.047,0.128l0.046,0.128l0.043,0.126l0.041,0.126l0.038,0.125l0.035,0.126l0.033,0.126l0.029,0.127l0.026,0.128l0.023,0.129" style="fill:url(#_Linear6);fill-rule:nonzero;stroke:#000;stroke-width:0.3px;"/><path d="M16.691,240.396l0.029,0.163l0.028,0.166l0.027,0.169l0.028,0.173l0.027,0.175l0.027,0.178l0.027,0.18l0.026,0.184l0.026,0.185l0.026,0.189l0.025,0.19l0.026,0.193l0.025,0.194l0.025,0.197l0.025,0.198l0.024,0.201l0.025,0.201l0.024,0.204l0.024,0.204l0.024,0.207l0.023,0.207l0.024,0.208l0.047,0.419l0.046,0.423l0.046,0.424l0.09,0.852l0.045,0.426l0.044,0.424l0.045,0.422l0.044,0.42l0.022,0.208l0.022,0.207l0.022,0.206l0.023,0.204l0.022,0.203l0.022,0.202l0.022,0.199l0.023,0.199l0.022,0.196l0.022,0.194l0.012,0.097l0.004,0.036l0.001,0.008l0.001,0l0.005,0.012l0.006,0.011l0.006,0.009l0.019,0.023l0.049,0l0.025,-0.012l0.049,-0.028l0.048,-0.029l0.046,-0.029l0.045,-0.029l0.043,-0.029l0.042,-0.03l0.04,-0.03l0.039,-0.03l0.038,-0.03l0.037,-0.031l0.035,-0.031l0.034,-0.032l0.033,-0.032l0.032,-0.032l0.03,-0.032l0.029,-0.032l0.029,-0.033l0.053,-0.065l0.049,-0.067l0.045,-0.067l0.042,-0.068l0.038,-0.069l0.035,-0.069l0.032,-0.07l0.029,-0.069l0.026,-0.071l0.024,-0.07l0.022,-0.071l0.02,-0.071l0.018,-0.071l0.017,-0.071l0.015,-0.07l0.014,-0.071l0.007,-0.035l0.003,-0.018l0.001,-0.009l0.001,0l0,0l0,0l0,-0.008l-0.002,-0.042l-0.003,-0.086l-0.182,-5.457l-0.365,-10.915l-0.364,-10.915l-0.182,-5.458l-0.046,-1.364l-0.011,-0.341l-0.001,-0.021l0,-0.003l0,-0.002l0,0l0,0l0,-0.001l0,-0.002l-0.001,-0.005l-0.002,-0.009l-0.005,-0.035l-0.011,-0.071l-0.011,-0.069l-0.011,-0.066l-0.011,-0.066l-0.011,-0.064l-0.011,-0.062l-0.011,-0.061l-0.011,-0.06l-0.012,-0.059l-0.011,-0.057l-0.023,-0.113l-0.024,-0.109l-0.024,-0.106l-0.025,-0.105l-0.026,-0.103l-0.027,-0.103l-0.028,-0.103l-0.029,-0.104l-0.031,-0.105l-0.032,-0.106l-0.035,-0.108l-0.037,-0.111l-0.04,-0.113l-0.021,-0.057l-0.022,-0.059l-0.023,-0.058l-0.024,-0.06l-0.025,-0.061l-0.026,-0.061l-0.027,-0.062l-0.029,-0.064l-0.029,-0.064l-0.031,-0.065l-0.032,-0.066l-0.033,-0.068l-0.035,-0.068l-0.036,-0.07" style="fill:url(#_Linear7);fill-rule:nonzero;stroke:#000;stroke-width:0.3px;stroke-linecap:round;"/><path d="M6.155,212.307l-0.934,-0.989" style="fill:url(#_Linear8);fill-rule:nonzero;stroke:#000;stroke-width:0.3px;"/><path d="M5.221,211.318l-1.703,0" style="fill:url(#_Linear9);fill-rule:nonzero;stroke:#000;stroke-width:0.3px;"/><path d="M3.315,234.293l0.132,-18.25" style="fill:url(#_Linear10);fill-rule:nonzero;stroke:#000;stroke-width:0.3px;"/><path d="M3.447,216.043l1.635,-2.213" style="fill:url(#_Linear11);fill-rule:nonzero;stroke:#000;stroke-width:0.3px;"/><path d="M3.447,216.043l-0.781,-2.023" style="fill:url(#_Linear12);fill-rule:nonzero;stroke:#000;stroke-width:0.3px;"/><path d="M5.082,213.83l0.139,-2.512" style="fill:url(#_Linear13);fill-rule:nonzero;stroke:#000;stroke-width:0.3px;stroke-linecap:round;"/><path d="M2.792,249.902l0.465,0" style="fill:url(#_Linear14);fill-rule:nonzero;stroke:#000;stroke-width:0.3px;"/><path d="M2.736,250.398l0.521,0" style="fill:url(#_Linear15);fill-rule:nonzero;stroke:#000;stroke-width:0.3px;"/><path d="M10.079,250.398l0.463,0" style="fill:url(#_Linear16);fill-rule:nonzero;stroke:#000;stroke-width:0.3px;"/><path d="M10.228,249.902l0.166,0" style="fill:url(#_Linear17);fill-rule:nonzero;stroke:#000;stroke-width:0.3px;"/><path d="M1.795,249.829l0.089,-1.137l0.09,-1.136l0.09,-1.136l0.089,-1.136l0.09,-1.137l0.089,-1.136l0.09,-1.136l0.09,-1.137l0.089,-1.136l0.09,-1.136l0.089,-1.136l0.09,-1.137l0.09,-1.136l0.037,-0.361l0.025,-0.09l0.03,-0.077l0.034,-0.065l0.037,-0.054l0.041,-0.043l0.044,-0.033l0.046,-0.023l0.047,-0.015l0.049,-0.007l0.05,0l0.049,0.007l0.05,0.014l0.049,0.019l0.047,0.024l0.047,0.029l0.045,0.032l0.044,0.036l0.043,0.039l0.042,0.042l0.04,0.044l0.039,0.045l0.038,0.047l0.036,0.048l0.034,0.048l0.033,0.049l0.134,0.333l0.441,1.187l0.441,1.187l0.441,1.188l0.441,1.187l0.441,1.187l0.882,2.375l0.441,1.188l0.441,1.187l0.441,1.187l0.882,2.375l0.441,1.188" style="fill:url(#_Linear18);fill-rule:nonzero;stroke:#000;stroke-width:0.3px;"/><path d="M14.467,212.307l0.934,-0.989" style="fill:url(#_Linear19);fill-rule:nonzero;stroke:#000;stroke-width:0.3px;"/><path d="M15.401,211.318l1.702,0" style="fill:url(#_Linear20);fill-rule:nonzero;stroke:#000;stroke-width:0.3px;"/><path d="M17.307,234.293l-0.132,-18.25" style="fill:url(#_Linear21);fill-rule:nonzero;stroke:#000;stroke-width:0.3px;"/><path d="M17.175,216.043l-1.635,-2.213" style="fill:url(#_Linear22);fill-rule:nonzero;stroke:#000;stroke-width:0.3px;"/><path d="M17.175,216.043l0.781,-2.023" style="fill:url(#_Linear23);fill-rule:nonzero;stroke:#000;stroke-width:0.3px;"/><path d="M15.54,213.83l-0.139,-2.512" style="fill:url(#_Linear24);fill-rule:nonzero;stroke:#000;stroke-width:0.3px;stroke-linecap:round;"/><path d="M17.829,249.902l-0.464,0" style="fill:url(#_Linear25);fill-rule:nonzero;stroke:#000;stroke-width:0.3px;"/><path d="M17.886,250.398l-0.521,0" style="fill:url(#_Linear26);fill-rule:nonzero;stroke:#000;stroke-width:0.3px;"/><path d="M18.827,249.829l-0.09,-1.137l-0.089,-1.136l-0.09,-1.136l-0.089,-1.136l-0.09,-1.137l-0.09,-1.136l-0.089,-1.136l-0.09,-1.137l-0.089,-1.136l-0.09,-1.136l-0.09,-1.136l-0.089,-1.137l-0.09,-1.136l-0.037,-0.361l-0.025,-0.09l-0.03,-0.077l-0.034,-0.065l-0.038,-0.054l-0.041,-0.043l-0.043,-0.033l-0.046,-0.023l-0.048,-0.015l-0.048,-0.007l-0.05,0l-0.05,0.007l-0.049,0.014l-0.049,0.019l-0.048,0.024l-0.046,0.029l-0.046,0.032l-0.044,0.036l-0.043,0.039l-0.041,0.042l-0.041,0.044l-0.039,0.045l-0.037,0.047l-0.036,0.048l-0.035,0.048l-0.032,0.049l-0.134,0.333l-0.441,1.187l-0.441,1.187l-0.441,1.188l-0.441,1.187l-0.441,1.187l-0.441,1.188l-0.441,1.187l-0.441,1.188l-0.441,1.187l-0.441,1.187l-0.441,1.188l-0.441,1.187l-0.441,1.188" style="fill:url(#_Linear27);fill-rule:nonzero;stroke:#000;stroke-width:0.3px;"/></g><rect x="3.049" y="64.632" width="14.432" height="27.283" style="fill:url(#_Linear28);fill-rule:nonzero;"/><g><path d="M3.025,95.746l-0.023,-4.848l0.804,-1.182l-0.024,-1.277l0.639,-1.205l0.212,-0.686l0.52,-0.189l0.521,0.047l0.307,0.095l0.284,0.756l0.165,0.828l0.024,0.709l0,0.757l-0.071,0.544l0.615,0.685l0,4.895l-0.473,0.094l-3.5,-0.023Z" style="fill:#fff;"/><path d="M6.52,90.9l0,4.865l-3.498,0l0,-4.846l0.706,-1.223l1.672,0l1.12,1.204Z" style="fill:none;stroke:#000;stroke-width:0.23px;stroke-linecap:square;stroke-linejoin:round;"/><path d="M5.952,89.696l-2.146,0.02l-0.024,-1.277l0.582,-1.117l0.284,-0.736c0.373,-0.221 0.83,-0.218 1.337,-0.083c0.502,1.142 0.55,2.346 0.385,3.577" style="fill:url(#_Radial29);stroke:#000;stroke-width:0.23px;stroke-linecap:square;stroke-linejoin:round;"/><path d="M3.779,95.665l0,-5.936l0,-1.237l0.585,-1.17c0.684,-0.322 1.265,-0.202 1.772,0.234l-0.084,2.19" style="fill:none;stroke:#000;stroke-width:0.23px;stroke-linecap:square;stroke-linejoin:round;"/><path d="M5.325,89.729l0,5.936" style="fill:none;stroke:#000;stroke-width:0.23px;stroke-linecap:square;stroke-linejoin:round;"/><path d="M5.384,89.713l0.568,-0.017l1.037,1.12l0,4.895l-0.476,0.046" style="fill:none;stroke:#000;stroke-width:0.23px;stroke-linecap:square;stroke-linejoin:round;"/><path d="M5.434,89.679l0.016,-1.204l0.652,-0.836" style="fill:none;stroke:#000;stroke-width:0.23px;stroke-linecap:square;stroke-linejoin:round;"/><path d="M3.812,88.392c0.614,-0.251 1.141,-0.211 1.622,-0.017" style="fill:none;stroke:#000;stroke-width:0.23px;stroke-linecap:round;stroke-linejoin:round;"/><g><path d="M5.319,95.746l1.182,-1.183" style="fill:#fff;"/><path d="M5.319,95.746l1.158,-1.277" style="fill:#fff;stroke:#000;stroke-width:0.23px;stroke-linecap:round;stroke-linejoin:round;"/><path d="M4.255,95.746l2.199,-2.791" style="fill:#fff;stroke:#000;stroke-width:0.23px;stroke-linecap:round;stroke-linejoin:round;"/><path d="M6.477,91.537l-3.286,4.185" style="fill:#fff;stroke:#000;stroke-width:0.23px;stroke-linecap:round;stroke-linejoin:round;"/><path d="M6.146,90.591l-3.097,3.972" style="fill:#fff;stroke:#000;stroke-width:0.23px;stroke-linecap:round;stroke-linejoin:round;"/><path d="M5.555,89.882l-2.482,3.263" style="fill:#fff;stroke:#000;stroke-width:0.23px;stroke-linecap:round;stroke-linejoin:round;"/><path d="M4.539,89.763l-1.508,1.933" style="fill:#fff;stroke:#000;stroke-width:0.23px;stroke-linecap:round;stroke-linejoin:round;"/><path d="M4.775,95.698l-1.75,-2.482" style="fill:#fff;stroke:#000;stroke-width:0.23px;stroke-linecap:round;stroke-linejoin:round;"/><path d="M3.073,94.587l0.733,1.159" style="fill:#fff;stroke:#000;stroke-width:0.23px;stroke-linecap:round;stroke-linejoin:round;"/><path d="M5.946,95.708l-2.897,-3.793" style="fill:#fff;stroke:#000;stroke-width:0.23px;stroke-linecap:round;stroke-linejoin:round;"/><path d="M6.454,94.965l-3.31,-4.208" style="fill:#fff;stroke:#000;stroke-width:0.23px;stroke-linecap:round;stroke-linejoin:round;"/><path d="M6.501,93.523l-2.932,-3.452" style="fill:#fff;stroke:#000;stroke-width:0.23px;stroke-linecap:round;stroke-linejoin:round;"/><path d="M6.525,92.152l-2.128,-2.412" style="fill:#fff;stroke:#000;stroke-width:0.23px;stroke-linecap:round;stroke-linejoin:round;"/></g></g><g><path d="M17.578,95.746l0.024,-4.848l-0.804,-1.182l0.023,-1.277l-0.638,-1.205l-0.213,-0.686l-0.52,-0.189l-0.52,0.047l-0.308,0.095l-0.283,0.756l-0.166,0.828l-0.023,0.709l0,0.757l0.07,0.544l-0.614,0.685l0,4.895l0.473,0.094l3.499,-0.023Z" style="fill:#fff;"/><path d="M14.083,90.9l0,4.865l3.498,0l0,-4.846l-0.706,-1.223l-1.672,0l-1.12,1.204Z" style="fill:none;stroke:#000;stroke-width:0.23px;stroke-linecap:square;stroke-linejoin:round;"/><path d="M15.278,89.729l0,5.936" style="fill:none;stroke:#000;stroke-width:0.23px;stroke-linecap:square;stroke-linejoin:round;"/><path d="M15.22,89.713l-0.569,-0.017l-1.036,1.12l0,4.895l0.475,0.046" style="fill:none;stroke:#000;stroke-width:0.23px;stroke-linecap:square;stroke-linejoin:round;"/><path d="M15.284,95.746l-1.182,-1.183" style="fill:#fff;"/><g><path d="M14.651,89.696l2.147,0.02l0.023,-1.277l-0.64,-1.303l-0.226,-0.55c-0.373,-0.221 -0.83,-0.218 -1.337,-0.083c-0.501,1.142 -0.55,2.346 -0.385,3.577" style="fill:url(#_Radial30);stroke:#000;stroke-width:0.23px;stroke-linecap:square;stroke-linejoin:round;"/><path d="M15.284,95.746l-1.158,-1.277" style="fill:#fff;stroke:#000;stroke-width:0.23px;stroke-linecap:round;stroke-linejoin:round;"/><path d="M16.825,95.665l0,-5.936l0,-1.237l-0.585,-1.17c-0.685,-0.322 -1.266,-0.202 -1.773,0.234l0.084,2.19" style="fill:none;stroke:#000;stroke-width:0.23px;stroke-linecap:square;stroke-linejoin:round;"/><path d="M16.348,95.746l-2.198,-2.791" style="fill:#fff;stroke:#000;stroke-width:0.23px;stroke-linecap:round;stroke-linejoin:round;"/><path d="M15.17,89.679l-0.017,-1.204l-0.652,-0.836" style="fill:none;stroke:#000;stroke-width:0.23px;stroke-linecap:square;stroke-linejoin:round;"/><path d="M14.126,91.537l3.286,4.185" style="fill:#fff;stroke:#000;stroke-width:0.23px;stroke-linecap:round;stroke-linejoin:round;"/><path d="M14.457,90.591l3.097,3.972" style="fill:#fff;stroke:#000;stroke-width:0.23px;stroke-linecap:round;stroke-linejoin:round;"/><path d="M15.048,89.882l2.483,3.263" style="fill:#fff;stroke:#000;stroke-width:0.23px;stroke-linecap:round;stroke-linejoin:round;"/><path d="M16.065,89.763l1.507,1.933" style="fill:#fff;stroke:#000;stroke-width:0.23px;stroke-linecap:round;stroke-linejoin:round;"/><path d="M15.828,95.698l1.75,-2.482" style="fill:#fff;stroke:#000;stroke-width:0.23px;stroke-linecap:round;stroke-linejoin:round;"/><path d="M17.531,94.587l-0.733,1.159" style="fill:#fff;stroke:#000;stroke-width:0.23px;stroke-linecap:round;stroke-linejoin:round;"/><path d="M16.791,88.392c-0.614,-0.251 -1.141,-0.211 -1.621,-0.017" style="fill:none;stroke:#000;stroke-width:0.23px;stroke-linecap:round;stroke-linejoin:round;"/><path d="M14.657,95.708l2.897,-3.793" style="fill:#fff;stroke:#000;stroke-width:0.23px;stroke-linecap:round;stroke-linejoin:round;"/><path d="M14.15,94.965l3.31,-4.208" style="fill:#fff;stroke:#000;stroke-width:0.23px;stroke-linecap:round;stroke-linejoin:round;"/><path d="M14.102,93.523l2.932,-3.452" style="fill:#fff;stroke:#000;stroke-width:0.23px;stroke-linecap:round;stroke-linejoin:round;"/><path d="M14.079,92.152l2.128,-2.412" style="fill:#fff;stroke:#000;stroke-width:0.23px;stroke-linecap:round;stroke-linejoin:round;"/></g></g><path d="M11.352,149.756l-2.927,0l-0.109,0.081l0,2.604l0.811,0l0,-0.976l0.077,-0.069l2.148,0c0.542,0 0.796,-0.146 0.796,-0.521l0,-0.598c0,-0.375 -0.254,-0.521 -0.796,-0.521m0,0.963c0,0.176 -0.117,0.213 -0.371,0.213l-1.768,0l-0.087,-0.084l0,-0.558l0.078,-0.07l1.777,0c0.254,0 0.371,0.036 0.371,0.213l0,0.286l0,0Z" style="fill:#005288;fill-rule:nonzero;"/><path d="M9.657,155.678l0.697,1.022l-0.039,0.099l-1.542,0l-0.393,0.484l2.295,0l0.159,0.097l0.356,0.491l0.928,0l-2.033,-2.719" style="fill:#005288;fill-rule:nonzero;"/><g><path d="M9.224,169.244l0,-0.722l0.083,-0.072l1.551,0l0,-0.461l-2.458,0l0,1.784l3.626,0l0,-0.458l-2.715,0" style="fill:#005288;fill-rule:nonzero;"/><rect x="8.4" y="167.088" width="3.665" height="0.506" style="fill:#005288;fill-rule:nonzero;"/></g><path d="M9.211,161.489l2.953,0c-0.046,-0.375 -0.279,-0.48 -0.869,-0.48l-2.115,0c-0.667,0 -0.879,0.131 -0.879,0.635l0,1.416c0,0.505 0.212,0.635 0.879,0.635l2.115,0c0.599,0 0.829,-0.112 0.844,-0.502l-2.928,0l-0.086,-0.081l0,-1.568" style="fill:#005288;fill-rule:nonzero;"/><path d="M11.32,144.616l-2.148,0l-0.063,-0.07l0,-0.459l0.063,-0.049l2.895,0l0.04,-0.097c-0.099,-0.253 -0.354,-0.372 -0.828,-0.372l-2.012,0c-0.666,0 -0.879,0.131 -0.879,0.635l0,0.297c0,0.505 0.213,0.635 0.879,0.635l2.143,0l0.068,0.059l0,0.481l-0.055,0.075l-2.452,0l0,-0.003l-0.642,0c0,0 -0.073,0.037 -0.07,0.054c0.054,0.353 0.295,0.453 0.871,0.453l2.19,0c0.666,0 0.886,-0.13 0.886,-0.635l0,-0.37c0,-0.504 -0.22,-0.634 -0.886,-0.634" style="fill:#005288;fill-rule:nonzero;"/><path d="M9.252,173.313l-1.205,0l-0.066,0.125l1.339,0.976c0.254,-0.147 0.53,-0.296 0.83,-0.443" style="fill:#005288;fill-rule:nonzero;"/><path d="M10.333,175.152l1.176,0.858l1.221,0l0.05,-0.114l-1.757,-1.286c-0.233,0.172 -0.464,0.352 -0.69,0.542" style="fill:#005288;fill-rule:nonzero;"/><path d="M9.073,176.008l-1.091,0l-0.092,-0.144c0.742,-0.716 4.128,-3.408 8.536,-3.75c0,0 -3.856,0.428 -7.353,3.894" style="fill:#a7a9ac;fill-rule:nonzero;"/><g><rect x="6.806" y="108.749" width="6.96" height="3.912" style="fill:#b22234;fill-rule:nonzero;"/><path d="M6.806,109.2l6.96,0m0,0.602l-6.96,0m0,0.602l6.96,0m0,0.602l-6.96,0m0,0.602l6.96,0m0,0.601l-6.96,0" style="fill-rule:nonzero;stroke:#fff;stroke-width:0.29px;"/><rect x="6.806" y="108.749" width="2.784" height="2.107" style="fill:#3c3b6e;fill-rule:nonzero;"/><g><path d="M7.038,108.839l0.066,0.218l-0.174,-0.135l0.215,0l-0.174,0.135l0.067,-0.218Z" style="fill:#fff;fill-rule:nonzero;"/><path d="M7.038,109.26l0.066,0.218l-0.174,-0.134l0.215,0l-0.174,0.134l0.067,-0.218Z" style="fill:#fff;fill-rule:nonzero;"/><path d="M7.038,109.682l0.066,0.217l-0.174,-0.134l0.215,0l-0.174,0.134l0.067,-0.217Z" style="fill:#fff;fill-rule:nonzero;"/><path d="M7.038,110.103l0.066,0.218l-0.174,-0.135l0.215,0l-0.174,0.135l0.067,-0.218Z" style="fill:#fff;fill-rule:nonzero;"/><path d="M7.038,110.524l0.066,0.218l-0.174,-0.135l0.215,0l-0.174,0.135l0.067,-0.218Z" style="fill:#fff;fill-rule:nonzero;"/><g><path d="M7.27,109.05l0.066,0.217l-0.174,-0.134l0.215,0l-0.174,0.134l0.067,-0.217Z" style="fill:#fff;fill-rule:nonzero;"/><path d="M7.27,109.471l0.066,0.218l-0.174,-0.135l0.215,0l-0.174,0.135l0.067,-0.218Z" style="fill:#fff;fill-rule:nonzero;"/><path d="M7.27,109.892l0.066,0.218l-0.174,-0.135l0.215,0l-0.174,0.135l0.067,-0.218Z" style="fill:#fff;fill-rule:nonzero;"/><path d="M7.27,110.314l0.066,0.217l-0.174,-0.134l0.215,0l-0.174,0.134l0.067,-0.217Z" style="fill:#fff;fill-rule:nonzero;"/></g><g><path d="M7.502,108.839l0.066,0.218l-0.174,-0.135l0.215,0l-0.174,0.135l0.067,-0.218Z" style="fill:#fff;fill-rule:nonzero;"/><path d="M7.502,109.26l0.066,0.218l-0.174,-0.134l0.215,0l-0.174,0.134l0.067,-0.218Z" style="fill:#fff;fill-rule:nonzero;"/><path d="M7.502,109.682l0.066,0.217l-0.174,-0.134l0.215,0l-0.174,0.134l0.067,-0.217Z" style="fill:#fff;fill-rule:nonzero;"/><path d="M7.502,110.103l0.066,0.218l-0.174,-0.135l0.215,0l-0.174,0.135l0.067,-0.218Z" style="fill:#fff;fill-rule:nonzero;"/><path d="M7.502,110.524l0.066,0.218l-0.174,-0.135l0.215,0l-0.174,0.135l0.067,-0.218Z" style="fill:#fff;fill-rule:nonzero;"/></g><g><path d="M7.734,109.05l0.066,0.217l-0.174,-0.134l0.215,0l-0.174,0.134l0.067,-0.217Z" style="fill:#fff;fill-rule:nonzero;"/><path d="M7.734,109.471l0.066,0.218l-0.174,-0.135l0.215,0l-0.174,0.135l0.067,-0.218Z" style="fill:#fff;fill-rule:nonzero;"/><path d="M7.734,109.892l0.066,0.218l-0.174,-0.135l0.215,0l-0.174,0.135l0.067,-0.218Z" style="fill:#fff;fill-rule:nonzero;"/><path d="M7.734,110.314l0.066,0.217l-0.174,-0.134l0.215,0l-0.174,0.134l0.067,-0.217Z" style="fill:#fff;fill-rule:nonzero;"/></g><g><path d="M7.966,108.839l0.066,0.218l-0.174,-0.135l0.215,0l-0.174,0.135l0.067,-0.218Z" style="fill:#fff;fill-rule:nonzero;"/><path d="M7.966,109.26l0.066,0.218l-0.174,-0.134l0.215,0l-0.174,0.134l0.067,-0.218Z" style="fill:#fff;fill-rule:nonzero;"/><path d="M7.966,109.682l0.066,0.217l-0.174,-0.134l0.215,0l-0.174,0.134l0.067,-0.217Z" style="fill:#fff;fill-rule:nonzero;"/><path d="M7.966,110.103l0.066,0.218l-0.174,-0.135l0.215,0l-0.174,0.135l0.067,-0.218Z" style="fill:#fff;fill-rule:nonzero;"/><path d="M7.966,110.524l0.066,0.218l-0.174,-0.135l0.215,0l-0.174,0.135l0.067,-0.218Z" style="fill:#fff;fill-rule:nonzero;"/></g><g><path d="M8.198,109.05l0.066,0.217l-0.174,-0.134l0.215,0l-0.174,0.134l0.067,-0.217Z" style="fill:#fff;fill-rule:nonzero;"/><path d="M8.198,109.471l0.066,0.218l-0.174,-0.135l0.215,0l-0.174,0.135l0.067,-0.218Z" style="fill:#fff;fill-rule:nonzero;"/><path d="M8.198,109.892l0.066,0.218l-0.174,-0.135l0.215,0l-0.174,0.135l0.067,-0.218Z" style="fill:#fff;fill-rule:nonzero;"/><path d="M8.198,110.314l0.066,0.217l-0.174,-0.134l0.215,0l-0.174,0.134l0.067,-0.217Z" style="fill:#fff;fill-rule:nonzero;"/></g><g><path d="M8.43,108.839l0.066,0.218l-0.174,-0.135l0.215,0l-0.174,0.135l0.067,-0.218Z" style="fill:#fff;fill-rule:nonzero;"/><path d="M8.43,109.26l0.066,0.218l-0.174,-0.134l0.215,0l-0.174,0.134l0.067,-0.218Z" style="fill:#fff;fill-rule:nonzero;"/><path d="M8.43,109.682l0.066,0.217l-0.174,-0.134l0.215,0l-0.174,0.134l0.067,-0.217Z" style="fill:#fff;fill-rule:nonzero;"/><path d="M8.43,110.103l0.066,0.218l-0.174,-0.135l0.215,0l-0.174,0.135l0.067,-0.218Z" style="fill:#fff;fill-rule:nonzero;"/><path d="M8.43,110.524l0.066,0.218l-0.174,-0.135l0.215,0l-0.174,0.135l0.067,-0.218Z" style="fill:#fff;fill-rule:nonzero;"/></g><g><path d="M8.662,109.05l0.066,0.217l-0.174,-0.134l0.215,0l-0.174,0.134l0.067,-0.217Z" style="fill:#fff;fill-rule:nonzero;"/><path d="M8.662,109.471l0.066,0.218l-0.174,-0.135l0.215,0l-0.174,0.135l0.067,-0.218Z" style="fill:#fff;fill-rule:nonzero;"/><path d="M8.662,109.892l0.066,0.218l-0.174,-0.135l0.215,0l-0.174,0.135l0.067,-0.218Z" style="fill:#fff;fill-rule:nonzero;"/><path d="M8.662,110.314l0.066,0.217l-0.174,-0.134l0.215,0l-0.174,0.134l0.067,-0.217Z" style="fill:#fff;fill-rule:nonzero;"/></g><g><path d="M8.894,108.839l0.066,0.218l-0.174,-0.135l0.215,0l-0.174,0.135l0.067,-0.218Z" style="fill:#fff;fill-rule:nonzero;"/><path d="M8.894,109.26l0.066,0.218l-0.174,-0.134l0.215,0l-0.174,0.134l0.067,-0.218Z" style="fill:#fff;fill-rule:nonzero;"/><path d="M8.894,109.682l0.066,0.217l-0.174,-0.134l0.215,0l-0.174,0.134l0.067,-0.217Z" style="fill:#fff;fill-rule:nonzero;"/><path d="M8.894,110.103l0.066,0.218l-0.174,-0.135l0.215,0l-0.174,0.135l0.067,-0.218Z" style="fill:#fff;fill-rule:nonzero;"/><path d="M8.894,110.524l0.066,0.218l-0.174,-0.135l0.215,0l-0.174,0.135l0.067,-0.218Z" style="fill:#fff;fill-rule:nonzero;"/></g><g><path d="M9.126,109.05l0.066,0.217l-0.174,-0.134l0.215,0l-0.174,0.134l0.067,-0.217Z" style="fill:#fff;fill-rule:nonzero;"/><path d="M9.126,109.471l0.066,0.218l-0.174,-0.135l0.215,0l-0.174,0.135l0.067,-0.218Z" style="fill:#fff;fill-rule:nonzero;"/><path d="M9.126,109.892l0.066,0.218l-0.174,-0.135l0.215,0l-0.174,0.135l0.067,-0.218Z" style="fill:#fff;fill-rule:nonzero;"/><path d="M9.126,110.314l0.066,0.217l-0.174,-0.134l0.215,0l-0.174,0.134l0.067,-0.217Z" style="fill:#fff;fill-rule:nonzero;"/></g><g><path d="M9.358,108.839l0.066,0.218l-0.174,-0.135l0.215,0l-0.174,0.135l0.067,-0.218Z" style="fill:#fff;fill-rule:nonzero;"/><path d="M9.358,109.26l0.066,0.218l-0.174,-0.134l0.215,0l-0.174,0.134l0.067,-0.218Z" style="fill:#fff;fill-rule:nonzero;"/><path d="M9.358,109.682l0.066,0.217l-0.174,-0.134l0.215,0l-0.174,0.134l0.067,-0.217Z" style="fill:#fff;fill-rule:nonzero;"/><path d="M9.358,110.103l0.066,0.218l-0.174,-0.135l0.215,0l-0.174,0.135l0.067,-0.218Z" style="fill:#fff;fill-rule:nonzero;"/><path d="M9.358,110.524l0.066,0.218l-0.174,-0.135l0.215,0l-0.174,0.135l0.067,-0.218Z" style="fill:#fff;fill-rule:nonzero;"/></g></g></g><g><g><path d="M8.279,102.894c0.232,-0.125 0.467,-0.246 0.712,-0.342c-2.777,-1.462 -2.933,-2.56 -3.504,-3.716c0.44,1.338 0.807,2.675 2.792,4.058Z" style="fill:#a80126;"/><path d="M6.832,100.701c1.058,0.884 1.976,1.515 2.654,1.707c0.67,-0.358 2.886,-0.552 2.838,-0.048c-0.485,-0.239 -0.773,-0.125 -1.048,-0.037c0.138,-0.002 0.503,-0.042 0.613,-0.004c-0.044,0.054 -0.093,0.077 -0.143,0.108c0.179,0.039 0.349,0.09 0.49,0.174c0.091,-0.008 0.151,-0.006 0.179,0.022c-0.094,0.025 -0.206,0.144 -0.261,0.226c0.616,0.017 1.272,0.011 1.341,0.66c0.194,-0.575 -0.153,-0.874 -0.831,-1.004c-0.088,-0.197 -0.231,-0.366 -0.37,-0.556c-1.851,-0.103 -3.7,-0.229 -5.462,-1.248Z" style="fill:#a80126;"/></g><path d="M5.38,105.177l0,-1.121l0.75,0c-0.03,0.039 -0.055,0.079 -0.119,0.105l-0.469,0l0,0.295l0.419,0c-0.024,0.035 -0.05,0.068 -0.095,0.083l-0.324,0l0,0.399c-0.034,0.091 -0.08,0.176 -0.162,0.239Z"/><path d="M7.404,104.172l0,0.82l0.213,0l0,-0.772c-0.289,-0.262 -0.577,-0.262 -0.865,0l0,0.772l0.192,0l0,-0.453l0.152,0c0.036,-0.018 0.06,-0.04 0.075,-0.065l-0.224,0l0,-0.299c0.172,-0.117 0.308,-0.117 0.457,-0.003l0,0Z"/><path d="M9.627,105.019l-0.865,0l0,-0.945l0.216,0l0,0.867l0.761,0c-0.032,0.03 -0.048,0.068 -0.112,0.078Z"/><path d="M10.919,104.057l0,0.185c-0.348,0.471 0.244,1.036 0.91,0.622l0.05,-0.011c-0.413,0.466 -1.925,0.088 -0.96,-0.796l0,0Z"/><path d="M10.462,104.081l0,0.342c0.332,-0.598 0.792,-0.896 2.201,-0.499c-1.352,-0.531 -1.853,-0.253 -2.201,0.157Z"/><path d="M13.088,103.982c-0.283,0.005 -0.566,0.193 -0.564,0.551c0.003,0.714 1.127,0.751 1.127,0c0.001,-0.376 -0.281,-0.555 -0.563,-0.551Zm-0.003,0.075c0.167,-0.002 0.336,0.155 0.337,0.476c0.003,0.641 -0.664,0.626 -0.668,0c-0.002,-0.314 0.164,-0.474 0.331,-0.476Z"/><path d="M14.703,104.175l0,0.851l-0.168,0l0,-0.894l0.169,-0.081l-0.001,0.038c0.26,-0.005 0.441,0.114 0.489,0.179l0,0.766l-0.164,0l0,-0.752c-0.06,-0.1 -0.128,-0.126 -0.325,-0.128l0,0.021Z"/><path d="M10.299,105.684c-1.738,0.008 -1.288,1.402 -0.327,1.374c0.448,-0.012 0.533,-0.059 0.833,-0.38c-0.188,0.94 -0.826,0.94 -1.594,1.015c-0.096,0.063 -0.116,0.077 -0.182,0.178c1.304,-0.026 2.398,-0.258 2.366,-1.27c-0.023,-0.708 -0.497,-0.92 -1.096,-0.917Zm-0.026,0.169c0,0 0,0 0,0c0.315,0 0.574,0.203 0.574,0.451c0,0 0,0 0,0c-0.001,0.247 -0.26,0.45 -0.574,0.45c-0.314,-0.001 -0.572,-0.204 -0.572,-0.45c-0.001,-0.248 0.258,-0.451 0.572,-0.451Z"/></g><g><rect x="3.233" y="17.289" width="14.142" height="11.513" style="fill:#fff;fill-rule:nonzero;"/><g><rect x="3.376" y="17.298" width="7.013" height="11.5" style="fill:url(#_Linear31);fill-rule:nonzero;"/><rect x="10.285" y="17.295" width="6.911" height="11.496" style="fill:url(#_Linear32);fill-rule:nonzero;"/></g></g><path d="M17.958,16.508l0.009,-0.105l0.002,-0.105l-0.005,-0.106l-0.012,-0.105l-0.088,-0.339l-0.201,-0.733l-0.202,-0.732l-0.201,-0.732l-0.202,-0.732l-0.201,-0.732l-0.202,-0.733l-0.201,-0.732l-0.202,-0.732l-0.201,-0.732l-0.202,-0.732l-0.201,-0.732l-0.202,-0.733l-0.201,-0.732l-0.202,-0.732l-0.059,-0.184l-0.049,-0.135l-0.054,-0.143l-0.06,-0.149l-0.065,-0.155l-0.069,-0.159l-0.074,-0.162l-0.079,-0.164l-0.083,-0.166l-0.088,-0.165l-0.091,-0.165l-0.095,-0.163l-0.1,-0.159l-0.102,-0.156l-0.106,-0.151l-0.11,-0.145l-0.112,-0.139l-0.115,-0.134l-0.118,-0.128l-0.12,-0.123l-0.122,-0.117l-0.124,-0.112l-0.126,-0.106l-0.127,-0.101l-0.128,-0.096l-0.129,-0.091l-0.129,-0.085l-0.13,-0.08l-0.13,-0.075l-0.13,-0.07l-0.13,-0.065l-0.13,-0.061l-0.129,-0.055l-0.13,-0.05l-0.128,-0.046l-0.129,-0.041l-0.128,-0.036l-0.127,-0.032l-0.127,-0.027l-0.127,-0.023l-0.125,-0.019l-0.125,-0.014l-0.125,-0.011l-0.123,0l-0.124,0.011l-0.125,0.014l-0.126,0.019l-0.126,0.023l-0.127,0.027l-0.128,0.032l-0.128,0.036l-0.128,0.041l-0.129,0.046l-0.129,0.05l-0.13,0.055l-0.13,0.061l-0.13,0.065l-0.13,0.07l-0.13,0.075l-0.13,0.08l-0.129,0.085l-0.129,0.091l-0.128,0.096l-0.127,0.101l-0.126,0.106l-0.123,0.112l-0.123,0.117l-0.12,0.123l-0.117,0.128l-0.116,0.134l-0.112,0.139l-0.109,0.145l-0.107,0.151l-0.102,0.156l-0.099,0.159l-0.096,0.163l-0.091,0.165l-0.088,0.165l-0.083,0.166l-0.078,0.164l-0.075,0.162l-0.069,0.159l-0.065,0.155l-0.06,0.149l-0.054,0.143l-0.049,0.135l-0.059,0.184l-0.201,0.732l-0.202,0.732l-0.201,0.733l-0.202,0.732l-0.202,0.732l-0.201,0.732l-0.202,0.732l-0.201,0.732l-0.202,0.733l-0.201,0.732l-0.202,0.732l-0.201,0.732l-0.202,0.732l-0.201,0.733l-0.087,0.339l-0.013,0.105l-0.005,0.106l0.002,0.105l0.009,0.105" style="fill:url(#_Radial33);fill-rule:nonzero;"/><path d="M3.929,17.482c0,-0.025 -0.036,-0.059 -0.11,-0.104c-0.06,-0.037 -0.14,-0.102 -0.177,-0.144c-0.077,-0.086 -0.163,-0.287 -0.186,-0.431c-0.026,-0.167 -0.047,-0.21 -0.126,-0.253c-0.147,-0.081 -0.295,-0.11 -0.508,-0.1l-0.201,0.01l0.006,-0.076l0.005,-0.076l15.248,0l0.01,0.152l-0.2,-0.01c-0.213,-0.01 -0.361,0.019 -0.508,0.1c-0.079,0.043 -0.101,0.086 -0.127,0.253c-0.022,0.144 -0.109,0.345 -0.185,0.431c-0.037,0.042 -0.117,0.107 -0.178,0.144c-0.074,0.045 -0.11,0.079 -0.11,0.104c0,0.036 -0.264,0.038 -6.326,0.038c-6.061,0 -6.326,-0.001 -6.326,-0.038l-0.001,0Z" style="fill:#ececec;fill-rule:nonzero;"/><path d="M17.958,16.659l0.009,-0.105l0.002,-0.105l-0.005,-0.106l-0.012,-0.104l-0.088,-0.34l-0.201,-0.732l-0.202,-0.733l-0.201,-0.732l-0.202,-0.732l-0.201,-0.732l-0.202,-0.732l-0.201,-0.732l-0.202,-0.733l-0.201,-0.732l-0.202,-0.732l-0.201,-0.732l-0.202,-0.732l-0.201,-0.733l-0.202,-0.732l-0.059,-0.183l-0.049,-0.136l-0.054,-0.143l-0.06,-0.149l-0.065,-0.155l-0.069,-0.158l-0.074,-0.163l-0.079,-0.164l-0.083,-0.165l-0.088,-0.166l-0.091,-0.165l-0.095,-0.162l-0.1,-0.16l-0.102,-0.156l-0.106,-0.15l-0.11,-0.145l-0.112,-0.14l-0.115,-0.133l-0.118,-0.128l-0.12,-0.123l-0.122,-0.117l-0.124,-0.112l-0.126,-0.107l-0.127,-0.101l-0.128,-0.096l-0.129,-0.09l-0.129,-0.086l-0.13,-0.08l-0.13,-0.075l-0.13,-0.07l-0.13,-0.065l-0.13,-0.06l-0.129,-0.055l-0.13,-0.051l-0.128,-0.045l-0.129,-0.041l-0.128,-0.037l-0.127,-0.032l-0.127,-0.027l-0.127,-0.023l-0.125,-0.019l-0.125,-0.014l-0.125,-0.01l-0.123,0l-0.124,0.01l-0.125,0.014l-0.126,0.019l-0.126,0.023l-0.127,0.027l-0.128,0.032l-0.128,0.037l-0.128,0.041l-0.129,0.045l-0.129,0.051l-0.13,0.055l-0.13,0.06l-0.13,0.065l-0.13,0.07l-0.13,0.075l-0.13,0.08l-0.129,0.086l-0.129,0.09l-0.128,0.096l-0.127,0.101l-0.126,0.107l-0.123,0.112l-0.123,0.117l-0.12,0.123l-0.117,0.128l-0.116,0.133l-0.112,0.14l-0.109,0.145l-0.107,0.15l-0.102,0.156l-0.099,0.16l-0.096,0.162l-0.091,0.165l-0.088,0.166l-0.083,0.165l-0.078,0.164l-0.075,0.163l-0.069,0.158l-0.065,0.155l-0.06,0.149l-0.054,0.143l-0.049,0.136l-0.059,0.183l-0.201,0.732l-0.202,0.733l-0.201,0.732l-0.202,0.732l-0.202,0.732l-0.201,0.732l-0.202,0.733l-0.201,0.732l-0.202,0.732l-0.201,0.732l-0.202,0.732l-0.201,0.732l-0.202,0.733l-0.201,0.732l-0.087,0.34l-0.013,0.104l-0.005,0.106l0.002,0.105l0.009,0.105" style="fill:none;stroke:#000;stroke-width:0.3px;"/><path d="M3.91,28.765l12.775,0" style="fill:none;stroke:#000;stroke-width:0.3px;"/><path d="M3.91,17.431l12.775,0" style="fill:none;stroke:#000;stroke-width:0.3px;"/><path d="M2.655,16.174l15.285,0" style="fill:#f2f2f2;fill-rule:nonzero;stroke:#000;stroke-width:0.3px;"/><path d="M5.571,5.58l9.453,0" style="fill:none;stroke:#000;stroke-width:0.3px;"/><path d="M3.91,28.765l12.775,0" style="fill:none;stroke:#000;stroke-width:0.3px;"/><path d="M16.685,17.318l0,11.855l0.034,0.685l0.198,-0.134l0.187,-0.137l0.176,-0.139l0.164,-0.14l0.153,-0.14l0.14,-0.137l0.127,-0.133l0.115,-0.129l0.101,-0.122l0.088,-0.114l0.075,-0.106l0.06,-0.095l0.045,-0.083l0.031,-0.071l0.012,-0.286l0,-0.748l0,-0.748l0,-0.747l0,-0.748l0,-0.748l0,-0.748l0,-0.748l0,-0.748l0,-0.748l0,-0.748l0,-0.748l0,-0.748l0,-0.748l0,-0.748l-0.016,-0.403l-0.034,-0.05l-0.039,-0.049l-0.042,-0.047l-0.046,-0.045l-0.05,-0.042l-0.053,-0.04l-0.057,-0.036l-0.059,-0.032l-0.062,-0.028l-0.064,-0.024l-0.065,-0.02l-0.067,-0.015l-0.067,-0.01l-0.067,-0.005l-0.067,0l-0.066,0.003l-0.065,0.009l-0.063,0.012l-0.061,0.017l-0.058,0.019l-0.056,0.023l-0.018,0.042l-0.006,0.049l-0.01,0.049l-0.014,0.048l-0.017,0.048l-0.02,0.047l-0.023,0.046l-0.027,0.045l-0.03,0.042l-0.033,0.041l-0.035,0.038l-0.038,0.035l-0.039,0.032l-0.042,0.029l-0.042,0.026l-0.044,0.023l-0.044,0.02l0,0Z" style="fill:url(#_Linear34);fill-rule:nonzero;stroke:#000;stroke-width:0.3px;"/><path d="M3.91,17.318l0,11.855l-0.034,0.685l-0.198,-0.134l-0.187,-0.137l-0.176,-0.139l-0.164,-0.14l-0.153,-0.14l-0.14,-0.137l-0.128,-0.133l-0.114,-0.129l-0.102,-0.122l-0.088,-0.114l-0.074,-0.106l-0.06,-0.095l-0.045,-0.083l-0.031,-0.071l-0.012,-0.286l0,-0.748l0,-0.748l0,-0.747l0,-0.748l0,-0.748l0,-0.748l0,-0.748l0,-0.748l0,-0.748l0,-0.748l0,-0.748l0,-0.748l0,-0.748l0,-0.748l0.015,-0.403l0.035,-0.05l0.038,-0.049l0.043,-0.047l0.046,-0.045l0.05,-0.042l0.053,-0.04l0.056,-0.036l0.06,-0.032l0.062,-0.028l0.063,-0.024l0.066,-0.02l0.066,-0.015l0.068,-0.01l0.067,-0.005l0.067,0l0.066,0.003l0.064,0.009l0.064,0.012l0.06,0.017l0.059,0.019l0.056,0.023l0.017,0.042l0.007,0.049l0.01,0.049l0.013,0.048l0.017,0.048l0.021,0.047l0.023,0.046l0.027,0.045l0.03,0.042l0.033,0.041l0.035,0.038l0.037,0.035l0.04,0.032l0.041,0.029l0.043,0.026l0.043,0.023l0.045,0.02l0,0Z" style="fill:url(#_Linear35);fill-rule:nonzero;stroke:#000;stroke-width:0.3px;"/><g><path d="M7.906,12.778l-0.953,0l-0.036,0.027l0,0.848l0.264,0l0,-0.318l0.025,-0.023l0.7,0c0.177,0 0.26,-0.047 0.26,-0.169l0,-0.195c0,-0.122 -0.083,-0.17 -0.26,-0.17m0,0.314c0,0.057 -0.038,0.069 -0.121,0.069l-0.576,0l-0.028,-0.027l0,-0.182l0.025,-0.023l0.579,0c0.083,0 0.121,0.012 0.121,0.07l0,0.093Z" style="fill:#005288;fill-rule:nonzero;"/><path d="M8.647,12.939l0.227,0.332l-0.013,0.033l-0.502,0l-0.128,0.157l0.748,0l0.051,0.032l0.116,0.16l0.302,0l-0.662,-0.886" style="fill:#005288;fill-rule:nonzero;"/><path d="M11.65,13.481l0,-0.236l0.027,-0.023l0.505,0l0,-0.15l-0.8,0l0,0.581l1.181,0l0,-0.149l-0.885,0" style="fill:#005288;fill-rule:nonzero;"/><rect x="11.382" y="12.778" width="1.194" height="0.165" style="fill:#005288;fill-rule:nonzero;"/><path d="M10.05,12.934l0.962,0c-0.015,-0.122 -0.091,-0.156 -0.283,-0.156l-0.689,0c-0.217,0 -0.286,0.042 -0.286,0.207l0,0.461c0,0.165 0.069,0.207 0.286,0.207l0.689,0c0.195,0 0.27,-0.037 0.275,-0.164l-0.954,0l-0.028,-0.026l0,-0.511" style="fill:#005288;fill-rule:nonzero;"/><path d="M6.276,13.119l-0.7,0l-0.021,-0.023l0,-0.149l0.021,-0.016l0.943,0l0.013,-0.032c-0.032,-0.082 -0.115,-0.121 -0.27,-0.121l-0.655,0c-0.217,0 -0.287,0.042 -0.287,0.207l0,0.097c0,0.164 0.07,0.206 0.287,0.206l0.698,0l0.022,0.02l0,0.156l-0.018,0.025l-0.798,0l0,-0.001l-0.21,0c0,0 -0.024,0.012 -0.023,0.017c0.018,0.115 0.097,0.148 0.284,0.148l0.714,0c0.217,0 0.288,-0.042 0.288,-0.207l0,-0.12c0,-0.165 -0.071,-0.207 -0.288,-0.207" style="fill:#005288;fill-rule:nonzero;"/><path d="M13.326,12.775l-0.392,0l-0.022,0.04l0.436,0.318c0.083,-0.048 0.173,-0.096 0.271,-0.144" style="fill:#005288;fill-rule:nonzero;"/><path d="M13.678,13.373l0.384,0.28l0.397,0l0.016,-0.037l-0.572,-0.419c-0.076,0.056 -0.151,0.115 -0.225,0.176" style="fill:#005288;fill-rule:nonzero;"/><path d="M13.268,13.652l-0.355,0l-0.03,-0.047c0.241,-0.233 1.322,-1.233 3.67,-1.34c0,0 -1.971,0.067 -3.285,1.387" style="fill:#005288;fill-rule:nonzero;"/></g><g><path d="M6.862,23.674c1.208,-0.141 2.724,-0.197 2.777,0.899c0.798,-0.396 1.985,-1.107 3.297,-0.035c0.205,-0.01 0.422,-0.053 0.599,0.023c-0.163,-0.165 -0.252,-0.428 -0.323,-0.715c-0.71,-0.096 -1.327,-0.286 -1.982,-0.438c-0.667,-0.049 -1.335,-0.134 -2.006,-0.276c-0.75,-0.464 -1.269,-1.136 -2.005,-1.637c-0.609,-0.226 -1.129,-0.632 -1.683,-0.968c1.03,0.91 3.15,2.436 1.326,3.147l0,0Z" style="fill:#00006d;"/><path d="M6.056,20.349c1.329,0.633 2.658,1.239 3.988,1.69c0.218,0.184 0.453,0.358 0.912,0.391c0.609,0.684 1.614,1.041 2.023,0.956c0.272,0.114 0.358,0.061 0.457,0.198c0.147,0.203 0.244,0.67 0.275,0.933c-0.125,-0.098 -0.271,-0.253 -0.289,-0.42c-0.065,-0.577 -0.203,-0.525 -0.325,-0.539c-0.191,-0.02 -0.362,-0.003 0.138,0.173l-1.59,-0.323l-1.671,-0.587l-0.266,0.184l0.588,0.184l-0.818,-0.115c-0.746,-0.353 -1.219,-1.001 -1.982,-1.487c0.549,0.199 1.098,0.411 1.648,0.461l-3.088,-1.699Z" style="fill:#00006d;"/></g><g><path d="M9.618,25.944l0.279,-0.01l-0.015,-0.731c-0.35,-0.231 -0.628,-0.236 -0.945,0l-0.005,0.731l0.286,0l-0.015,-0.438l0.155,-0.005c0.038,-0.018 0.07,-0.084 0.085,-0.109l-0.246,0.005l0.005,-0.205c0.185,-0.119 0.407,0.002 0.407,0.002c0,0 0.008,0.563 0.009,0.76l0,0Z"/><path d="M13.037,25.014c-0.269,0.004 -0.591,0.17 -0.59,0.485c0.003,0.628 1.169,0.66 1.169,0c0,-0.331 -0.311,-0.489 -0.579,-0.485Zm0.002,0.08c0.16,-0.002 0.315,0.122 0.316,0.405c0.003,0.54 -0.641,0.551 -0.645,0c-0.002,-0.276 0.17,-0.403 0.329,-0.405Z"/><path d="M14.782,25.966l-0.273,-0.002l0,-0.835c0.07,-0.029 0.241,-0.091 0.271,-0.097l0,0.025c0.373,-0.018 0.574,0.034 0.684,0.132l0.004,0.769l-0.272,0.002l-0.003,-0.738c-0.088,-0.081 -0.132,-0.093 -0.417,-0.073c0,0 0.004,0.56 0.006,0.817l0,0Z"/><path d="M5.106,25.006l0,0.961l0.4,0.004c0.883,-0.007 0.845,-0.951 -0.005,-0.961l-0.395,-0.004Zm0.257,0.084l0.192,0.004c0.45,0.028 0.362,0.78 0.006,0.792l-0.191,0l-0.007,-0.796Z"/><path d="M7.343,25.985l-0.271,-0.003l0.005,-0.955c0,0 0.353,-0.02 0.634,-0.006c0,0 0.146,0.005 0.255,0.057c0.002,0.16 -0.002,0.337 -0.002,0.337c-0.01,0.064 -0.222,0.041 -0.232,0.067c0.01,0.036 0.245,0.001 0.245,0.079l0.001,0.426c0,0 -0.21,-0.001 -0.267,-0.046c-0.005,-0.124 -0.002,-0.401 -0.002,-0.401l-0.141,-0.007c-0.034,-0.015 -0.092,-0.073 -0.104,-0.105l0.244,0.004l0.004,-0.325c-0.172,-0.025 -0.216,-0.028 -0.378,-0.002l0.009,0.88Z"/><path d="M11.149,25.439l0.476,0.005l0.005,0.468c-0.364,0.045 -0.554,0.062 -0.895,0l0,-0.864c0.307,-0.073 0.567,-0.037 0.9,0.004l-0.004,0.187l-0.244,0l0,-0.134c-0.149,-0.052 -0.237,-0.043 -0.396,-0.01l-0.009,0.774c0.169,0.033 0.248,0.042 0.41,0l0,-0.374l-0.196,0c-0.021,-0.011 -0.033,-0.022 -0.047,-0.056l0,0Z"/></g></g></g><defs><linearGradient id="_Linear2" x1="0" y1="0" x2="1" y2="0" gradientUnits="userSpaceOnUse" gradientTransform="matrix(3.39541,0,0,3.76464,5.75642,80.1159)"><stop offset="0" style="stop-color:#000;stop-opacity:0.033654"/><stop offset="1" style="stop-color:#000;stop-opacity:0"/></linearGradient><linearGradient id="_Linear3" x1="0" y1="0" x2="1" y2="0" gradientUnits="userSpaceOnUse" gradientTransform="matrix(-3.34572,0,0,3.70955,14.8496,80.0578)"><stop offset="0" style="stop-color:#000;stop-opacity:0.033654"/><stop offset="1" style="stop-color:#000;stop-opacity:0"/></linearGradient><linearGradient id="_Linear4" x1="0" y1="0" x2="1" y2="0" gradientUnits="userSpaceOnUse" gradientTransform="matrix(9.04957,0,0,9.04957,1.31723,229.613)"><stop offset="0" style="stop-color:#051307;stop-opacity:1"/><stop offset="1" style="stop-color:#050707;stop-opacity:0.498039"/></linearGradient><linearGradient id="_Linear5" x1="0" y1="0" x2="1" y2="0" gradientUnits="userSpaceOnUse" gradientTransform="matrix(9.04957,0,0,9.04957,1.31723,229.613)"><stop offset="0" style="stop-color:#051307;stop-opacity:1"/><stop offset="1" style="stop-color:#050707;stop-opacity:0.498039"/></linearGradient><linearGradient id="_Linear6" x1="0" y1="0" x2="1" y2="0" gradientUnits="userSpaceOnUse" gradientTransform="matrix(9.04957,0,0,9.04957,1.31723,229.613)"><stop offset="0" style="stop-color:#051307;stop-opacity:1"/><stop offset="1" style="stop-color:#050707;stop-opacity:0.498039"/></linearGradient><linearGradient id="_Linear7" x1="0" y1="0" x2="1" y2="0" gradientUnits="userSpaceOnUse" gradientTransform="matrix(9.04957,0,0,9.04957,1.31723,229.613)"><stop offset="0" style="stop-color:#051307;stop-opacity:1"/><stop offset="1" style="stop-color:#050707;stop-opacity:0.498039"/></linearGradient><linearGradient id="_Linear8" x1="0" y1="0" x2="1" y2="0" gradientUnits="userSpaceOnUse" gradientTransform="matrix(9.04957,0,0,9.04957,1.31723,229.613)"><stop offset="0" style="stop-color:#051307;stop-opacity:1"/><stop offset="1" style="stop-color:#050707;stop-opacity:0.498039"/></linearGradient><linearGradient id="_Linear9" x1="0" y1="0" x2="1" y2="0" gradientUnits="userSpaceOnUse" gradientTransform="matrix(9.04957,0,0,9.04957,1.31723,229.613)"><stop offset="0" style="stop-color:#051307;stop-opacity:1"/><stop offset="1" style="stop-color:#050707;stop-opacity:0.498039"/></linearGradient><linearGradient id="_Linear10" x1="0" y1="0" x2="1" y2="0" gradientUnits="userSpaceOnUse" gradientTransform="matrix(9.04957,0,0,9.04957,1.31723,229.613)"><stop offset="0" style="stop-color:#051307;stop-opacity:1"/><stop offset="1" style="stop-color:#050707;stop-opacity:0.498039"/></linearGradient><linearGradient id="_Linear11" x1="0" y1="0" x2="1" y2="0" gradientUnits="userSpaceOnUse" gradientTransform="matrix(9.04957,0,0,9.04957,1.31723,229.613)"><stop offset="0" style="stop-color:#051307;stop-opacity:1"/><stop offset="1" style="stop-color:#050707;stop-opacity:0.498039"/></linearGradient><linearGradient id="_Linear12" x1="0" y1="0" x2="1" y2="0" gradientUnits="userSpaceOnUse" gradientTransform="matrix(9.04957,0,0,9.04957,1.31723,229.613)"><stop offset="0" style="stop-color:#051307;stop-opacity:1"/><stop offset="1" style="stop-color:#050707;stop-opacity:0.498039"/></linearGradient><linearGradient id="_Linear13" x1="0" y1="0" x2="1" y2="0" gradientUnits="userSpaceOnUse" gradientTransform="matrix(9.04957,0,0,9.04957,1.31723,229.613)"><stop offset="0" style="stop-color:#051307;stop-opacity:1"/><stop offset="1" style="stop-color:#050707;stop-opacity:0.498039"/></linearGradient><linearGradient id="_Linear14" x1="0" y1="0" x2="1" y2="0" gradientUnits="userSpaceOnUse" gradientTransform="matrix(9.04957,0,0,9.04957,1.31723,229.613)"><stop offset="0" style="stop-color:#051307;stop-opacity:1"/><stop offset="1" style="stop-color:#050707;stop-opacity:0.498039"/></linearGradient><linearGradient id="_Linear15" x1="0" y1="0" x2="1" y2="0" gradientUnits="userSpaceOnUse" gradientTransform="matrix(9.04957,0,0,9.04957,1.31723,229.613)"><stop offset="0" style="stop-color:#051307;stop-opacity:1"/><stop offset="1" style="stop-color:#050707;stop-opacity:0.498039"/></linearGradient><linearGradient id="_Linear16" x1="0" y1="0" x2="1" y2="0" gradientUnits="userSpaceOnUse" gradientTransform="matrix(9.04957,0,0,9.04957,1.31723,229.613)"><stop offset="0" style="stop-color:#051307;stop-opacity:1"/><stop offset="1" style="stop-color:#050707;stop-opacity:0.498039"/></linearGradient><linearGradient id="_Linear17" x1="0" y1="0" x2="1" y2="0" gradientUnits="userSpaceOnUse" gradientTransform="matrix(9.04957,0,0,9.04957,1.31723,229.613)"><stop offset="0" style="stop-color:#051307;stop-opacity:1"/><stop offset="1" style="stop-color:#050707;stop-opacity:0.498039"/></linearGradient><linearGradient id="_Linear18" x1="0" y1="0" x2="1" y2="0" gradientUnits="userSpaceOnUse" gradientTransform="matrix(9.04957,0,0,9.04957,1.31723,229.613)"><stop offset="0" style="stop-color:#051307;stop-opacity:1"/><stop offset="1" style="stop-color:#050707;stop-opacity:0.498039"/></linearGradient><linearGradient id="_Linear19" x1="0" y1="0" x2="1" y2="0" gradientUnits="userSpaceOnUse" gradientTransform="matrix(9.04957,0,0,9.04957,1.31723,229.613)"><stop offset="0" style="stop-color:#051307;stop-opacity:1"/><stop offset="1" style="stop-color:#050707;stop-opacity:0.498039"/></linearGradient><linearGradient id="_Linear20" x1="0" y1="0" x2="1" y2="0" gradientUnits="userSpaceOnUse" gradientTransform="matrix(9.04957,0,0,9.04957,1.31723,229.613)"><stop offset="0" style="stop-color:#051307;stop-opacity:1"/><stop offset="1" style="stop-color:#050707;stop-opacity:0.498039"/></linearGradient><linearGradient id="_Linear21" x1="0" y1="0" x2="1" y2="0" gradientUnits="userSpaceOnUse" gradientTransform="matrix(9.04957,0,0,9.04957,1.31723,229.613)"><stop offset="0" style="stop-color:#051307;stop-opacity:1"/><stop offset="1" style="stop-color:#050707;stop-opacity:0.498039"/></linearGradient><linearGradient id="_Linear22" x1="0" y1="0" x2="1" y2="0" gradientUnits="userSpaceOnUse" gradientTransform="matrix(9.04957,0,0,9.04957,1.31723,229.613)"><stop offset="0" style="stop-color:#051307;stop-opacity:1"/><stop offset="1" style="stop-color:#050707;stop-opacity:0.498039"/></linearGradient><linearGradient id="_Linear23" x1="0" y1="0" x2="1" y2="0" gradientUnits="userSpaceOnUse" gradientTransform="matrix(9.04957,0,0,9.04957,1.31723,229.613)"><stop offset="0" style="stop-color:#051307;stop-opacity:1"/><stop offset="1" style="stop-color:#050707;stop-opacity:0.498039"/></linearGradient><linearGradient id="_Linear24" x1="0" y1="0" x2="1" y2="0" gradientUnits="userSpaceOnUse" gradientTransform="matrix(9.04957,0,0,9.04957,1.31723,229.613)"><stop offset="0" style="stop-color:#051307;stop-opacity:1"/><stop offset="1" style="stop-color:#050707;stop-opacity:0.498039"/></linearGradient><linearGradient id="_Linear25" x1="0" y1="0" x2="1" y2="0" gradientUnits="userSpaceOnUse" gradientTransform="matrix(9.04957,0,0,9.04957,1.31723,229.613)"><stop offset="0" style="stop-color:#051307;stop-opacity:1"/><stop offset="1" style="stop-color:#050707;stop-opacity:0.498039"/></linearGradient><linearGradient id="_Linear26" x1="0" y1="0" x2="1" y2="0" gradientUnits="userSpaceOnUse" gradientTransform="matrix(9.04957,0,0,9.04957,1.31723,229.613)"><stop offset="0" style="stop-color:#051307;stop-opacity:1"/><stop offset="1" style="stop-color:#050707;stop-opacity:0.498039"/></linearGradient><linearGradient id="_Linear27" x1="0" y1="0" x2="1" y2="0" gradientUnits="userSpaceOnUse" gradientTransform="matrix(9.04957,0,0,9.04957,1.31723,229.613)"><stop offset="0" style="stop-color:#051307;stop-opacity:1"/><stop offset="1" style="stop-color:#050707;stop-opacity:0.498039"/></linearGradient><linearGradient id="_Linear28" x1="0" y1="0" x2="1" y2="0" gradientUnits="userSpaceOnUse" gradientTransform="matrix(-7.0908,-0,-0,-7.0908,17.4813,78.2736)"><stop offset="0" style="stop-color:#000;stop-opacity:1"/><stop offset="1" style="stop-color:#000;stop-opacity:0.623529"/></linearGradient><radialGradient id="_Radial29" cx="0" cy="0" r="1" gradientUnits="userSpaceOnUse" gradientTransform="matrix(1.44992,0,0,1.95614,5.11853,88.2519)"><stop offset="0" style="stop-color:#808080;stop-opacity:1"/><stop offset="1" style="stop-color:#000;stop-opacity:1"/></radialGradient><radialGradient id="_Radial30" cx="0" cy="0" r="1" gradientUnits="userSpaceOnUse" gradientTransform="matrix(-1.45002,0,0,1.95614,15.4848,88.2519)"><stop offset="0" style="stop-color:#808080;stop-opacity:1"/><stop offset="1" style="stop-color:#000;stop-opacity:1"/></radialGradient><linearGradient id="_Linear31" x1="0" y1="0" x2="1" y2="0" gradientUnits="userSpaceOnUse" gradientTransform="matrix(3.39969,0,0,0.196299,5.75066,19.9623)"><stop offset="0" style="stop-color:#000;stop-opacity:0.033654"/><stop offset="1" style="stop-color:#000;stop-opacity:0"/></linearGradient><linearGradient id="_Linear32" x1="0" y1="0" x2="1" y2="0" gradientUnits="userSpaceOnUse" gradientTransform="matrix(-3.34994,0,0,0.193426,14.8553,19.9593)"><stop offset="0" style="stop-color:#000;stop-opacity:0.033654"/><stop offset="1" style="stop-color:#000;stop-opacity:0"/></linearGradient><radialGradient id="_Radial33" cx="0" cy="0" r="1" gradientUnits="userSpaceOnUse" gradientTransform="matrix(3.81056,-0.468136,0.961543,7.82683,10.3205,7.73917)"><stop offset="0" style="stop-color:#f9f9f9;stop-opacity:1"/><stop offset="1" style="stop-color:#f9f9f9;stop-opacity:1"/></radialGradient><linearGradient id="_Linear34" x1="0" y1="0" x2="1" y2="0" gradientUnits="userSpaceOnUse" gradientTransform="matrix(2.00871,0,0,2.00871,16.5336,23.2165)"><stop offset="0" style="stop-color:#fff;stop-opacity:1"/><stop offset="1" style="stop-color:#f2f2f2;stop-opacity:1"/></linearGradient><linearGradient id="_Linear35" x1="0" y1="0" x2="1" y2="0" gradientUnits="userSpaceOnUse" gradientTransform="matrix(2.00872,0,0,2.00872,2.05243,23.2165)"><stop offset="0" style="stop-color:#ececec;stop-opacity:1"/><stop offset="1" style="stop-color:#fff;stop-opacity:1"/></linearGradient></defs></svg>