<?xml version="1.0" encoding="UTF-8" standalone="no"?><!DOCTYPE svg PUBLIC "-//W3C//DTD SVG 1.1//EN" "http://www.w3.org/Graphics/SVG/1.1/DTD/svg11.dtd"><svg width="100%" height="100%" viewBox="0 0 29 374" version="1.1" xmlns="http://www.w3.org/2000/svg" xmlns:xlink="http://www.w3.org/1999/xlink" xml:space="preserve" xmlns:serif="http://www.serif.com/" style="fill-rule:evenodd;clip-rule:evenodd;"><rect id="Artboard1" x="0" y="0" width="28.322" height="373.163" style="fill:none;"/><clipPath id="_clip1"><rect x="0" y="0" width="28.322" height="373.163"/></clipPath><g clip-path="url(#_clip1)"><g><rect x="4.752" y="71.398" width="18.667" height="290.586" style="fill:#fff;fill-rule:nonzero;"/><g><rect x="4.966" y="71.568" width="9.237" height="290.267" style="fill:url(#_Linear2);fill-rule:nonzero;"/><rect x="14.086" y="71.434" width="9.101" height="290.267" style="fill:url(#_Linear3);fill-rule:nonzero;"/></g><rect x="23.451" y="362.381" width="0.481" height="0.475" style="fill:#f7f7f7;fill-rule:nonzero;"/><rect x="4.201" y="362.396" width="0.477" height="0.453" style="fill:#f7f7f7;fill-rule:nonzero;"/><path d="M5.617,366.837c-0.031,-0.055 -0.079,-0.194 -0.079,-0.228l0,-0.026l3.39,0l0.012,0.058c0.026,0.117 0.025,0.143 -0.002,0.19l-0.025,0.044l-1.636,0l-1.635,0l-0.025,-0.044l0,0.006Z" style="fill:#f7f7f7;fill-rule:nonzero;"/><path d="M9.406,366.818c-0.028,-0.057 -0.078,-0.2 -0.078,-0.225c0,-0.01 0.726,-0.01 1.746,-0.01l1.747,0l-0.007,0.03c-0.016,0.07 -0.043,0.147 -0.071,0.203l-0.03,0.059l-1.637,0l-1.637,0l-0.033,-0.064l0,0.007Z" style="fill:#f7f7f7;fill-rule:nonzero;"/><path d="M13.117,366.95c0,0 0.012,-0.039 0.026,-0.075c0.023,-0.059 0.05,-0.159 0.069,-0.256l0.007,-0.036l0.876,0c0.826,0 0.877,0 0.882,0.019c0.003,0.011 0.009,0.042 0.014,0.069c0.004,0.027 0.024,0.101 0.045,0.164c0.02,0.063 0.037,0.116 0.037,0.119c0,0 -0.44,0 -0.978,0c-0.538,0 -0.978,0 -0.978,-0.01l0,0.006Z" style="fill:#f7f7f7;fill-rule:nonzero;"/><path d="M15.45,366.818c-0.029,-0.057 -0.079,-0.2 -0.079,-0.225c0,-0.01 0.726,-0.01 1.746,-0.01c1.301,0 1.745,0 1.745,0.013c0,0.028 -0.046,0.162 -0.075,0.219l-0.03,0.061l-1.638,0l-1.637,0l-0.032,-0.064l0,0.006Z" style="fill:#f7f7f7;fill-rule:nonzero;"/><path d="M19.26,366.845c-0.034,-0.055 -0.036,-0.075 -0.017,-0.166c0.01,-0.046 0.017,-0.087 0.017,-0.09c0,0 0.766,-0.01 1.702,-0.01l1.702,0l-0.007,0.03c-0.015,0.061 -0.051,0.162 -0.078,0.214l-0.027,0.053l-1.635,0l-1.635,0l-0.022,-0.036l0,0.005Z" style="fill:#f7f7f7;fill-rule:nonzero;"/><path d="M4.784,361.95l18.567,0.031l0.01,3.274l-0.698,1.752l-17.167,-0.053l-0.697,-1.753l-0.015,-3.251Z" style="fill:#101010;fill-rule:nonzero;"/><path d="M4.772,362.003l18.647,0" style="fill:none;stroke:#000;stroke-width:0.4px;"/><path d="M5.663,349.756l0.045,-0.141l0.079,-0.155l0.109,-0.162l0.136,-0.16l0.16,-0.152l0.181,-0.137l0.198,-0.114l0.214,-0.083l0.225,-0.045l0.234,0l0.24,0.052l0.243,0.113l0.404,1.055l1.269,3.498l0.422,1.167l0.423,1.166l1.269,3.498l0.423,1.167l0.846,2.332l0.107,0.284l0.02,0.035l0.022,0.033l0.023,0.03l0.025,0.028l0.027,0.026l0.027,0.024l0.029,0.021l0.03,0.019l0.03,0.017l0.032,0.015l0.031,0.013l0.033,0.011l0.065,0.02l0.096,0l0.031,0l0.175,0l0.053,-0.024l0.052,-0.05l0.05,-0.074l0.049,-0.094l0.047,-0.113l0.044,-0.128l0.041,-0.14l0.037,-0.151l0.034,-0.157l0.029,-0.162l0.024,-0.164l-0.193,-1.823l-0.449,-3.816l-0.449,-3.815l-0.449,-3.816l-0.448,-3.815l-0.449,-3.816l-0.449,-3.815l-0.449,-3.815l-0.448,-3.816l-0.449,-3.815l-0.449,-3.816l-0.449,-3.815l-0.294,-2.584l-0.002,-0.251l-0.002,-0.25l-0.002,-0.251l-0.002,-0.251l-0.002,-0.251l-0.002,-0.251l-0.002,-0.25l-0.002,-0.251l-0.002,-0.251l-0.002,-0.251l-0.002,-0.251l-0.01,-0.313l-0.035,-0.488l-0.037,-0.442l-0.037,-0.4l-0.039,-0.36l-0.039,-0.324l-0.04,-0.29l-0.041,-0.26l-0.042,-0.233l-0.042,-0.209l-0.043,-0.189l-0.044,-0.171l-0.045,-0.156l-0.045,-0.144l-0.046,-0.133l-0.047,-0.122l-0.048,-0.111l-0.048,-0.102l-0.048,-0.092l-0.05,-0.083l-0.05,-0.075l-0.051,-0.066l-0.052,-0.059l-0.053,-0.052l-0.053,-0.045l-0.054,-0.039l-0.054,-0.032l-0.056,-0.026l-0.056,-0.02l-0.057,-0.014l-0.057,-0.008l-0.058,-0.002l-0.059,0.004l-0.06,0.01l-0.06,0.016l-0.061,0.022l-0.061,0.028l-0.062,0.034l-0.063,0.04l-0.063,0.047l-0.064,0.053l-0.065,0.06l-0.066,0.068l-0.067,0.076l-0.068,0.083l-0.069,0.092l-0.07,0.1l-0.071,0.11l-0.073,0.118l-0.074,0.128l-0.075,0.137l-0.075,0.144l-0.076,0.152l-0.077,0.157l-0.075,0.163l-0.075,0.166l-0.074,0.169l-0.073,0.172l-0.071,0.172l-0.068,0.173l-0.067,0.172l-0.063,0.17l-0.06,0.168l-0.058,0.167l-0.053,0.166l-0.051,0.166l-0.046,0.166l-0.043,0.166l-0.039,0.168l-0.034,0.169l-0.03,0.171" style="fill:#f2f2f2;fill-rule:nonzero;stroke:#000;stroke-width:0.4px;"/><path d="M5.663,349.756l-0.038,0.216l-0.037,0.219l-0.036,0.224l-0.037,0.227l-0.036,0.232l-0.035,0.235l-0.035,0.239l-0.035,0.242l-0.035,0.246l-0.034,0.248l-0.034,0.252l-0.033,0.255l-0.034,0.257l-0.033,0.26l-0.032,0.262l-0.033,0.265l-0.032,0.266l-0.032,0.269l-0.032,0.271l-0.031,0.272l-0.031,0.274l-0.032,0.275l-0.061,0.554l-0.061,0.559l-0.061,0.561l-0.119,1.126l-0.059,0.562l-0.059,0.561l-0.059,0.558l-0.058,0.554l-0.03,0.275l-0.029,0.274l-0.029,0.272l-0.03,0.27l-0.029,0.268l-0.029,0.267l-0.03,0.264l-0.029,0.262l-0.03,0.259l-0.029,0.257l-0.015,0.127l-0.004,0.032l-0.002,0.016l-0.001,0.01l-0.001,0l-0.001,0l-0.007,0.017l-0.008,0.014l-0.008,0.012l-0.008,0.01l-0.008,0.01l-0.008,0.01l-0.008,0l-0.008,0l-0.016,0l-0.016,0l-0.017,0l-0.033,-0.016l-0.065,-0.037l-0.063,-0.038l-0.061,-0.038l-0.059,-0.038l-0.057,-0.039l-0.056,-0.039l-0.053,-0.04l-0.052,-0.04l-0.05,-0.04l-0.048,-0.041l-0.047,-0.041l-0.045,-0.042l-0.043,-0.042l-0.042,-0.042l-0.04,-0.042l-0.039,-0.043l-0.037,-0.043l-0.071,-0.087l-0.065,-0.088l-0.059,-0.089l-0.055,-0.09l-0.051,-0.091l-0.046,-0.091l-0.042,-0.092l-0.038,-0.092l-0.035,-0.093l-0.032,-0.093l-0.029,-0.093l-0.026,-0.094l-0.024,-0.094l-0.022,-0.094l-0.02,-0.093l-0.019,-0.093l-0.009,-0.047l-0.004,-0.023l-0.002,-0.012l0,0l-0.001,0l0,-0.001l0.001,-0.01l0.002,-0.056l0.004,-0.112l0.24,-7.213l0.482,-14.426l0.482,-14.426l0.241,-7.213l0.06,-1.803l0.015,-0.451l0.001,-0.028l0,-0.004l0,-0.002l0,0l0,-0.001l0,0l0.001,-0.003l0.001,-0.006l0.002,-0.012l0.007,-0.048l0.014,-0.093l0.015,-0.091l0.014,-0.088l0.015,-0.086l0.014,-0.085l0.015,-0.082l0.014,-0.081l0.015,-0.079l0.015,-0.078l0.015,-0.076l0.031,-0.148l0.031,-0.145l0.032,-0.14l0.034,-0.138l0.034,-0.137l0.035,-0.136l0.037,-0.136l0.039,-0.137l0.04,-0.139l0.043,-0.141l0.046,-0.143l0.049,-0.146l0.053,-0.149l0.028,-0.076l0.029,-0.077l0.031,-0.078l0.031,-0.079l0.033,-0.08l0.035,-0.081l0.035,-0.082l0.038,-0.084l0.039,-0.085l0.04,-0.086l0.043,-0.088l0.044,-0.089l0.045,-0.09l0.048,-0.092" style="fill:#f2f2f2;fill-rule:nonzero;stroke:#000;stroke-width:0.4px;stroke-linecap:round;"/><path d="M22.529,349.756l-0.046,-0.141l-0.079,-0.155l-0.109,-0.162l-0.136,-0.16l-0.16,-0.152l-0.18,-0.137l-0.199,-0.114l-0.213,-0.083l-0.226,-0.045l-0.234,0l-0.24,0.052l-0.243,0.113l-0.404,1.055l-0.423,1.166l-0.422,1.166l-0.423,1.166l-0.423,1.167l-0.423,1.166l-0.423,1.166l-0.423,1.166l-0.423,1.166l-0.423,1.167l-0.423,1.166l-0.423,1.166l-0.107,0.284l-0.02,0.035l-0.022,0.033l-0.023,0.03l-0.025,0.028l-0.027,0.026l-0.027,0.024l-0.029,0.021l-0.03,0.019l-0.03,0.017l-0.031,0.015l-0.032,0.013l-0.033,0.011l-0.032,0.01l-0.033,0.01l-0.032,0l-0.032,0l-0.032,0l-0.031,0l-0.03,0l-0.028,0l-0.028,0l-0.025,0l-0.024,0l-0.04,0l-0.053,-0.024l-0.052,-0.05l-0.05,-0.074l-0.049,-0.094l-0.047,-0.113l-0.044,-0.128l-0.041,-0.14l-0.037,-0.151l-0.034,-0.157l-0.029,-0.162l-0.024,-0.164l0.194,-1.823l0.448,-3.816l0.449,-3.815l0.449,-3.816l0.448,-3.815l0.449,-3.816l0.449,-3.815l0.449,-3.815l0.448,-3.816l0.449,-3.815l0.449,-3.816l0.449,-3.815l0.294,-2.584l0.002,-0.251l0.002,-0.25l0.002,-0.251l0.002,-0.251l0.002,-0.251l0.002,-0.251l0.002,-0.25l0.002,-0.251l0.002,-0.251l0.002,-0.251l0.002,-0.251l0.01,-0.313l0.035,-0.488l0.037,-0.442l0.037,-0.4l0.039,-0.36l0.039,-0.324l0.04,-0.29l0.041,-0.26l0.042,-0.233l0.042,-0.209l0.043,-0.189l0.044,-0.171l0.045,-0.156l0.045,-0.144l0.046,-0.133l0.047,-0.122l0.048,-0.111l0.048,-0.102l0.048,-0.092l0.05,-0.083l0.05,-0.075l0.051,-0.066l0.052,-0.059l0.052,-0.052l0.054,-0.045l0.054,-0.039l0.054,-0.032l0.056,-0.026l0.056,-0.02l0.057,-0.014l0.057,-0.008l0.058,-0.002l0.059,0.004l0.06,0.01l0.06,0.016l0.061,0.022l0.061,0.028l0.062,0.034l0.063,0.04l0.063,0.047l0.064,0.053l0.065,0.06l0.066,0.068l0.067,0.076l0.068,0.083l0.069,0.092l0.07,0.1l0.071,0.11l0.073,0.118l0.074,0.128l0.075,0.137l0.075,0.144l0.076,0.152l0.076,0.157l0.076,0.163l0.075,0.166l0.074,0.169l0.073,0.172l0.07,0.172l0.069,0.173l0.066,0.172l0.064,0.17l0.06,0.168l0.057,0.167l0.054,0.166l0.05,0.166l0.047,0.166l0.043,0.166l0.038,0.168l0.035,0.169l0.03,0.171" style="fill:#f2f2f2;fill-rule:nonzero;stroke:#000;stroke-width:0.4px;"/><path d="M22.529,349.756l0.037,0.216l0.037,0.219l0.037,0.224l0.036,0.227l0.036,0.232l0.035,0.235l0.035,0.239l0.035,0.242l0.035,0.246l0.034,0.248l0.034,0.252l0.033,0.255l0.034,0.257l0.033,0.26l0.032,0.262l0.033,0.265l0.032,0.266l0.032,0.269l0.032,0.271l0.031,0.272l0.032,0.274l0.031,0.275l0.061,0.554l0.061,0.559l0.061,0.561l0.119,1.126l0.059,0.562l0.059,0.561l0.059,0.558l0.058,0.554l0.03,0.275l0.029,0.274l0.029,0.272l0.03,0.27l0.029,0.268l0.029,0.267l0.03,0.264l0.029,0.262l0.03,0.259l0.03,0.257l0.014,0.127l0.006,0.048l0.001,0.01l0.002,0l0.007,0.017l0.008,0.014l0.008,0.012l0.024,0.03l0.065,0l0.033,-0.016l0.065,-0.037l0.063,-0.038l0.061,-0.038l0.059,-0.038l0.057,-0.039l0.056,-0.039l0.053,-0.04l0.052,-0.04l0.05,-0.04l0.048,-0.041l0.047,-0.041l0.045,-0.042l0.043,-0.042l0.042,-0.042l0.04,-0.042l0.039,-0.043l0.037,-0.043l0.071,-0.087l0.065,-0.088l0.06,-0.089l0.054,-0.09l0.051,-0.091l0.046,-0.091l0.042,-0.092l0.038,-0.092l0.035,-0.093l0.032,-0.093l0.029,-0.093l0.026,-0.094l0.024,-0.094l0.022,-0.094l0.02,-0.093l0.019,-0.093l0.009,-0.047l0.004,-0.023l0.002,-0.012l0,0l0.001,0l0,-0.001l-0.001,-0.01l-0.002,-0.056l-0.004,-0.112l-0.24,-7.213l-0.482,-14.426l-0.482,-14.426l-0.241,-7.213l-0.06,-1.803l-0.015,-0.451l-0.001,-0.028l0,-0.004l0,-0.002l0,0l0,-0.001l0,0l-0.001,-0.003l0,-0.006l-0.002,-0.012l-0.007,-0.048l-0.015,-0.093l-0.014,-0.091l-0.015,-0.088l-0.014,-0.086l-0.015,-0.085l-0.015,-0.082l-0.014,-0.081l-0.015,-0.079l-0.015,-0.078l-0.015,-0.076l-0.031,-0.148l-0.031,-0.145l-0.032,-0.14l-0.033,-0.138l-0.035,-0.137l-0.035,-0.136l-0.037,-0.136l-0.039,-0.137l-0.04,-0.139l-0.043,-0.141l-0.046,-0.143l-0.049,-0.146l-0.053,-0.149l-0.028,-0.076l-0.029,-0.077l-0.03,-0.078l-0.032,-0.079l-0.033,-0.08l-0.035,-0.081l-0.035,-0.082l-0.038,-0.084l-0.039,-0.085l-0.04,-0.086l-0.043,-0.088l-0.044,-0.089l-0.045,-0.09l-0.048,-0.092" style="fill:#f2f2f2;fill-rule:nonzero;stroke:#000;stroke-width:0.4px;stroke-linecap:round;"/><g><path d="M9.062,369.656c-0.192,-0.477 -0.446,-1.03 -0.699,-1.527l-0.098,-0.193l0.041,-0.076c0.071,-0.132 0.234,-0.419 0.333,-0.584l0.035,-0.058l0.198,0c0.108,0 0.327,0 0.485,0l0.287,0l0.038,0.063c0.085,0.141 0.302,0.523 0.354,0.622l0.018,0.034l-0.051,0.099c-0.276,0.53 -0.553,1.132 -0.775,1.686l-0.037,0.093l-0.032,0l-0.033,0l-0.064,-0.159l0,0Z" style="fill:#333;fill-rule:nonzero;"/><path d="M18.869,369.505c-0.193,-0.476 -0.446,-1.03 -0.699,-1.526l-0.099,-0.193l0.041,-0.076c0.071,-0.133 0.234,-0.419 0.333,-0.585l0.035,-0.058l0.198,0c0.109,0 0.327,0 0.485,0l0.288,0l0.038,0.063c0.084,0.141 0.302,0.523 0.354,0.622l0.017,0.034l-0.051,0.099c-0.276,0.53 -0.552,1.132 -0.774,1.686l-0.038,0.093l-0.032,0l-0.032,0l-0.064,-0.158l0,-0.001Z" style="fill:#333;fill-rule:nonzero;"/></g><path d="M12.99,368.964c0.08,-0.156 0.229,-0.434 0.331,-0.617l0.186,-0.333l-0.219,-0.388l-0.219,-0.388l-0.376,0c-0.321,0 -0.376,-0.011 -0.376,-0.041c0,-0.033 -0.031,-0.039 -0.163,-0.033c-0.153,0.011 -0.165,0.013 -0.216,0.102l-0.053,0.093l0.281,0.541c0.155,0.297 0.364,0.722 0.464,0.943c0.1,0.221 0.189,0.403 0.199,0.403c0.009,0.001 0.082,-0.127 0.161,-0.283l0,0.001Z" style="fill:#333;fill-rule:nonzero;"/><path d="M15.259,368.944c-0.08,-0.156 -0.229,-0.434 -0.331,-0.617l-0.186,-0.333l0.219,-0.388l0.219,-0.387l0.376,0c0.321,0 0.376,-0.011 0.376,-0.041c0,-0.033 0.031,-0.039 0.163,-0.033c0.153,0.011 0.165,0.013 0.216,0.101l0.053,0.093l-0.281,0.541c-0.155,0.298 -0.364,0.722 -0.464,0.943c-0.1,0.221 -0.189,0.403 -0.198,0.403c-0.009,0.001 -0.083,-0.127 -0.162,-0.283l0,0.001Z" style="fill:#333;fill-rule:nonzero;"/><path d="M11.748,373.207c0,-0.013 0.083,-0.382 0.095,-0.421c0.173,-2.25 0.353,-1.783 1.063,-3.148c0,-0.069 0.484,-1.048 0.753,-1.521l0.137,-0.242l0,-0.313l0,-0.313l0.671,0l0,0.635l0.144,0.254c0.151,0.265 0.566,1.082 0.663,1.302l0.056,0.128c0.882,2.401 0.218,0.293 1.126,3.393c0.023,0.105 0.042,0.205 0.042,0.224c0,0.033 -0.004,0.033 -2.375,0.033c-1.306,0 -2.375,0 -2.375,-0.011l0,0Z" style="fill:#333;fill-rule:nonzero;"/><g><path d="M4.772,117.675l18.647,0" style="fill:none;stroke:#000;stroke-width:0.4px;"/><path d="M17.627,367.075l-1.018,0" style="fill:none;stroke:#000;stroke-width:0.4px;"/><path d="M6.719,372.391l4.912,0" style="fill:none;stroke:#000;stroke-width:0.4px;"/><path d="M8.666,367.075l1.018,0" style="fill:none;stroke:#000;stroke-width:0.4px;"/><path d="M10.124,367.902c-0.139,-0.28 -0.286,-0.555 -0.44,-0.827" style="fill:none;stroke:#000;stroke-width:0.4px;"/><path d="M8.666,367.075c-0.154,0.272 -0.301,0.547 -0.44,0.827" style="fill:none;stroke:#000;stroke-width:0.4px;"/><path d="M12.048,367.075l0.764,0" style="fill:none;stroke:#000;stroke-width:0.4px;"/><path d="M13.556,368.003c-0.141,-0.287 -0.29,-0.571 -0.446,-0.85" style="fill:none;stroke:#000;stroke-width:0.4px;"/><path d="M12.048,367.075c-0.08,0.14 -0.157,0.281 -0.233,0.423" style="fill:none;stroke:#000;stroke-width:0.4px;"/><path d="M21.472,372.391l-4.912,0" style="fill:none;stroke:#000;stroke-width:0.4px;"/><path d="M19.525,367.075l-1.018,0" style="fill:none;stroke:#000;stroke-width:0.4px;"/><path d="M18.507,367.075c-0.154,0.272 -0.301,0.547 -0.44,0.827" style="fill:none;stroke:#000;stroke-width:0.4px;"/><path d="M19.966,367.902c-0.14,-0.28 -0.287,-0.555 -0.441,-0.827" style="fill:none;stroke:#000;stroke-width:0.4px;"/><path d="M16.143,367.075l-0.764,0" style="fill:none;stroke:#000;stroke-width:0.4px;"/><path d="M12.812,367.075c0.151,-0.195 0.228,-0.438 0.216,-0.684" style="fill:none;stroke:#000;stroke-width:0.4px;"/><path d="M9.335,367.075l3.477,0" style="fill:none;stroke:#000;stroke-width:0.4px;"/><path d="M15.163,366.391c-0.012,0.246 0.065,0.489 0.216,0.684" style="fill:none;stroke:#000;stroke-width:0.4px;"/><path d="M18.856,367.075c0.151,-0.195 0.228,-0.438 0.216,-0.684" style="fill:none;stroke:#000;stroke-width:0.4px;"/><path d="M13.11,367.153l1.971,0" style="fill:none;stroke:#000;stroke-width:0.4px;"/><path d="M12.302,367.075c0.017,0.027 0.036,0.053 0.055,0.078" style="fill:none;stroke:#000;stroke-width:0.4px;"/><path d="M15.834,367.153c0.019,-0.026 0.038,-0.052 0.055,-0.078" style="fill:none;stroke:#000;stroke-width:0.4px;"/><path d="M12.357,367.153l3.477,0" style="fill:none;stroke:#000;stroke-width:0.4px;"/><path d="M15.131,367.153c-0.157,0.279 -0.305,0.563 -0.446,0.85" style="fill:none;stroke:#000;stroke-width:0.4px;"/><path d="M15.131,367.153c-0.157,0.279 -0.305,0.563 -0.446,0.85" style="fill:none;stroke:#000;stroke-width:0.4px;"/><path d="M16.401,367.452c-0.068,-0.127 -0.137,-0.252 -0.208,-0.377" style="fill:none;stroke:#000;stroke-width:0.4px;"/><path d="M23.419,71.183l0,240.869" style="fill:none;stroke:#000;stroke-width:0.4px;"/><path d="M11.842,372.391c-0.066,0.276 -0.125,0.553 -0.177,0.831l4.911,0c-0.052,-0.278 -0.111,-0.555 -0.177,-0.831" style="fill:none;stroke:#000;stroke-width:0.4px;"/><path d="M12.763,369.615c0.251,-0.585 0.534,-1.156 0.849,-1.709l0,-0.753" style="fill:none;stroke:#000;stroke-width:0.4px;"/><path d="M14.629,367.153l0,0.753c0.304,0.533 0.578,1.083 0.823,1.646" style="fill:none;stroke:#000;stroke-width:0.4px;"/><path d="M9.175,370.217c-0.357,-1.091 -0.823,-2.144 -1.39,-3.142l-1.018,0c-0.938,1.652 -1.596,3.449 -1.946,5.316l4.911,0" style="fill:#333;fill-rule:nonzero;stroke:#000;stroke-width:0.4px;"/><path d="M19.016,366.779c0.037,0.107 0.091,0.207 0.16,0.296l3.477,0c0.151,-0.195 0.228,-0.438 0.216,-0.684" style="fill:none;stroke:#000;stroke-width:0.4px;"/><path d="M18.459,372.391l4.912,0c-0.351,-1.867 -1.009,-3.664 -1.947,-5.316l-1.018,0c-0.567,0.998 -1.033,2.051 -1.39,3.142" style="fill:#333;fill-rule:nonzero;stroke:#000;stroke-width:0.4px;"/><path d="M10.565,367.075c-0.939,1.652 -1.597,3.449 -1.947,5.316l4.911,0c-0.35,-1.867 -1.008,-3.664 -1.946,-5.316l-1.018,0Z" style="fill:#333;fill-rule:nonzero;stroke:#000;stroke-width:0.4px;"/></g><g><g><path d="M1.322,62.639c-0.065,-0.997 -0.088,-9.847 -0.05,-19.667c0.074,-19.404 0.062,-19.159 1.124,-24.121c1.212,-5.664 3.525,-10.114 7.436,-14.309c1.547,-1.66 2.786,-2.488 3.727,-2.492l0.398,-0.002l0,62.402l-6.259,0l-6.258,0l-0.118,-1.812l0,0.001Z" style="fill:url(#_Linear4);fill-rule:nonzero;"/><path d="M4.813,70.947c-0.095,-0.121 -0.752,-1.295 -1.461,-2.607c-0.708,-1.313 -1.442,-2.645 -1.631,-2.961l-0.344,-0.575l12.58,0l0,6.364l-4.486,0c-3.379,0 -4.529,-0.054 -4.658,-0.221Z" style="fill:url(#_Linear5);fill-rule:nonzero;"/></g><g><path d="M26.919,62.639c0.065,-0.997 0.087,-9.847 0.05,-19.667c-0.074,-19.404 -0.062,-19.159 -1.124,-24.121c-1.212,-5.664 -3.525,-10.114 -7.436,-14.309c-1.547,-1.66 -2.786,-2.488 -3.727,-2.492l-0.398,-0.002l0,62.402l6.258,0l6.259,0l0.118,-1.812l0,0.001Z" style="fill:url(#_Linear6);fill-rule:nonzero;"/><path d="M23.428,70.947c0.095,-0.121 0.752,-1.295 1.46,-2.607c0.709,-1.313 1.443,-2.645 1.632,-2.961l0.344,-0.575l-12.58,0l0,6.364l4.486,0c3.379,0 4.528,-0.054 4.658,-0.221Z" style="fill:url(#_Linear7);fill-rule:nonzero;"/></g></g><path d="M4.772,71.284l18.647,0" style="fill:none;stroke:#000;stroke-width:0.4px;"/><path d="M1.133,64.609l25.925,0" style="fill:none;stroke:#000;stroke-width:0.4px;"/><path d="M4.772,71.284l-0.389,-0.714l-0.389,-0.713l-0.389,-0.714l-0.389,-0.714l-0.389,-0.714l-0.39,-0.714l-0.389,-0.714l-0.389,-0.713l-0.389,-0.714l-0.137,-2.865l0,-4.03l0,-4.031l0,-4.03l0,-4.03l0,-4.031l0,-4.03l0,-4.031l0,-4.03l0.015,-2.991l0.049,-0.53l0.051,-0.53l0.052,-0.53l0.053,-0.529l0.057,-0.53l0.059,-0.53l0.063,-0.53l0.068,-0.53l0.072,-0.531l0.078,-0.53l0.083,-0.53l0.09,-0.53l0.095,-0.529l0.102,-0.529l0.109,-0.526l0.116,-0.525l0.122,-0.524l0.131,-0.52l0.137,-0.519l0.146,-0.515l0.153,-0.512l0.162,-0.509l0.17,-0.504l0.178,-0.501l0.188,-0.496l0.197,-0.491l0.206,-0.486l0.215,-0.481l0.226,-0.475l0.234,-0.471l0.244,-0.465l0.253,-0.461l0.263,-0.456l0.271,-0.452l0.28,-0.448l0.29,-0.444l0.298,-0.441l0.307,-0.437l0.316,-0.433l0.324,-0.431l0.333,-0.428l0.341,-0.425l0.349,-0.422l0.358,-0.421l0.366,-0.418l0.374,-0.416l0.383,-0.41l0.395,-0.393l0.409,-0.37l0.425,-0.336l0.443,-0.294l0.464,-0.244l0.487,-0.185l0.512,-0.117l0.54,-0.066l0.565,0l0.541,0.065l0.512,0.117l0.487,0.184l0.464,0.243l0.444,0.294l0.425,0.336l0.409,0.369l0.395,0.394l0.384,0.409l0.374,0.416l0.365,0.418l0.358,0.421l0.349,0.422l0.341,0.425l0.333,0.428l0.324,0.431l0.315,0.433l0.307,0.437l0.298,0.441l0.29,0.444l0.28,0.448l0.272,0.452l0.262,0.456l0.254,0.461l0.244,0.465l0.235,0.47l0.226,0.476l0.216,0.48l0.208,0.486l0.197,0.491l0.189,0.496l0.18,0.5l0.172,0.505l0.162,0.508l0.155,0.512l0.146,0.516l0.139,0.518l0.13,0.52l0.123,0.524l0.116,0.525l0.108,0.526l0.101,0.529l0.094,0.529l0.088,0.53l0.081,0.531l0.075,0.53l0.069,0.531l0.063,0.531l0.058,0.53l0.055,0.531l0.051,0.53l0.048,0.53l0.046,0.531l0.044,0.53l0.044,0.53l0.012,2.992l0,32.243l-0.136,2.865l-0.39,0.714l-0.389,0.713l-0.389,0.714l-0.389,0.714l-0.389,0.714l-0.39,0.714l-0.389,0.714l-0.389,0.713l-0.389,0.714" style="fill:none;stroke:#000;stroke-width:0.4px;"/><path d="M14.096,71.284l0,-69.409" style="fill:none;stroke:#000;stroke-width:0.4px;"/><path d="M8.603,312.632l-1.234,-1.307" style="fill:none;stroke:#000;stroke-width:0.4px;"/><path d="M7.369,311.325l-2.251,0" style="fill:none;stroke:#000;stroke-width:0.4px;"/><path d="M4.849,341.689l0.175,-24.119" style="fill:none;stroke:#000;stroke-width:0.4px;"/><path d="M5.024,317.57l2.16,-2.925" style="fill:none;stroke:#000;stroke-width:0.4px;"/><path d="M5.024,317.57l-1.032,-2.674" style="fill:none;stroke:#000;stroke-width:0.4px;"/><path d="M7.184,314.645l0.185,-3.32" style="fill:none;stroke:#000;stroke-width:0.4px;stroke-linecap:round;"/><path d="M4.772,312.052l0,-240.869" style="fill:none;stroke:#000;stroke-width:0.4px;"/><path d="M4.159,362.319l0.613,0" style="fill:none;stroke:#000;stroke-width:0.4px;"/><path d="M4.084,362.975l0.688,0" style="fill:none;stroke:#000;stroke-width:0.4px;"/><path d="M23.419,356.572l0,8.31c-0.025,0.538 -0.194,1.059 -0.489,1.509l-8.834,0l-8.835,0c-0.295,-0.45 -0.464,-0.971 -0.489,-1.509l0,-8.31" style="fill:none;stroke:#000;stroke-width:0.4px;"/><path d="M13.79,362.975l0.612,0" style="fill:none;stroke:#000;stroke-width:0.4px;"/><path d="M13.986,362.319l0.219,0" style="fill:none;stroke:#000;stroke-width:0.4px;"/><path d="M2.84,362.223l0.119,-1.502l0.118,-1.502l0.118,-1.502l0.119,-1.501l0.118,-1.502l0.119,-1.502l0.118,-1.502l0.119,-1.502l0.118,-1.501l0.118,-1.502l0.119,-1.502l0.118,-1.502l0.119,-1.502l0.049,-0.476l0.033,-0.119l0.04,-0.103l0.044,-0.086l0.05,-0.071l0.054,-0.057l0.058,-0.043l0.06,-0.031l0.063,-0.019l0.065,-0.01l0.065,0l0.066,0.01l0.065,0.018l0.065,0.025l0.063,0.032l0.061,0.038l0.06,0.043l0.059,0.047l0.057,0.052l0.055,0.055l0.053,0.058l0.051,0.06l0.05,0.062l0.047,0.063l0.046,0.064l0.043,0.064l0.177,0.44l0.583,1.57l0.583,1.569l0.583,1.569l0.583,1.57l0.583,1.569l1.165,3.139l0.583,1.569l0.583,1.569l0.583,1.57l1.166,3.138l0.582,1.569" style="fill:none;stroke:#000;stroke-width:0.4px;"/><path d="M19.588,312.632l1.234,-1.307" style="fill:none;stroke:#000;stroke-width:0.4px;"/><path d="M20.822,311.325l2.251,0" style="fill:none;stroke:#000;stroke-width:0.4px;"/><path d="M23.342,341.689l-0.175,-24.119" style="fill:none;stroke:#000;stroke-width:0.4px;"/><path d="M23.167,317.57l-2.16,-2.925" style="fill:none;stroke:#000;stroke-width:0.4px;"/><path d="M23.167,317.57l1.033,-2.674" style="fill:none;stroke:#000;stroke-width:0.4px;"/><path d="M21.007,314.645l-0.185,-3.32" style="fill:none;stroke:#000;stroke-width:0.4px;stroke-linecap:round;"/><path d="M24.033,362.319l-0.614,0" style="fill:none;stroke:#000;stroke-width:0.4px;"/><path d="M24.108,362.975l-0.689,0" style="fill:none;stroke:#000;stroke-width:0.4px;"/><path d="M25.351,362.223l-0.118,-1.502l-0.119,-1.502l-0.118,-1.502l-0.119,-1.501l-0.118,-1.502l-0.119,-1.502l-0.118,-1.502l-0.118,-1.502l-0.119,-1.501l-0.118,-1.502l-0.119,-1.502l-0.118,-1.502l-0.118,-1.502l-0.05,-0.476l-0.033,-0.119l-0.039,-0.103l-0.045,-0.086l-0.05,-0.071l-0.054,-0.057l-0.058,-0.043l-0.06,-0.031l-0.063,-0.019l-0.065,-0.01l-0.065,0l-0.066,0.01l-0.065,0.018l-0.065,0.025l-0.063,0.032l-0.061,0.038l-0.06,0.043l-0.059,0.047l-0.056,0.052l-0.056,0.055l-0.053,0.058l-0.051,0.06l-0.05,0.062l-0.047,0.063l-0.046,0.064l-0.043,0.064l-0.177,0.44l-0.583,1.57l-0.583,1.569l-0.583,1.569l-0.583,1.57l-0.583,1.569l-0.582,1.569l-0.583,1.57l-0.583,1.569l-0.583,1.569l-0.583,1.57l-0.583,1.569l-0.582,1.569l-0.583,1.569" style="fill:none;stroke:#000;stroke-width:0.4px;"/><path d="M17.627,367.075c0.938,1.652 1.596,3.449 1.946,5.316l-4.911,0c0.35,-1.867 1.008,-3.664 1.947,-5.316" style="fill:#333;fill-rule:nonzero;stroke:#000;stroke-width:0.4px;"/><path d="M15.379,367.075l3.477,0" style="fill:none;stroke:#000;stroke-width:0.4px;"/><path d="M5.322,366.391c-0.012,0.246 0.065,0.489 0.216,0.684l3.477,0c0.069,-0.089 0.123,-0.189 0.16,-0.296" style="fill:none;stroke:#000;stroke-width:0.4px;"/><path d="M9.119,366.391c-0.011,0.246 0.065,0.489 0.216,0.684" style="fill:none;stroke:#000;stroke-width:0.4px;"/><path d="M15.505,229.961l-3.869,0l-0.143,0.107l0,3.441l1.071,0l0,-1.29l0.102,-0.092l2.839,0c0.717,0 1.053,-0.192 1.053,-0.687l0,-0.79c-0.001,-0.496 -0.336,-0.689 -1.053,-0.689m0,1.272c0,0.233 -0.155,0.282 -0.491,0.282l-2.336,0l-0.114,-0.111l0,-0.737l0.102,-0.094l2.348,0c0.336,0 0.491,0.048 0.491,0.282l0,0.378l0,0Z" style="fill:#005288;fill-rule:nonzero;"/><path d="M13.264,237.788l0.922,1.35l-0.051,0.13l-2.038,0l-0.52,0.64l3.033,0l0.21,0.128l0.471,0.65l1.226,0l-2.686,-3.593" style="fill:#005288;fill-rule:nonzero;"/><g><path d="M12.692,255.717l0,-0.955l0.11,-0.095l2.05,0l0,-0.608l-3.249,0l0,2.357l4.793,0l0,-0.605l-3.589,0" style="fill:#005288;fill-rule:nonzero;"/><rect x="11.603" y="252.867" width="4.844" height="0.669" style="fill:#005288;fill-rule:nonzero;"/></g><path d="M12.676,245.467l3.902,0c-0.06,-0.496 -0.368,-0.633 -1.149,-0.633l-2.795,0c-0.881,0 -1.162,0.172 -1.162,0.839l0,1.871c0,0.667 0.281,0.839 1.162,0.839l2.795,0c0.793,0 1.096,-0.148 1.117,-0.663l-3.87,0l-0.115,-0.108l0,-2.072" style="fill:#005288;fill-rule:nonzero;"/><path d="M15.463,223.167l-2.839,0l-0.084,-0.092l0,-0.607l0.084,-0.064l3.827,0l0.052,-0.128c-0.131,-0.336 -0.468,-0.492 -1.095,-0.492l-2.658,0c-0.881,0 -1.163,0.172 -1.163,0.839l0,0.392c0,0.668 0.282,0.84 1.163,0.84l2.832,0l0.089,0.078l0,0.635l-0.072,0.099l-3.24,0l0,-0.003l-0.849,0c0,0 -0.097,0.048 -0.093,0.071c0.072,0.467 0.39,0.599 1.151,0.599l2.895,0c0.881,0 1.171,-0.172 1.171,-0.84l0,-0.489c0,-0.666 -0.29,-0.838 -1.171,-0.838" style="fill:#005288;fill-rule:nonzero;"/><path d="M12.73,261.095l-1.593,0l-0.087,0.165l1.77,1.29c0.335,-0.194 0.7,-0.391 1.096,-0.585" style="fill:#005288;fill-rule:nonzero;"/><path d="M14.158,263.525l1.555,1.134l1.613,0l0.067,-0.15l-2.323,-1.7c-0.308,0.227 -0.613,0.466 -0.912,0.716" style="fill:#005288;fill-rule:nonzero;"/><path d="M12.493,264.657l-1.442,0l-0.122,-0.191c0.981,-0.946 5.456,-4.503 11.282,-4.956c0,0 -5.096,0.566 -9.718,5.147" style="fill:#a7a9ac;fill-rule:nonzero;"/><g><rect x="9.477" y="175.763" width="9.199" height="5.17" style="fill:#b22234;fill-rule:nonzero;"/><path d="M9.477,176.359l9.199,0m0,0.796l-9.199,0m0,0.795l9.199,0m0,0.796l-9.199,0m0,0.795l9.199,0m0,0.796l-9.199,0" style="fill-rule:nonzero;stroke:#fff;stroke-width:0.39px;"/><rect x="9.477" y="175.763" width="3.68" height="2.784" style="fill:#3c3b6e;fill-rule:nonzero;"/><g><path d="M9.784,175.882l0.087,0.288l-0.229,-0.178l0.283,0l-0.229,0.178l0.088,-0.288Z" style="fill:#fff;fill-rule:nonzero;"/><path d="M9.784,176.439l0.087,0.288l-0.229,-0.178l0.283,0l-0.229,0.178l0.088,-0.288Z" style="fill:#fff;fill-rule:nonzero;"/><path d="M9.784,176.996l0.087,0.287l-0.229,-0.177l0.283,0l-0.229,0.177l0.088,-0.287Z" style="fill:#fff;fill-rule:nonzero;"/><path d="M9.784,177.553l0.087,0.287l-0.229,-0.178l0.283,0l-0.229,0.178l0.088,-0.287Z" style="fill:#fff;fill-rule:nonzero;"/><path d="M9.784,178.109l0.087,0.288l-0.229,-0.178l0.283,0l-0.229,0.178l0.088,-0.288Z" style="fill:#fff;fill-rule:nonzero;"/><g><path d="M10.09,176.16l0.088,0.288l-0.229,-0.178l0.283,0l-0.229,0.178l0.087,-0.288Z" style="fill:#fff;fill-rule:nonzero;"/><path d="M10.09,176.717l0.088,0.288l-0.229,-0.178l0.283,0l-0.229,0.178l0.087,-0.288Z" style="fill:#fff;fill-rule:nonzero;"/><path d="M10.09,177.274l0.088,0.288l-0.229,-0.178l0.283,0l-0.229,0.178l0.087,-0.288Z" style="fill:#fff;fill-rule:nonzero;"/><path d="M10.09,177.831l0.088,0.288l-0.229,-0.178l0.283,0l-0.229,0.178l0.087,-0.288Z" style="fill:#fff;fill-rule:nonzero;"/></g><g><path d="M10.397,175.882l0.088,0.288l-0.23,-0.178l0.284,0l-0.23,0.178l0.088,-0.288Z" style="fill:#fff;fill-rule:nonzero;"/><path d="M10.397,176.439l0.088,0.288l-0.23,-0.178l0.284,0l-0.23,0.178l0.088,-0.288Z" style="fill:#fff;fill-rule:nonzero;"/><path d="M10.397,176.996l0.088,0.287l-0.23,-0.177l0.284,0l-0.23,0.177l0.088,-0.287Z" style="fill:#fff;fill-rule:nonzero;"/><path d="M10.397,177.553l0.088,0.287l-0.23,-0.178l0.284,0l-0.23,0.178l0.088,-0.287Z" style="fill:#fff;fill-rule:nonzero;"/><path d="M10.397,178.109l0.088,0.288l-0.23,-0.178l0.284,0l-0.23,0.178l0.088,-0.288Z" style="fill:#fff;fill-rule:nonzero;"/></g><g><path d="M10.704,176.16l0.087,0.288l-0.229,-0.178l0.283,0l-0.229,0.178l0.088,-0.288Z" style="fill:#fff;fill-rule:nonzero;"/><path d="M10.704,176.717l0.087,0.288l-0.229,-0.178l0.283,0l-0.229,0.178l0.088,-0.288Z" style="fill:#fff;fill-rule:nonzero;"/><path d="M10.704,177.274l0.087,0.288l-0.229,-0.178l0.283,0l-0.229,0.178l0.088,-0.288Z" style="fill:#fff;fill-rule:nonzero;"/><path d="M10.704,177.831l0.087,0.288l-0.229,-0.178l0.283,0l-0.229,0.178l0.088,-0.288Z" style="fill:#fff;fill-rule:nonzero;"/></g><g><path d="M11.01,175.882l0.088,0.288l-0.229,-0.178l0.283,0l-0.229,0.178l0.087,-0.288Z" style="fill:#fff;fill-rule:nonzero;"/><path d="M11.01,176.439l0.088,0.288l-0.229,-0.178l0.283,0l-0.229,0.178l0.087,-0.288Z" style="fill:#fff;fill-rule:nonzero;"/><path d="M11.01,176.996l0.088,0.287l-0.229,-0.177l0.283,0l-0.229,0.177l0.087,-0.287Z" style="fill:#fff;fill-rule:nonzero;"/><path d="M11.01,177.553l0.088,0.287l-0.229,-0.178l0.283,0l-0.229,0.178l0.087,-0.287Z" style="fill:#fff;fill-rule:nonzero;"/><path d="M11.01,178.109l0.088,0.288l-0.229,-0.178l0.283,0l-0.229,0.178l0.087,-0.288Z" style="fill:#fff;fill-rule:nonzero;"/></g><g><path d="M11.317,176.16l0.087,0.288l-0.229,-0.178l0.284,0l-0.23,0.178l0.088,-0.288Z" style="fill:#fff;fill-rule:nonzero;"/><path d="M11.317,176.717l0.087,0.288l-0.229,-0.178l0.284,0l-0.23,0.178l0.088,-0.288Z" style="fill:#fff;fill-rule:nonzero;"/><path d="M11.317,177.274l0.087,0.288l-0.229,-0.178l0.284,0l-0.23,0.178l0.088,-0.288Z" style="fill:#fff;fill-rule:nonzero;"/><path d="M11.317,177.831l0.087,0.288l-0.229,-0.178l0.284,0l-0.23,0.178l0.088,-0.288Z" style="fill:#fff;fill-rule:nonzero;"/></g><g><path d="M11.624,175.882l0.087,0.288l-0.229,-0.178l0.283,0l-0.229,0.178l0.088,-0.288Z" style="fill:#fff;fill-rule:nonzero;"/><path d="M11.624,176.439l0.087,0.288l-0.229,-0.178l0.283,0l-0.229,0.178l0.088,-0.288Z" style="fill:#fff;fill-rule:nonzero;"/><path d="M11.624,176.996l0.087,0.287l-0.229,-0.177l0.283,0l-0.229,0.177l0.088,-0.287Z" style="fill:#fff;fill-rule:nonzero;"/><path d="M11.624,177.553l0.087,0.287l-0.229,-0.178l0.283,0l-0.229,0.178l0.088,-0.287Z" style="fill:#fff;fill-rule:nonzero;"/><path d="M11.624,178.109l0.087,0.288l-0.229,-0.178l0.283,0l-0.229,0.178l0.088,-0.288Z" style="fill:#fff;fill-rule:nonzero;"/></g><g><path d="M11.93,176.16l0.088,0.288l-0.23,-0.178l0.284,0l-0.229,0.178l0.087,-0.288Z" style="fill:#fff;fill-rule:nonzero;"/><path d="M11.93,176.717l0.088,0.288l-0.23,-0.178l0.284,0l-0.229,0.178l0.087,-0.288Z" style="fill:#fff;fill-rule:nonzero;"/><path d="M11.93,177.274l0.088,0.288l-0.23,-0.178l0.284,0l-0.229,0.178l0.087,-0.288Z" style="fill:#fff;fill-rule:nonzero;"/><path d="M11.93,177.831l0.088,0.288l-0.23,-0.178l0.284,0l-0.229,0.178l0.087,-0.288Z" style="fill:#fff;fill-rule:nonzero;"/></g><g><path d="M12.237,175.882l0.087,0.288l-0.229,-0.178l0.283,0l-0.229,0.178l0.088,-0.288Z" style="fill:#fff;fill-rule:nonzero;"/><path d="M12.237,176.439l0.087,0.288l-0.229,-0.178l0.283,0l-0.229,0.178l0.088,-0.288Z" style="fill:#fff;fill-rule:nonzero;"/><path d="M12.237,176.996l0.087,0.287l-0.229,-0.177l0.283,0l-0.229,0.177l0.088,-0.287Z" style="fill:#fff;fill-rule:nonzero;"/><path d="M12.237,177.553l0.087,0.287l-0.229,-0.178l0.283,0l-0.229,0.178l0.088,-0.287Z" style="fill:#fff;fill-rule:nonzero;"/><path d="M12.237,178.109l0.087,0.288l-0.229,-0.178l0.283,0l-0.229,0.178l0.088,-0.288Z" style="fill:#fff;fill-rule:nonzero;"/></g><g><path d="M12.543,176.16l0.088,0.288l-0.229,-0.178l0.283,0l-0.229,0.178l0.087,-0.288Z" style="fill:#fff;fill-rule:nonzero;"/><path d="M12.543,176.717l0.088,0.288l-0.229,-0.178l0.283,0l-0.229,0.178l0.087,-0.288Z" style="fill:#fff;fill-rule:nonzero;"/><path d="M12.543,177.274l0.088,0.288l-0.229,-0.178l0.283,0l-0.229,0.178l0.087,-0.288Z" style="fill:#fff;fill-rule:nonzero;"/><path d="M12.543,177.831l0.088,0.288l-0.229,-0.178l0.283,0l-0.229,0.178l0.087,-0.288Z" style="fill:#fff;fill-rule:nonzero;"/></g><g><path d="M12.85,175.882l0.088,0.288l-0.23,-0.178l0.284,0l-0.23,0.178l0.088,-0.288Z" style="fill:#fff;fill-rule:nonzero;"/><path d="M12.85,176.439l0.088,0.288l-0.23,-0.178l0.284,0l-0.23,0.178l0.088,-0.288Z" style="fill:#fff;fill-rule:nonzero;"/><path d="M12.85,176.996l0.088,0.287l-0.23,-0.177l0.284,0l-0.23,0.177l0.088,-0.287Z" style="fill:#fff;fill-rule:nonzero;"/><path d="M12.85,177.553l0.088,0.287l-0.23,-0.178l0.284,0l-0.23,0.178l0.088,-0.287Z" style="fill:#fff;fill-rule:nonzero;"/><path d="M12.85,178.109l0.088,0.288l-0.23,-0.178l0.284,0l-0.23,0.178l0.088,-0.288Z" style="fill:#fff;fill-rule:nonzero;"/></g></g></g><g><g><path d="M11.424,168.025c0.308,-0.165 0.617,-0.325 0.941,-0.453c-3.67,-1.931 -3.876,-3.383 -4.63,-4.911c0.581,1.769 1.066,3.536 3.689,5.364Z" style="fill:#a80126;"/><path d="M9.512,165.126c1.398,1.169 2.612,2.002 3.508,2.256c0.885,-0.472 3.814,-0.729 3.751,-0.063c-0.641,-0.316 -1.022,-0.166 -1.385,-0.049c0.182,-0.003 0.665,-0.056 0.81,-0.005c-0.059,0.071 -0.123,0.102 -0.189,0.142c0.237,0.052 0.46,0.119 0.647,0.231c0.121,-0.012 0.2,-0.009 0.236,0.029c-0.123,0.032 -0.271,0.19 -0.344,0.298c0.814,0.023 1.681,0.015 1.772,0.873c0.257,-0.76 -0.202,-1.155 -1.097,-1.328c-0.118,-0.26 -0.307,-0.483 -0.49,-0.734c-2.447,-0.137 -4.89,-0.303 -7.219,-1.65Z" style="fill:#a80126;"/></g><path d="M7.592,171.042l0,-1.481l0.992,0c-0.039,0.051 -0.073,0.104 -0.156,0.138l-0.621,0l0,0.39l0.554,0c-0.032,0.047 -0.067,0.09 -0.125,0.11l-0.429,0l0,0.528c-0.045,0.12 -0.105,0.232 -0.215,0.315Z"/><path d="M10.268,169.714l0,1.084l0.281,0l0,-1.021c-0.381,-0.346 -0.762,-0.346 -1.143,0l0,1.021l0.254,0l0,-0.599l0.201,0c0.047,-0.024 0.08,-0.053 0.098,-0.087l-0.294,0l0,-0.394c0.226,-0.155 0.406,-0.155 0.603,-0.004l0,0Z"/><path d="M13.206,170.833l-1.143,0l0,-1.249l0.286,0l0,1.147l1.005,0c-0.042,0.038 -0.064,0.089 -0.148,0.102Z"/><path d="M14.913,169.561l0,0.245c-0.459,0.623 0.323,1.37 1.203,0.822l0.067,-0.014c-0.546,0.616 -2.544,0.116 -1.27,-1.053l0,0Z"/><path d="M14.309,169.593l0,0.452c0.439,-0.79 1.047,-1.184 2.91,-0.659c-1.787,-0.702 -2.45,-0.334 -2.91,0.207Z"/><path d="M17.78,169.463c-0.374,0.006 -0.748,0.255 -0.746,0.728c0.005,0.944 1.491,0.992 1.491,0c0,-0.497 -0.372,-0.734 -0.745,-0.728Zm-0.004,0.099c0.222,-0.003 0.444,0.205 0.446,0.629c0.004,0.847 -0.877,0.828 -0.883,0c-0.003,-0.415 0.216,-0.627 0.437,-0.629Z"/><path d="M19.915,169.717l0,1.125l-0.222,0l0,-1.18l0.223,-0.109l-0.002,0.052c0.344,-0.008 0.584,0.149 0.647,0.236l0,1.013l-0.217,0l0,-0.995c-0.079,-0.133 -0.168,-0.166 -0.429,-0.169l0,0.027Z"/><path d="M14.094,171.712c-2.297,0.011 -1.702,1.853 -0.432,1.817c0.592,-0.017 0.704,-0.079 1.101,-0.503c-0.248,1.242 -1.092,1.242 -2.107,1.341c-0.127,0.084 -0.153,0.102 -0.241,0.236c1.724,-0.035 3.17,-0.341 3.127,-1.679c-0.029,-0.935 -0.656,-1.215 -1.448,-1.212Zm-0.034,0.223c0,0 0,0 0,0c0.416,0 0.758,0.269 0.758,0.596c0,0 0,0 0,0c-0.001,0.327 -0.343,0.595 -0.758,0.595c-0.415,-0.001 -0.756,-0.269 -0.757,-0.595c0,-0.327 0.342,-0.596 0.757,-0.596Z"/></g><rect x="4.552" y="117.732" width="19.043" height="35.636" style="fill:url(#_Linear8);fill-rule:nonzero;"/><path d="M4.772,153.368l18.647,0" style="fill:none;stroke:#000;stroke-width:0.4px;"/><g><path d="M4.429,158.571l-0.032,-6.406l1.063,-1.563l-0.031,-1.687l0.844,-1.594l0.281,-0.906l0.687,-0.25l0.688,0.062l0.406,0.125l0.375,1l0.219,1.094l0.031,0.938l0,1l-0.094,0.718l0.813,0.907l0,6.468l-0.625,0.125l-4.625,-0.031Z" style="fill:#fff;"/><path d="M9.048,152.167l0,6.43l-4.624,0l0,-6.405l0.934,-1.616l2.209,0l1.481,1.591Z" style="fill:none;stroke:#000;stroke-width:0.3px;stroke-linecap:square;stroke-linejoin:round;"/><path d="M8.297,150.576l-2.837,0.026l-0.031,-1.687l0.768,-1.477l0.376,-0.973c0.493,-0.292 1.098,-0.288 1.768,-0.11c0.662,1.51 0.726,3.101 0.508,4.729" style="fill:url(#_Radial9);stroke:#000;stroke-width:0.3px;stroke-linecap:square;stroke-linejoin:round;"/><path d="M5.424,158.464l0,-7.844l0,-1.635l0.773,-1.547c0.905,-0.425 1.673,-0.267 2.343,0.309l-0.111,2.895" style="fill:none;stroke:#000;stroke-width:0.3px;stroke-linecap:square;stroke-linejoin:round;"/><path d="M7.468,150.62l0,7.844" style="fill:none;stroke:#000;stroke-width:0.3px;stroke-linecap:square;stroke-linejoin:round;"/><path d="M7.545,150.598l0.752,-0.022l1.37,1.48l0,6.469l-0.629,0.062" style="fill:none;stroke:#000;stroke-width:0.3px;stroke-linecap:square;stroke-linejoin:round;"/><path d="M7.612,150.553l0.022,-1.591l0.862,-1.104" style="fill:none;stroke:#000;stroke-width:0.3px;stroke-linecap:square;stroke-linejoin:round;"/><path d="M5.468,148.852c0.812,-0.331 1.508,-0.279 2.144,-0.022" style="fill:none;stroke:#000;stroke-width:0.3px;stroke-linecap:round;stroke-linejoin:round;"/><g><path d="M7.46,158.571l1.562,-1.562" style="fill:#fff;"/><path d="M7.46,158.571l1.531,-1.687" style="fill:#fff;stroke:#000;stroke-width:0.3px;stroke-linecap:round;stroke-linejoin:round;"/><path d="M6.054,158.571l2.906,-3.687" style="fill:#fff;stroke:#000;stroke-width:0.3px;stroke-linecap:round;stroke-linejoin:round;"/><path d="M8.991,153.009l-4.344,5.531" style="fill:#fff;stroke:#000;stroke-width:0.3px;stroke-linecap:round;stroke-linejoin:round;"/><path d="M8.554,151.759l-4.094,5.25" style="fill:#fff;stroke:#000;stroke-width:0.3px;stroke-linecap:round;stroke-linejoin:round;"/><path d="M7.772,150.821l-3.281,4.313" style="fill:#fff;stroke:#000;stroke-width:0.3px;stroke-linecap:round;stroke-linejoin:round;"/><path d="M6.429,150.665l-1.992,2.555" style="fill:#fff;stroke:#000;stroke-width:0.3px;stroke-linecap:round;stroke-linejoin:round;"/><path d="M6.741,158.509l-2.312,-3.282" style="fill:#fff;stroke:#000;stroke-width:0.3px;stroke-linecap:round;stroke-linejoin:round;"/><path d="M4.491,157.04l0.969,1.531" style="fill:#fff;stroke:#000;stroke-width:0.3px;stroke-linecap:round;stroke-linejoin:round;"/><path d="M8.289,158.522l-3.829,-5.013" style="fill:#fff;stroke:#000;stroke-width:0.3px;stroke-linecap:round;stroke-linejoin:round;"/><path d="M8.96,157.54l-4.375,-5.563" style="fill:#fff;stroke:#000;stroke-width:0.3px;stroke-linecap:round;stroke-linejoin:round;"/><path d="M9.022,155.634l-3.875,-4.563" style="fill:#fff;stroke:#000;stroke-width:0.3px;stroke-linecap:round;stroke-linejoin:round;"/><path d="M9.054,153.821l-2.813,-3.187" style="fill:#fff;stroke:#000;stroke-width:0.3px;stroke-linecap:round;stroke-linejoin:round;"/></g></g><g><path d="M23.662,158.571l0.031,-6.406l-1.062,-1.563l0.031,-1.687l-0.844,-1.594l-0.281,-0.906l-0.687,-0.25l-0.688,0.062l-0.406,0.125l-0.375,1l-0.219,1.094l-0.031,0.938l0,1l0.094,0.718l-0.813,0.907l0,6.468l0.625,0.125l4.625,-0.031Z" style="fill:#fff;"/><path d="M19.043,152.167l0,6.43l4.624,0l0,-6.405l-0.934,-1.616l-2.21,0l-1.48,1.591Z" style="fill:none;stroke:#000;stroke-width:0.3px;stroke-linecap:square;stroke-linejoin:round;"/><path d="M19.794,150.576l2.837,0.026l0.031,-1.687l-0.847,-1.722l-0.297,-0.728c-0.494,-0.292 -1.098,-0.288 -1.768,-0.11c-0.663,1.51 -0.727,3.101 -0.508,4.729" style="fill:url(#_Radial10);stroke:#000;stroke-width:0.3px;stroke-linecap:square;stroke-linejoin:round;"/><path d="M22.667,158.464l0,-7.844l0,-1.635l-0.773,-1.547c-0.905,-0.425 -1.673,-0.267 -2.343,0.309l0.111,2.895" style="fill:none;stroke:#000;stroke-width:0.3px;stroke-linecap:square;stroke-linejoin:round;"/><path d="M20.623,150.62l0,7.844" style="fill:none;stroke:#000;stroke-width:0.3px;stroke-linecap:square;stroke-linejoin:round;"/><path d="M20.546,150.598l-0.752,-0.022l-1.37,1.48l0,6.469l0.629,0.062" style="fill:none;stroke:#000;stroke-width:0.3px;stroke-linecap:square;stroke-linejoin:round;"/><path d="M20.479,150.553l-0.022,-1.591l-0.862,-1.104" style="fill:none;stroke:#000;stroke-width:0.3px;stroke-linecap:square;stroke-linejoin:round;"/><path d="M22.623,148.852c-0.812,-0.331 -1.508,-0.279 -2.144,-0.022" style="fill:none;stroke:#000;stroke-width:0.3px;stroke-linecap:round;stroke-linejoin:round;"/><g><path d="M20.631,158.571l-1.562,-1.562" style="fill:#fff;"/><path d="M20.631,158.571l-1.531,-1.687" style="fill:#fff;stroke:#000;stroke-width:0.3px;stroke-linecap:round;stroke-linejoin:round;"/><path d="M22.037,158.571l-2.906,-3.687" style="fill:#fff;stroke:#000;stroke-width:0.3px;stroke-linecap:round;stroke-linejoin:round;"/><path d="M19.1,153.009l4.344,5.531" style="fill:#fff;stroke:#000;stroke-width:0.3px;stroke-linecap:round;stroke-linejoin:round;"/><path d="M19.537,151.759l4.094,5.25" style="fill:#fff;stroke:#000;stroke-width:0.3px;stroke-linecap:round;stroke-linejoin:round;"/><path d="M20.319,150.821l3.281,4.313" style="fill:#fff;stroke:#000;stroke-width:0.3px;stroke-linecap:round;stroke-linejoin:round;"/><path d="M21.662,150.665l1.992,2.555" style="fill:#fff;stroke:#000;stroke-width:0.3px;stroke-linecap:round;stroke-linejoin:round;"/><path d="M21.35,158.509l2.312,-3.282" style="fill:#fff;stroke:#000;stroke-width:0.3px;stroke-linecap:round;stroke-linejoin:round;"/><path d="M23.6,157.04l-0.969,1.531" style="fill:#fff;stroke:#000;stroke-width:0.3px;stroke-linecap:round;stroke-linejoin:round;"/><path d="M19.802,158.522l3.829,-5.013" style="fill:#fff;stroke:#000;stroke-width:0.3px;stroke-linecap:round;stroke-linejoin:round;"/><path d="M19.131,157.54l4.375,-5.563" style="fill:#fff;stroke:#000;stroke-width:0.3px;stroke-linecap:round;stroke-linejoin:round;"/><path d="M19.069,155.634l3.875,-4.563" style="fill:#fff;stroke:#000;stroke-width:0.3px;stroke-linecap:round;stroke-linejoin:round;"/><path d="M19.037,153.821l2.813,-3.187" style="fill:#fff;stroke:#000;stroke-width:0.3px;stroke-linecap:round;stroke-linejoin:round;"/></g></g><path d="M5.727,349.731l0.046,-0.141l0.079,-0.155l0.109,-0.162l0.135,-0.16l0.16,-0.152l0.181,-0.137l0.199,-0.114l0.213,-0.083l0.225,-0.045l0.235,0l0.24,0.052l0.243,0.113l0.403,1.055l1.269,3.498l0.423,1.167l0.423,1.166l1.269,3.498l0.423,1.167l0.845,2.332l0.107,0.284l0.02,0.035l0.022,0.033l0.024,0.03l0.025,0.028l0.026,0.026l0.028,0.024l0.029,0.021l0.029,0.019l0.031,0.017l0.031,0.015l0.032,0.013l0.032,0.011l0.065,0.02l0.097,0l0.03,0l0.176,0l0.052,-0.024l0.052,-0.05l0.051,-0.074l0.049,-0.094l0.046,-0.113l0.044,-0.128l0.041,-0.14l0.038,-0.151l0.033,-0.157l0.029,-0.162l0.024,-0.164l-0.193,-1.823l-0.449,-3.816l-0.449,-3.815l-0.448,-3.816l-0.449,-3.815l-0.449,-3.816l-0.449,-3.815l-0.448,-3.815l-0.449,-3.816l-0.449,-3.815l-0.449,-3.816l-0.448,-3.815l-0.295,-2.584l-0.002,-0.251l-0.002,-0.25l-0.002,-0.251l-0.002,-0.251l-0.002,-0.251l-0.002,-0.251l-0.002,-0.25l-0.002,-0.251l-0.002,-0.251l-0.002,-0.251l-0.002,-0.251l-0.01,-0.313l-0.035,-0.488l-0.037,-0.442l-0.037,-0.4l-0.038,-0.36l-0.039,-0.324l-0.041,-0.29l-0.04,-0.26l-0.042,-0.233l-0.043,-0.209l-0.043,-0.189l-0.044,-0.171l-0.045,-0.156l-0.045,-0.144l-0.046,-0.133l-0.047,-0.122l-0.047,-0.111l-0.048,-0.102l-0.049,-0.092l-0.05,-0.083l-0.05,-0.075l-0.051,-0.066l-0.052,-0.059l-0.052,-0.052l-0.053,-0.045l-0.054,-0.039l-0.055,-0.032l-0.055,-0.026l-0.056,-0.02l-0.057,-0.014l-0.058,-0.008l-0.058,-0.002l-0.059,0.004l-0.059,0.01l-0.06,0.016l-0.061,0.022l-0.062,0.028l-0.062,0.034l-0.062,0.04l-0.064,0.047l-0.064,0.053l-0.065,0.06l-0.066,0.068l-0.066,0.076l-0.068,0.083l-0.069,0.092l-0.07,0.1l-0.072,0.11l-0.072,0.118l-0.074,0.128l-0.075,0.137l-0.076,0.144l-0.076,0.152l-0.076,0.157l-0.076,0.163l-0.075,0.166l-0.074,0.169l-0.072,0.172l-0.071,0.172l-0.069,0.173l-0.066,0.172l-0.064,0.17l-0.06,0.168l-0.057,0.167l-0.054,0.166l-0.05,0.166l-0.047,0.166l-0.043,0.166l-0.038,0.168l-0.035,0.169l-0.03,0.171" style="fill:url(#_Linear11);fill-rule:nonzero;stroke:#000;stroke-width:0.4px;"/><path d="M5.727,349.731l-0.037,0.216l-0.037,0.219l-0.037,0.224l-0.036,0.227l-0.036,0.232l-0.036,0.235l-0.035,0.239l-0.035,0.242l-0.034,0.246l-0.034,0.248l-0.034,0.252l-0.034,0.255l-0.033,0.257l-0.033,0.26l-0.033,0.262l-0.032,0.265l-0.033,0.266l-0.032,0.269l-0.031,0.271l-0.032,0.272l-0.031,0.274l-0.031,0.275l-0.062,0.554l-0.061,0.559l-0.06,0.561l-0.12,1.126l-0.059,0.562l-0.059,0.561l-0.058,0.558l-0.059,0.554l-0.029,0.275l-0.03,0.274l-0.029,0.272l-0.029,0.27l-0.029,0.268l-0.03,0.267l-0.029,0.264l-0.03,0.262l-0.029,0.259l-0.03,0.257l-0.015,0.127l-0.004,0.032l-0.002,0.016l-0.001,0.01l0,0l-0.001,0l-0.007,0.017l-0.008,0.014l-0.008,0.012l-0.008,0.01l-0.008,0.01l-0.008,0.01l-0.008,0l-0.008,0l-0.017,0l-0.016,0l-0.017,0l-0.033,-0.016l-0.065,-0.037l-0.063,-0.038l-0.061,-0.038l-0.059,-0.038l-0.057,-0.039l-0.055,-0.039l-0.054,-0.04l-0.051,-0.04l-0.05,-0.04l-0.049,-0.041l-0.046,-0.041l-0.045,-0.042l-0.044,-0.042l-0.042,-0.042l-0.04,-0.042l-0.039,-0.043l-0.037,-0.043l-0.07,-0.087l-0.065,-0.088l-0.06,-0.089l-0.055,-0.09l-0.05,-0.091l-0.046,-0.091l-0.043,-0.092l-0.038,-0.092l-0.035,-0.093l-0.032,-0.093l-0.028,-0.093l-0.027,-0.094l-0.024,-0.094l-0.022,-0.094l-0.02,-0.093l-0.019,-0.093l-0.009,-0.047l-0.004,-0.023l-0.002,-0.012l0,0l0,0l0,-0.001l0,-0.01l0.002,-0.056l0.004,-0.112l0.241,-7.213l0.482,-14.426l0.481,-14.426l0.241,-7.213l0.06,-1.803l0.015,-0.451l0.001,-0.028l0,-0.004l0,-0.002l0,0l0,-0.001l0.001,0l0,-0.003l0.001,-0.006l0.002,-0.012l0.007,-0.048l0.014,-0.093l0.015,-0.091l0.014,-0.088l0.015,-0.086l0.015,-0.085l0.014,-0.082l0.015,-0.081l0.015,-0.079l0.015,-0.078l0.015,-0.076l0.03,-0.148l0.032,-0.145l0.032,-0.14l0.033,-0.138l0.034,-0.137l0.036,-0.136l0.037,-0.136l0.038,-0.137l0.041,-0.139l0.043,-0.141l0.045,-0.143l0.049,-0.146l0.053,-0.149l0.028,-0.076l0.03,-0.077l0.03,-0.078l0.032,-0.079l0.033,-0.08l0.034,-0.081l0.036,-0.082l0.037,-0.084l0.039,-0.085l0.041,-0.086l0.042,-0.088l0.044,-0.089l0.046,-0.09l0.047,-0.092" style="fill:url(#_Linear12);fill-rule:nonzero;stroke:#000;stroke-width:0.4px;stroke-linecap:round;"/><path d="M22.593,349.731l-0.046,-0.141l-0.079,-0.155l-0.109,-0.162l-0.135,-0.16l-0.16,-0.152l-0.181,-0.137l-0.199,-0.114l-0.213,-0.083l-0.225,-0.045l-0.235,0l-0.24,0.052l-0.243,0.113l-0.403,1.055l-0.423,1.166l-0.423,1.166l-0.423,1.166l-0.423,1.167l-0.423,1.166l-0.423,1.166l-0.423,1.166l-0.423,1.166l-0.423,1.167l-0.423,1.166l-0.423,1.166l-0.106,0.284l-0.02,0.035l-0.022,0.033l-0.024,0.03l-0.025,0.028l-0.026,0.026l-0.028,0.024l-0.029,0.021l-0.029,0.019l-0.031,0.017l-0.031,0.015l-0.032,0.013l-0.032,0.011l-0.033,0.01l-0.032,0.01l-0.033,0l-0.032,0l-0.032,0l-0.03,0l-0.03,0l-0.029,0l-0.027,0l-0.026,0l-0.024,0l-0.04,0l-0.052,-0.024l-0.052,-0.05l-0.051,-0.074l-0.049,-0.094l-0.046,-0.113l-0.045,-0.128l-0.041,-0.14l-0.037,-0.151l-0.033,-0.157l-0.029,-0.162l-0.024,-0.164l0.193,-1.823l0.449,-3.816l0.448,-3.815l0.449,-3.816l0.449,-3.815l0.449,-3.816l0.448,-3.815l0.449,-3.815l0.449,-3.816l0.449,-3.815l0.448,-3.816l0.449,-3.815l0.294,-2.584l0.002,-0.251l0.002,-0.25l0.002,-0.251l0.002,-0.251l0.002,-0.251l0.002,-0.251l0.002,-0.25l0.002,-0.251l0.002,-0.251l0.002,-0.251l0.002,-0.251l0.01,-0.313l0.036,-0.488l0.036,-0.442l0.038,-0.4l0.038,-0.36l0.039,-0.324l0.04,-0.29l0.041,-0.26l0.042,-0.233l0.042,-0.209l0.044,-0.189l0.044,-0.171l0.044,-0.156l0.046,-0.144l0.046,-0.133l0.047,-0.122l0.047,-0.111l0.048,-0.102l0.049,-0.092l0.049,-0.083l0.051,-0.075l0.051,-0.066l0.051,-0.059l0.053,-0.052l0.053,-0.045l0.054,-0.039l0.055,-0.032l0.055,-0.026l0.056,-0.02l0.057,-0.014l0.058,-0.008l0.058,-0.002l0.059,0.004l0.059,0.01l0.06,0.016l0.061,0.022l0.061,0.028l0.062,0.034l0.063,0.04l0.063,0.047l0.064,0.053l0.065,0.06l0.066,0.068l0.067,0.076l0.068,0.083l0.069,0.092l0.07,0.1l0.071,0.11l0.073,0.118l0.074,0.128l0.075,0.137l0.076,0.144l0.076,0.152l0.076,0.157l0.075,0.163l0.075,0.166l0.074,0.169l0.073,0.172l0.071,0.172l0.069,0.173l0.066,0.172l0.063,0.17l0.061,0.168l0.057,0.167l0.054,0.166l0.05,0.166l0.046,0.166l0.043,0.166l0.039,0.168l0.034,0.169l0.03,0.171" style="fill:url(#_Linear13);fill-rule:nonzero;stroke:#000;stroke-width:0.4px;"/><path d="M22.593,349.731l0.037,0.216l0.037,0.219l0.037,0.224l0.036,0.227l0.036,0.232l0.036,0.235l0.035,0.239l0.035,0.242l0.034,0.246l0.034,0.248l0.034,0.252l0.034,0.255l0.033,0.257l0.033,0.26l0.033,0.262l0.032,0.265l0.033,0.266l0.032,0.269l0.031,0.271l0.032,0.272l0.031,0.274l0.031,0.275l0.062,0.554l0.061,0.559l0.06,0.561l0.12,1.126l0.059,0.562l0.059,0.561l0.058,0.558l0.059,0.554l0.029,0.275l0.029,0.274l0.03,0.272l0.029,0.27l0.029,0.268l0.03,0.267l0.029,0.264l0.03,0.262l0.029,0.259l0.03,0.257l0.015,0.127l0.006,0.048l0.001,0.01l0.001,0l0.007,0.017l0.008,0.014l0.008,0.012l0.024,0.03l0.065,0l0.034,-0.016l0.065,-0.037l0.063,-0.038l0.061,-0.038l0.059,-0.038l0.057,-0.039l0.055,-0.039l0.054,-0.04l0.051,-0.04l0.05,-0.04l0.049,-0.041l0.046,-0.041l0.045,-0.042l0.044,-0.042l0.041,-0.042l0.041,-0.042l0.039,-0.043l0.037,-0.043l0.07,-0.087l0.065,-0.088l0.06,-0.089l0.055,-0.09l0.05,-0.091l0.046,-0.091l0.042,-0.092l0.039,-0.092l0.035,-0.093l0.031,-0.093l0.029,-0.093l0.027,-0.094l0.024,-0.094l0.022,-0.094l0.02,-0.093l0.019,-0.093l0.009,-0.047l0.004,-0.023l0.002,-0.012l0,0l0,0l0,-0.001l0,-0.01l-0.002,-0.056l-0.004,-0.112l-0.241,-7.213l-0.482,-14.426l-0.481,-14.426l-0.241,-7.213l-0.06,-1.803l-0.015,-0.451l-0.001,-0.028l0,-0.004l-0.001,-0.002l0,0l0,-0.001l0,0l0,-0.003l-0.001,-0.006l-0.002,-0.012l-0.007,-0.048l-0.015,-0.093l-0.014,-0.091l-0.015,-0.088l-0.014,-0.086l-0.015,-0.085l-0.014,-0.082l-0.015,-0.081l-0.015,-0.079l-0.015,-0.078l-0.015,-0.076l-0.03,-0.148l-0.032,-0.145l-0.032,-0.14l-0.033,-0.138l-0.034,-0.137l-0.036,-0.136l-0.037,-0.136l-0.038,-0.137l-0.041,-0.139l-0.043,-0.141l-0.045,-0.143l-0.049,-0.146l-0.053,-0.149l-0.028,-0.076l-0.03,-0.077l-0.03,-0.078l-0.032,-0.079l-0.033,-0.08l-0.034,-0.081l-0.036,-0.082l-0.037,-0.084l-0.039,-0.085l-0.041,-0.086l-0.042,-0.088l-0.044,-0.089l-0.046,-0.09l-0.048,-0.092" style="fill:url(#_Linear14);fill-rule:nonzero;stroke:#000;stroke-width:0.4px;stroke-linecap:round;"/><path d="M8.667,312.607l-1.234,-1.307" style="fill:url(#_Linear15);fill-rule:nonzero;stroke:#000;stroke-width:0.4px;"/><path d="M7.433,311.3l-2.25,0" style="fill:url(#_Linear16);fill-rule:nonzero;stroke:#000;stroke-width:0.4px;"/><path d="M4.914,341.664l0.174,-24.119" style="fill:url(#_Linear17);fill-rule:nonzero;stroke:#000;stroke-width:0.4px;"/><path d="M5.088,317.545l2.161,-2.925" style="fill:url(#_Linear18);fill-rule:nonzero;stroke:#000;stroke-width:0.4px;"/><path d="M5.088,317.545l-1.032,-2.674" style="fill:url(#_Linear19);fill-rule:nonzero;stroke:#000;stroke-width:0.4px;"/><path d="M7.249,314.62l0.184,-3.32" style="fill:url(#_Linear20);fill-rule:nonzero;stroke:#000;stroke-width:0.4px;stroke-linecap:round;"/><path d="M4.223,362.294l0.614,0" style="fill:url(#_Linear21);fill-rule:nonzero;stroke:#000;stroke-width:0.4px;"/><path d="M4.148,362.95l0.689,0" style="fill:url(#_Linear22);fill-rule:nonzero;stroke:#000;stroke-width:0.4px;"/><path d="M13.854,362.95l0.612,0" style="fill:url(#_Linear23);fill-rule:nonzero;stroke:#000;stroke-width:0.4px;"/><path d="M14.05,362.294l0.22,0" style="fill:url(#_Linear24);fill-rule:nonzero;stroke:#000;stroke-width:0.4px;"/><path d="M2.905,362.198l0.118,-1.502l0.118,-1.502l0.119,-1.502l0.118,-1.501l0.119,-1.502l0.118,-1.502l0.119,-1.502l0.118,-1.502l0.118,-1.501l0.119,-1.502l0.118,-1.502l0.119,-1.502l0.118,-1.502l0.05,-0.476l0.033,-0.119l0.039,-0.103l0.045,-0.086l0.05,-0.071l0.054,-0.057l0.057,-0.043l0.061,-0.031l0.063,-0.019l0.064,-0.01l0.066,0l0.065,0.01l0.066,0.018l0.064,0.025l0.063,0.032l0.062,0.038l0.06,0.043l0.058,0.047l0.057,0.052l0.055,0.055l0.053,0.058l0.052,0.06l0.049,0.062l0.048,0.063l0.045,0.064l0.044,0.064l0.177,0.44l0.583,1.57l0.582,1.569l0.583,1.569l0.583,1.57l0.583,1.569l1.166,3.139l0.583,1.569l0.582,1.569l0.583,1.57l1.166,3.138l0.583,1.569" style="fill:url(#_Linear25);fill-rule:nonzero;stroke:#000;stroke-width:0.4px;"/><path d="M19.653,312.607l1.234,-1.307" style="fill:url(#_Linear26);fill-rule:nonzero;stroke:#000;stroke-width:0.4px;"/><path d="M20.887,311.3l2.25,0" style="fill:url(#_Linear27);fill-rule:nonzero;stroke:#000;stroke-width:0.4px;"/><path d="M23.406,341.664l-0.174,-24.119" style="fill:url(#_Linear28);fill-rule:nonzero;stroke:#000;stroke-width:0.4px;"/><path d="M23.232,317.545l-2.161,-2.925" style="fill:url(#_Linear29);fill-rule:nonzero;stroke:#000;stroke-width:0.4px;"/><path d="M23.232,317.545l1.032,-2.674" style="fill:url(#_Linear30);fill-rule:nonzero;stroke:#000;stroke-width:0.4px;"/><path d="M21.071,314.62l-0.184,-3.32" style="fill:url(#_Linear31);fill-rule:nonzero;stroke:#000;stroke-width:0.4px;stroke-linecap:round;"/><path d="M24.097,362.294l-0.614,0" style="fill:url(#_Linear32);fill-rule:nonzero;stroke:#000;stroke-width:0.4px;"/><path d="M24.172,362.95l-0.689,0" style="fill:url(#_Linear33);fill-rule:nonzero;stroke:#000;stroke-width:0.4px;"/><path d="M25.415,362.198l-0.118,-1.502l-0.118,-1.502l-0.119,-1.502l-0.118,-1.501l-0.119,-1.502l-0.118,-1.502l-0.119,-1.502l-0.118,-1.502l-0.118,-1.501l-0.119,-1.502l-0.118,-1.502l-0.119,-1.502l-0.118,-1.502l-0.05,-0.476l-0.033,-0.119l-0.039,-0.103l-0.045,-0.086l-0.05,-0.071l-0.054,-0.057l-0.057,-0.043l-0.061,-0.031l-0.063,-0.019l-0.064,-0.01l-0.066,0l-0.066,0.01l-0.065,0.018l-0.064,0.025l-0.063,0.032l-0.062,0.038l-0.06,0.043l-0.058,0.047l-0.057,0.052l-0.055,0.055l-0.053,0.058l-0.052,0.06l-0.049,0.062l-0.048,0.063l-0.045,0.064l-0.044,0.064l-0.177,0.44l-0.583,1.57l-0.583,1.569l-0.582,1.569l-0.583,1.57l-0.583,1.569l-0.583,1.569l-0.583,1.57l-0.583,1.569l-0.582,1.569l-0.583,1.57l-0.583,1.569l-0.583,1.569l-0.583,1.569" style="fill:url(#_Linear34);fill-rule:nonzero;stroke:#000;stroke-width:0.4px;"/></g></g><defs><linearGradient id="_Linear2" x1="0" y1="0" x2="1" y2="0" gradientUnits="userSpaceOnUse" gradientTransform="matrix(4.4773,0,0,4.43284,8.09355,138.827)"><stop offset="0" style="stop-color:#000;stop-opacity:0.033654"/><stop offset="1" style="stop-color:#000;stop-opacity:0"/></linearGradient><linearGradient id="_Linear3" x1="0" y1="0" x2="1" y2="0" gradientUnits="userSpaceOnUse" gradientTransform="matrix(-4.4116,0,0,4.36779,20.1055,138.692)"><stop offset="0" style="stop-color:#000;stop-opacity:0.033654"/><stop offset="1" style="stop-color:#000;stop-opacity:0"/></linearGradient><linearGradient id="_Linear4" x1="0" y1="0" x2="1" y2="0" gradientUnits="userSpaceOnUse" gradientTransform="matrix(14.1153,0,0,14.1153,-2.21394,694.628)"><stop offset="0" style="stop-color:#e6e6e6;stop-opacity:1"/><stop offset="1" style="stop-color:#f9f9f9;stop-opacity:1"/></linearGradient><linearGradient id="_Linear5" x1="0" y1="0" x2="1" y2="0" gradientUnits="userSpaceOnUse" gradientTransform="matrix(14.1153,0,0,14.1153,-2.21394,694.628)"><stop offset="0" style="stop-color:#e6e6e6;stop-opacity:1"/><stop offset="1" style="stop-color:#f9f9f9;stop-opacity:1"/></linearGradient><linearGradient id="_Linear6" x1="0" y1="0" x2="1" y2="0" gradientUnits="userSpaceOnUse" gradientTransform="matrix(-17.48,0,0,17.48,31.3195,695.003)"><stop offset="0" style="stop-color:#e6e6e6;stop-opacity:1"/><stop offset="1" style="stop-color:#fff;stop-opacity:1"/></linearGradient><linearGradient id="_Linear7" x1="0" y1="0" x2="1" y2="0" gradientUnits="userSpaceOnUse" gradientTransform="matrix(-17.48,0,0,17.48,31.3195,695.003)"><stop offset="0" style="stop-color:#e6e6e6;stop-opacity:1"/><stop offset="1" style="stop-color:#fff;stop-opacity:1"/></linearGradient><linearGradient id="_Linear8" x1="0" y1="0" x2="1" y2="0" gradientUnits="userSpaceOnUse" gradientTransform="matrix(-9.35629,-0,-0,-9.35629,23.5954,135.55)"><stop offset="0" style="stop-color:#000;stop-opacity:1"/><stop offset="1" style="stop-color:#000;stop-opacity:0.623529"/></linearGradient><radialGradient id="_Radial9" cx="0" cy="0" r="1" gradientUnits="userSpaceOnUse" gradientTransform="matrix(1.91631,0,0,2.58536,7.19511,148.667)"><stop offset="0" style="stop-color:#808080;stop-opacity:1"/><stop offset="1" style="stop-color:#000;stop-opacity:1"/></radialGradient><radialGradient id="_Radial10" cx="0" cy="0" r="1" gradientUnits="userSpaceOnUse" gradientTransform="matrix(-1.91644,0,0,2.58536,20.8957,148.667)"><stop offset="0" style="stop-color:#808080;stop-opacity:1"/><stop offset="1" style="stop-color:#000;stop-opacity:1"/></radialGradient><linearGradient id="_Linear11" x1="0" y1="0" x2="1" y2="0" gradientUnits="userSpaceOnUse" gradientTransform="matrix(11.9605,0,0,11.9605,2.27343,335.479)"><stop offset="0" style="stop-color:#051307;stop-opacity:1"/><stop offset="1" style="stop-color:#050707;stop-opacity:0.498039"/></linearGradient><linearGradient id="_Linear12" x1="0" y1="0" x2="1" y2="0" gradientUnits="userSpaceOnUse" gradientTransform="matrix(11.9605,0,0,11.9605,2.27343,335.479)"><stop offset="0" style="stop-color:#051307;stop-opacity:1"/><stop offset="1" style="stop-color:#050707;stop-opacity:0.498039"/></linearGradient><linearGradient id="_Linear13" x1="0" y1="0" x2="1" y2="0" gradientUnits="userSpaceOnUse" gradientTransform="matrix(11.9605,0,0,11.9605,2.27343,335.479)"><stop offset="0" style="stop-color:#051307;stop-opacity:1"/><stop offset="1" style="stop-color:#050707;stop-opacity:0.498039"/></linearGradient><linearGradient id="_Linear14" x1="0" y1="0" x2="1" y2="0" gradientUnits="userSpaceOnUse" gradientTransform="matrix(11.9605,0,0,11.9605,2.27343,335.479)"><stop offset="0" style="stop-color:#051307;stop-opacity:1"/><stop offset="1" style="stop-color:#050707;stop-opacity:0.498039"/></linearGradient><linearGradient id="_Linear15" x1="0" y1="0" x2="1" y2="0" gradientUnits="userSpaceOnUse" gradientTransform="matrix(11.9605,0,0,11.9605,2.27343,335.479)"><stop offset="0" style="stop-color:#051307;stop-opacity:1"/><stop offset="1" style="stop-color:#050707;stop-opacity:0.498039"/></linearGradient><linearGradient id="_Linear16" x1="0" y1="0" x2="1" y2="0" gradientUnits="userSpaceOnUse" gradientTransform="matrix(11.9605,0,0,11.9605,2.27343,335.479)"><stop offset="0" style="stop-color:#051307;stop-opacity:1"/><stop offset="1" style="stop-color:#050707;stop-opacity:0.498039"/></linearGradient><linearGradient id="_Linear17" x1="0" y1="0" x2="1" y2="0" gradientUnits="userSpaceOnUse" gradientTransform="matrix(11.9605,0,0,11.9605,2.27343,335.479)"><stop offset="0" style="stop-color:#051307;stop-opacity:1"/><stop offset="1" style="stop-color:#050707;stop-opacity:0.498039"/></linearGradient><linearGradient id="_Linear18" x1="0" y1="0" x2="1" y2="0" gradientUnits="userSpaceOnUse" gradientTransform="matrix(11.9605,0,0,11.9605,2.27343,335.479)"><stop offset="0" style="stop-color:#051307;stop-opacity:1"/><stop offset="1" style="stop-color:#050707;stop-opacity:0.498039"/></linearGradient><linearGradient id="_Linear19" x1="0" y1="0" x2="1" y2="0" gradientUnits="userSpaceOnUse" gradientTransform="matrix(11.9605,0,0,11.9605,2.27343,335.479)"><stop offset="0" style="stop-color:#051307;stop-opacity:1"/><stop offset="1" style="stop-color:#050707;stop-opacity:0.498039"/></linearGradient><linearGradient id="_Linear20" x1="0" y1="0" x2="1" y2="0" gradientUnits="userSpaceOnUse" gradientTransform="matrix(11.9605,0,0,11.9605,2.27343,335.479)"><stop offset="0" style="stop-color:#051307;stop-opacity:1"/><stop offset="1" style="stop-color:#050707;stop-opacity:0.498039"/></linearGradient><linearGradient id="_Linear21" x1="0" y1="0" x2="1" y2="0" gradientUnits="userSpaceOnUse" gradientTransform="matrix(11.9605,0,0,11.9605,2.27343,335.479)"><stop offset="0" style="stop-color:#051307;stop-opacity:1"/><stop offset="1" style="stop-color:#050707;stop-opacity:0.498039"/></linearGradient><linearGradient id="_Linear22" x1="0" y1="0" x2="1" y2="0" gradientUnits="userSpaceOnUse" gradientTransform="matrix(11.9605,0,0,11.9605,2.27343,335.479)"><stop offset="0" style="stop-color:#051307;stop-opacity:1"/><stop offset="1" style="stop-color:#050707;stop-opacity:0.498039"/></linearGradient><linearGradient id="_Linear23" x1="0" y1="0" x2="1" y2="0" gradientUnits="userSpaceOnUse" gradientTransform="matrix(11.9605,0,0,11.9605,2.27343,335.479)"><stop offset="0" style="stop-color:#051307;stop-opacity:1"/><stop offset="1" style="stop-color:#050707;stop-opacity:0.498039"/></linearGradient><linearGradient id="_Linear24" x1="0" y1="0" x2="1" y2="0" gradientUnits="userSpaceOnUse" gradientTransform="matrix(11.9605,0,0,11.9605,2.27343,335.479)"><stop offset="0" style="stop-color:#051307;stop-opacity:1"/><stop offset="1" style="stop-color:#050707;stop-opacity:0.498039"/></linearGradient><linearGradient id="_Linear25" x1="0" y1="0" x2="1" y2="0" gradientUnits="userSpaceOnUse" gradientTransform="matrix(11.9605,0,0,11.9605,2.27343,335.479)"><stop offset="0" style="stop-color:#051307;stop-opacity:1"/><stop offset="1" style="stop-color:#050707;stop-opacity:0.498039"/></linearGradient><linearGradient id="_Linear26" x1="0" y1="0" x2="1" y2="0" gradientUnits="userSpaceOnUse" gradientTransform="matrix(11.9605,0,0,11.9605,2.27343,335.479)"><stop offset="0" style="stop-color:#051307;stop-opacity:1"/><stop offset="1" style="stop-color:#050707;stop-opacity:0.498039"/></linearGradient><linearGradient id="_Linear27" x1="0" y1="0" x2="1" y2="0" gradientUnits="userSpaceOnUse" gradientTransform="matrix(11.9605,0,0,11.9605,2.27343,335.479)"><stop offset="0" style="stop-color:#051307;stop-opacity:1"/><stop offset="1" style="stop-color:#050707;stop-opacity:0.498039"/></linearGradient><linearGradient id="_Linear28" x1="0" y1="0" x2="1" y2="0" gradientUnits="userSpaceOnUse" gradientTransform="matrix(11.9605,0,0,11.9605,2.27343,335.479)"><stop offset="0" style="stop-color:#051307;stop-opacity:1"/><stop offset="1" style="stop-color:#050707;stop-opacity:0.498039"/></linearGradient><linearGradient id="_Linear29" x1="0" y1="0" x2="1" y2="0" gradientUnits="userSpaceOnUse" gradientTransform="matrix(11.9605,0,0,11.9605,2.27343,335.479)"><stop offset="0" style="stop-color:#051307;stop-opacity:1"/><stop offset="1" style="stop-color:#050707;stop-opacity:0.498039"/></linearGradient><linearGradient id="_Linear30" x1="0" y1="0" x2="1" y2="0" gradientUnits="userSpaceOnUse" gradientTransform="matrix(11.9605,0,0,11.9605,2.27343,335.479)"><stop offset="0" style="stop-color:#051307;stop-opacity:1"/><stop offset="1" style="stop-color:#050707;stop-opacity:0.498039"/></linearGradient><linearGradient id="_Linear31" x1="0" y1="0" x2="1" y2="0" gradientUnits="userSpaceOnUse" gradientTransform="matrix(11.9605,0,0,11.9605,2.27343,335.479)"><stop offset="0" style="stop-color:#051307;stop-opacity:1"/><stop offset="1" style="stop-color:#050707;stop-opacity:0.498039"/></linearGradient><linearGradient id="_Linear32" x1="0" y1="0" x2="1" y2="0" gradientUnits="userSpaceOnUse" gradientTransform="matrix(11.9605,0,0,11.9605,2.27343,335.479)"><stop offset="0" style="stop-color:#051307;stop-opacity:1"/><stop offset="1" style="stop-color:#050707;stop-opacity:0.498039"/></linearGradient><linearGradient id="_Linear33" x1="0" y1="0" x2="1" y2="0" gradientUnits="userSpaceOnUse" gradientTransform="matrix(11.9605,0,0,11.9605,2.27343,335.479)"><stop offset="0" style="stop-color:#051307;stop-opacity:1"/><stop offset="1" style="stop-color:#050707;stop-opacity:0.498039"/></linearGradient><linearGradient id="_Linear34" x1="0" y1="0" x2="1" y2="0" gradientUnits="userSpaceOnUse" gradientTransform="matrix(11.9605,0,0,11.9605,2.27343,335.479)"><stop offset="0" style="stop-color:#051307;stop-opacity:1"/><stop offset="1" style="stop-color:#050707;stop-opacity:0.498039"/></linearGradient></defs></svg>